<svg width="80" height="80" viewBox="0 0 80 80" fill="none" xmlns="http://www.w3.org/2000/svg">
<g clip-path="url(#clip0_234_5203)">
<path d="M15.1196 27.4085C16.0615 26.2304 16.7006 24.6486 16.5321 23.0322C15.1534 23.1008 13.4709 23.9419 12.4968 25.1208C11.6221 26.1305 10.8481 27.7785 11.0499 29.3271C12.5974 29.4613 14.1438 28.5535 15.1196 27.4085Z" fill="black"/>
<path d="M16.5146 29.6291C14.2669 29.4952 12.3558 30.9047 11.2824 30.9047C10.2085 30.9047 8.56475 29.6966 6.78694 29.7291C4.47303 29.7632 2.326 31.0714 1.15178 33.1522C-1.26338 37.3149 0.514437 43.4896 2.86303 46.8797C4.0035 48.5569 5.37819 50.4038 7.18928 50.3374C8.90053 50.2702 9.57131 49.2292 11.6513 49.2292C13.7299 49.2292 14.3341 50.3374 16.1455 50.3038C18.0241 50.2702 19.1985 48.6257 20.339 46.9467C21.6474 45.0347 22.183 43.1886 22.2166 43.0872C22.1829 43.0536 18.5943 41.6769 18.561 37.5489C18.5271 34.0925 21.3785 32.4483 21.5127 32.3464C19.9027 29.9652 17.3868 29.6966 16.5146 29.6291Z" fill="black"/>
<path d="M36.0859 24.9512C40.9712 24.9512 44.3729 28.3187 44.3729 33.2215C44.3729 38.1418 40.901 41.5268 35.9634 41.5268H30.5545V50.1285H26.6465V24.9512H36.0859ZM30.5543 38.2465H35.0384C38.4409 38.2465 40.3773 36.4146 40.3773 33.239C40.3773 30.0637 38.4409 28.249 35.0559 28.249H30.5543V38.2465Z" fill="black"/>
<path d="M45.394 44.9122C45.394 41.7016 47.8542 39.73 52.2165 39.4858L57.2412 39.1893V37.7761C57.2412 35.7347 55.8628 34.5133 53.5601 34.5133C51.3786 34.5133 50.0176 35.56 49.6865 37.2004H46.1272C46.3365 33.885 49.1628 31.4424 53.6995 31.4424C58.1486 31.4424 60.9925 33.7979 60.9925 37.4793V50.1289H57.3806V47.1105H57.2937C56.2295 49.1521 53.9087 50.443 51.5011 50.443C47.9067 50.443 45.394 48.2096 45.394 44.9122ZM57.2411 43.2547V41.8066L52.722 42.0857C50.4712 42.2429 49.1976 43.2374 49.1976 44.8077C49.1976 46.4127 50.5236 47.4597 52.5476 47.4597C55.1822 47.4594 57.2411 45.6449 57.2411 43.2547Z" fill="black"/>
<path d="M64.4021 56.8811V53.8277C64.6808 53.8973 65.3088 53.8973 65.623 53.8973C67.3677 53.8973 68.3101 53.1647 68.8855 51.2803C68.8855 51.2453 69.2174 50.1636 69.2174 50.1461L62.5874 31.7734H66.6697L71.3115 46.7089H71.3808L76.0226 31.7734H80.0002L73.1252 51.0881C71.5555 55.5377 69.7408 56.9683 65.9372 56.9683C65.623 56.9683 64.6807 56.9333 64.4021 56.8811Z" fill="black"/>
</g>
<defs>
<clipPath id="clip0_234_5203">
<rect width="80" height="80" fill="white"/>
</clipPath>
</defs>
</svg>
