<svg width="100" height="22" viewBox="0 0 100 22" fill="none" xmlns="http://www.w3.org/2000/svg">
<g id="shapes" filter="url(#filter0_b_242_6158)">
<path id="path1284" d="M18.0449 0.94668L18.0449 22C12.0303 18.5187 6.01428 15.0373 -0.000389556 11.5573C6.01428 8.01999 12.0303 4.48268 18.0449 0.94668Z" fill="#FED760"/>
<path id="path1286" d="M34.7969 0.94668L34.7969 22C28.7809 18.5187 22.7662 15.0373 16.7516 11.5573C22.7662 8.01999 28.7809 4.48268 34.7969 0.94668Z" fill="#FED760"/>
<path id="path1288" d="M51.5469 0.94668L51.5469 22C45.5322 18.5187 39.5175 15.0373 33.5015 11.5573C39.5175 8.01999 45.5322 4.48268 51.5469 0.94668Z" fill="#FED760"/>
<path id="path1290" d="M67.5898 0.94668L67.5898 22C61.5752 18.5187 55.5605 15.0373 49.5459 11.5573C55.5605 8.01999 61.5752 4.48268 67.5898 0.94668Z" fill="#FED760"/>
<path id="path1292" d="M82.7969 0.94668L82.7969 22C76.7809 18.5187 70.7662 15.0373 64.7516 11.5573C70.7662 8.01999 76.7809 4.48268 82.7969 0.94668Z" fill="#FED760"/>
<path id="path1294" d="M99.5469 0.94668L99.5469 22C93.5322 18.5187 87.5175 15.0373 81.5015 11.5573C87.5175 8.01999 93.5322 4.48268 99.5469 0.94668Z" fill="#FED760"/>
</g>
<defs>
<filter id="filter0_b_242_6158" x="-4" y="-3.05371" width="107.547" height="29.0537" filterUnits="userSpaceOnUse" color-interpolation-filters="sRGB">
<feFlood flood-opacity="0" result="BackgroundImageFix"/>
<feGaussianBlur in="BackgroundImageFix" stdDeviation="2"/>
<feComposite in2="SourceAlpha" operator="in" result="effect1_backgroundBlur_242_6158"/>
<feBlend mode="normal" in="SourceGraphic" in2="effect1_backgroundBlur_242_6158" result="shape"/>
</filter>
</defs>
</svg>
