<svg width="20" height="20" viewBox="0 0 20 20" fill="none" xmlns="http://www.w3.org/2000/svg">
<g id="Chat" clip-path="url(#clip0_1127_3079)">
<path id="Vector" opacity="0.5" d="M13.2957 6.41095C16.9476 6.35517 19.9282 9.22943 19.9989 12.881C20.0093 13.4172 19.9557 13.939 19.8453 14.4395C19.6583 15.2871 19.5472 16.1495 19.5472 17.0175V18.6951C19.5472 18.9521 19.3389 19.1605 19.0818 19.1605H17.4042C16.5362 19.1605 15.6738 19.2716 14.8263 19.4586C14.3257 19.569 13.8039 19.6226 13.2678 19.6122C9.61622 19.5415 6.74197 16.561 6.79767 12.9092C6.85201 9.34474 9.7313 6.46541 13.2957 6.41095Z" fill="#959595"/>
<path id="Vector_2" opacity="0.5" d="M13.2957 6.41095C16.9476 6.35517 19.9282 9.22943 19.9989 12.881C20.0093 13.4172 19.9557 13.939 19.8453 14.4395C19.6583 15.2871 19.5472 16.1495 19.5472 17.0175V18.6951C19.5472 18.9521 19.3389 19.1605 19.0818 19.1605H17.4042C16.5362 19.1605 15.6738 19.2716 14.8263 19.4586C14.3257 19.569 13.8039 19.6226 13.2678 19.6122C9.61622 19.5415 6.74197 16.561 6.79767 12.9092C6.85201 9.34474 9.7313 6.46541 13.2957 6.41095Z" fill="#959595"/>
<path id="Vector_3" d="M8.16789 0.386715C3.71891 0.318746 0.0877092 3.82034 0.00153747 8.269C-0.0110797 8.92209 0.0541936 9.55791 0.188725 10.1677C0.416459 11.2002 0.551849 12.2509 0.551849 13.3083V15.3521C0.551849 15.6652 0.805677 15.9191 1.11884 15.9191H3.16266C4.22001 15.9191 5.27075 16.0545 6.30328 16.2822C6.91305 16.4167 7.54883 16.482 8.20191 16.4694C12.6505 16.3832 16.1521 12.7522 16.0843 8.30326C16.018 3.96081 12.5103 0.453004 8.16789 0.386715Z" fill="#959595"/>
<path id="Vector_4" d="M5.16394 7.9975C4.93675 7.75609 4.61519 7.60449 4.25746 7.60449C3.56945 7.60449 3.01172 8.16223 3.01172 8.85023C3.01172 9.20793 3.16328 9.52949 3.40473 9.75671L6.09199 12.444C6.31921 12.6854 6.64077 12.837 6.99847 12.837C7.68648 12.837 8.24421 12.2792 8.24421 11.5912C8.24421 11.2335 8.09261 10.912 7.8512 10.6848L5.16394 7.9975Z" fill="#959595"/>
<path id="Vector_5" d="M4.25746 10.096C4.94546 10.096 5.5032 9.53824 5.5032 8.85023C5.5032 8.16223 4.94546 7.60449 4.25746 7.60449C3.56946 7.60449 3.01172 8.16223 3.01172 8.85023C3.01172 9.53824 3.56946 10.096 4.25746 10.096Z" fill="white"/>
<path id="Vector_6" d="M8.68738 7.9975C8.46019 7.75609 8.13863 7.60449 7.7809 7.60449C7.09289 7.60449 6.53516 8.16223 6.53516 8.85023C6.53516 9.20793 6.68672 9.52949 6.92816 9.75671L9.61542 12.444C9.84265 12.6854 10.1642 12.837 10.5219 12.837C11.2099 12.837 11.7676 12.2792 11.7676 11.5912C11.7676 11.2335 11.616 10.912 11.3746 10.6848L8.68738 7.9975Z" fill="#959595"/>
<path id="Vector_7" d="M7.7809 10.096C8.4689 10.096 9.02664 9.53824 9.02664 8.85023C9.02664 8.16223 8.4689 7.60449 7.7809 7.60449C7.09289 7.60449 6.53516 8.16223 6.53516 8.85023C6.53516 9.53824 7.09289 10.096 7.7809 10.096Z" fill="white"/>
<path id="Vector_8" d="M12.2089 7.9975C11.9817 7.75609 11.6601 7.60449 11.3024 7.60449C10.6144 7.60449 10.0566 8.16223 10.0566 8.85023C10.0566 9.20793 10.2082 9.52949 10.4496 9.75671L13.1369 12.444C13.3641 12.6854 13.6857 12.837 14.0434 12.837C14.7314 12.837 15.2891 12.2792 15.2891 11.5912C15.2891 11.2335 15.1375 10.912 14.8961 10.6848L12.2089 7.9975Z" fill="#959595"/>
<path id="Vector_9" d="M11.3043 10.096C11.9923 10.096 12.5501 9.53824 12.5501 8.85023C12.5501 8.16223 11.9923 7.60449 11.3043 7.60449C10.6163 7.60449 10.0586 8.16223 10.0586 8.85023C10.0586 9.53824 10.6163 10.096 11.3043 10.096Z" fill="white"/>
</g>
<defs>
<clipPath id="clip0_1127_3079">
<rect width="20" height="20" fill="white"/>
</clipPath>
</defs>
</svg>
