<svg width="21" height="20" viewBox="0 0 21 20" fill="none" xmlns="http://www.w3.org/2000/svg">
<g id="competition" clip-path="url(#clip0_1127_3064)">
<path id="Vector" d="M12.4316 7.5C12.3091 7.5 12.1866 7.46417 12.08 7.39167L10.5 6.31667L8.91995 7.39167C8.70579 7.53833 8.42245 7.53667 8.20995 7.38667C7.99745 7.23833 7.89829 6.97333 7.96245 6.72083L8.45995 4.76L6.96912 3.4875C6.77495 3.32083 6.70079 3.05417 6.78329 2.8125C6.86495 2.57 7.08495 2.4025 7.33995 2.3875L9.22745 2.28083L9.91412 0.41C10.0033 0.163333 10.2383 0 10.5 0C10.7616 0 10.9966 0.163333 11.0866 0.41L11.7733 2.28083L13.6608 2.3875C13.9158 2.4025 14.1358 2.57 14.2175 2.8125C14.2991 3.05417 14.2258 3.32083 14.0316 3.4875L12.5408 4.76083L13.0383 6.72167C13.1025 6.97417 13.0033 7.23833 12.7908 7.3875C12.6825 7.4625 12.5566 7.5 12.4316 7.5Z" fill="#959595"/>
<path id="Vector_2" d="M19.8753 15.833H15.9169V19.3747C15.9169 19.5913 15.8753 19.808 15.8086 19.9997H19.8753C20.2169 19.9997 20.5003 19.7163 20.5003 19.3747V16.458C20.5003 16.1163 20.2169 15.833 19.8753 15.833Z" fill="#959595"/>
<path id="Vector_3" d="M5.08333 14.167H1.125C0.783333 14.167 0.5 14.4503 0.5 14.792V19.3753C0.5 19.717 0.783333 20.0003 1.125 20.0003H5.19167C5.125 19.8087 5.08333 19.592 5.08333 19.3753V14.167Z" fill="#959595"/>
<path id="Vector_4" d="M14.0423 9.16699H6.95898C6.61398 9.16699 6.33398 9.44699 6.33398 9.79199V19.3753C6.33398 19.7203 6.61398 20.0003 6.95898 20.0003H14.0423C14.3873 20.0003 14.6673 19.7203 14.6673 19.3753V9.79199C14.6673 9.44699 14.3873 9.16699 14.0423 9.16699ZM11.1257 16.042C11.1257 16.387 10.8457 16.667 10.5007 16.667C10.1557 16.667 9.87565 16.387 9.87565 16.042V13.5912C9.74815 13.477 9.66732 13.3103 9.66732 13.1253C9.66732 12.7803 9.94732 12.5003 10.2923 12.5003H10.5007C10.8457 12.5003 11.1257 12.7803 11.1257 13.1253V16.042Z" fill="#959595"/>
</g>
<defs>
<clipPath id="clip0_1127_3064">
<rect width="20" height="20" fill="white" transform="translate(0.5)"/>
</clipPath>
</defs>
</svg>
