<svg width="56" height="56" viewBox="0 0 56 56" fill="none" xmlns="http://www.w3.org/2000/svg">
<path d="M55.5195 3.76179L52.2382 0.480539C51.5975 -0.16018 50.5588 -0.16018 49.918 0.480539C49.2773 1.12126 49.2773 2.15999 49.918 2.80071L50.3985 3.2813H43.4218C42.5158 3.2813 41.7812 4.01587 41.7812 4.92193C41.7812 5.82799 42.5158 6.56255 43.4218 6.56255H50.3985L49.918 7.04304C49.2773 7.68376 49.2773 8.72249 49.918 9.36321C50.5588 10.0039 51.5975 10.0039 52.2382 9.36321L55.5195 6.08196C56.1602 5.44135 56.1602 4.40251 55.5195 3.76179ZM12.5781 49.4376H5.60148L6.08196 48.9571C6.72268 48.3163 6.72268 47.2776 6.08196 46.6369C5.44124 45.9962 4.40251 45.9962 3.76179 46.6369L0.480539 49.9181C-0.16018 50.5589 -0.16018 51.5976 0.480539 52.2383L3.76179 55.5196C4.40251 56.1603 5.44124 56.1603 6.08196 55.5196C6.72268 54.8788 6.72268 53.8401 6.08196 53.1994L5.60148 52.7188H12.5781C13.4841 52.7188 14.2187 51.9842 14.2187 51.0782C14.2187 50.1721 13.4841 49.4376 12.5781 49.4376ZM30.9236 32.2246C30.7912 33.0127 30.3202 33.8408 29.5327 34.3416V29.5783C31.0626 30.2851 31.0209 31.6461 30.9236 32.2246ZM25.9504 24.3278C26.0436 24.401 26.1456 24.4729 26.2515 24.5442V21.59C25.8707 21.9385 25.6553 22.4164 25.5762 22.8361C25.4566 23.4704 25.6035 24.0558 25.9504 24.3278ZM43.8593 28.0001C43.8593 36.7449 36.7448 43.8594 27.9999 43.8594C19.2551 43.8594 12.1406 36.7449 12.1406 28.0001C12.1406 19.2552 19.2551 12.1407 27.9999 12.1407C36.7448 12.1407 43.8593 19.2552 43.8593 28.0001ZM30.3071 26.3553C30.052 26.2652 29.7926 26.1716 29.5327 26.0755V21.197C29.9201 21.3587 30.1255 21.5524 30.1593 21.5861C30.7564 22.2574 31.784 22.3239 32.4629 21.7322C33.1459 21.1369 33.2171 20.1006 32.6218 19.4174C32.1018 18.8208 31.0366 18.0748 29.5327 17.7983V17.0626C29.5327 16.1565 28.7982 15.4219 27.8921 15.4219C26.986 15.4219 26.2515 16.1565 26.2515 17.0626V17.9758C26.1733 17.9971 26.095 18.0184 26.0157 18.0422C24.1356 18.6086 22.7317 20.2127 22.3517 22.2284C22.0026 24.0807 22.6056 25.8744 23.9254 26.9096C24.5328 27.386 25.2702 27.823 26.2516 28.2757V34.7333C25.5998 34.6273 25.0881 34.388 24.2934 33.8681C23.5349 33.3721 22.5184 33.5847 22.0223 34.3429C21.5263 35.1012 21.7388 36.118 22.4971 36.6141C23.9193 37.5446 24.9593 37.9089 26.2516 38.0344V38.9376C26.2516 39.8436 26.9861 40.5782 27.8922 40.5782C28.7983 40.5782 29.5328 39.8436 29.5328 38.9376V37.8801C30.5143 37.6242 31.408 37.1399 32.1683 36.4413C33.2161 35.4786 33.9233 34.1743 34.1596 32.7686C34.6389 29.9165 33.0908 27.3391 30.3071 26.3553Z" fill="url(#paint0_linear_230_4478)"/>
<defs>
<linearGradient id="paint0_linear_230_4478" x1="27.9999" y1="56.0001" x2="27.9999" y2="5.34058e-05" gradientUnits="userSpaceOnUse">
<stop stop-color="#00B59C"/>
<stop offset="1" stop-color="#9CFFAC"/>
</linearGradient>
</defs>
</svg>
