<svg width="20" height="20" viewBox="0 0 20 20" fill="none" xmlns="http://www.w3.org/2000/svg">
<g id="fi_2910791" clip-path="url(#clip0_1127_3072)">
<path id="Vector" d="M12.4993 5.41699C12.0393 5.41699 11.666 5.04366 11.666 4.58366V3.33366H8.33268V4.58366C8.33268 5.04366 7.95935 5.41699 7.49935 5.41699C7.03935 5.41699 6.66602 5.04366 6.66602 4.58366V3.33366C6.66602 2.41449 7.41352 1.66699 8.33268 1.66699H11.666C12.5852 1.66699 13.3327 2.41449 13.3327 3.33366V4.58366C13.3327 5.04366 12.9593 5.41699 12.4993 5.41699Z" fill="#959595"/>
<path id="Vector_2" d="M10.5917 12.8169C10.4417 12.8753 10.225 12.9169 10 12.9169C9.775 12.9169 9.55833 12.8753 9.35833 12.8003L0 9.68359V16.0419C0 17.3086 1.025 18.3336 2.29167 18.3336H17.7083C18.975 18.3336 20 17.3086 20 16.0419V9.68359L10.5917 12.8169Z" fill="#959595"/>
<path id="Vector_3" d="M20 6.45866V8.36699L10.2 11.6337C10.1333 11.6587 10.0667 11.667 10 11.667C9.93333 11.667 9.86667 11.6587 9.8 11.6337L0 8.36699V6.45866C0 5.19199 1.025 4.16699 2.29167 4.16699H17.7083C18.975 4.16699 20 5.19199 20 6.45866Z" fill="#959595"/>
</g>
<defs>
<clipPath id="clip0_1127_3072">
<rect width="20" height="20" fill="white"/>
</clipPath>
</defs>
</svg>
