<svg width="20" height="20" viewBox="0 0 20 20" fill="none" xmlns="http://www.w3.org/2000/svg">
<g id="fi_11163885" clip-path="url(#clip0_1127_3059)">
<path id="Vector" d="M20 3.80459V16.6781C20 17.1222 19.6395 17.4826 19.1954 17.4826C18.7513 17.4826 18.3908 17.1222 18.3908 16.6781V3.80459C18.3908 3.36046 18.7513 3 19.1954 3C19.6395 3 20 3.36046 20 3.80459ZM0.804592 3C0.360457 3 0 3.36046 0 3.80459V16.6781C0 17.1222 0.360457 17.4826 0.804592 17.4826C1.24873 17.4826 1.60918 17.1222 1.60918 16.6781V3.80459C1.60918 3.36046 1.24873 3 0.804592 3ZM14.2906 3H5.70831C4.08089 3 2.75814 4.32275 2.75814 5.95017V11.3238L5.64072 8.96685C6.36593 8.47873 7.23811 8.50448 7.87212 8.98187L9.83747 10.4559L12.0399 8.98831C12.7812 8.49268 13.7789 8.5903 14.4097 9.22432L17.2408 11.4096V5.95124C17.2408 4.32382 15.918 3 14.2906 3ZM12.9325 10.3261L11.2021 11.4793L11.555 11.7443C11.9101 12.0104 11.982 12.5146 11.7159 12.8707C11.4488 13.2258 10.9457 13.2988 10.5895 13.0306L6.90554 10.2681C6.81543 10.2006 6.69098 10.1973 6.59551 10.2596L2.75814 13.4018V14.5325C2.75814 16.1599 4.08089 17.4826 5.70831 17.4826H14.2906C15.918 17.4826 17.2408 16.1599 17.2408 14.5325V13.4393L13.3476 10.4269C13.1803 10.2681 13.0355 10.2553 12.9325 10.3261Z" fill="#959595"/>
</g>
<defs>
<clipPath id="clip0_1127_3059">
<rect width="20" height="20" fill="white"/>
</clipPath>
</defs>
</svg>
