<svg width="20" height="20" viewBox="0 0 20 20" fill="none" xmlns="http://www.w3.org/2000/svg">
<g clip-path="url(#clip0_883_8373)">
<path d="M0.36591 13.0852L4.52924 8.92186C5.01424 8.43686 5.80049 8.43686 6.28549 8.92186C6.77049 9.40728 6.77049 10.1935 6.28549 10.6785L5.02008 11.9439C13.5138 12.361 19.0367 6.66061 19.0876 0.817276C19.0892 0.606026 19.3859 0.563109 19.4517 0.757276C21.5026 6.83186 17.7726 14.4614 8.02383 15.841C7.07966 15.9639 6.12466 16.0573 5.16216 16.1248L6.28591 17.2485C6.77091 17.7335 6.77091 18.5202 6.28591 19.0048C5.80091 19.4898 5.01466 19.4902 4.52966 19.0048L0.366327 14.8414C-0.119091 14.3564 -0.119089 13.5702 0.36591 13.0852Z" fill="#FED760"/>
</g>
<defs>
<clipPath id="clip0_883_8373">
<rect width="20" height="20" fill="white" transform="matrix(-1 0 0 1 20 0)"/>
</clipPath>
</defs>
</svg>
