<svg width="24" height="24" viewBox="0 0 24 24" fill="none" xmlns="http://www.w3.org/2000/svg">
<g id="language 1" clip-path="url(#clip0_210_4352)">
<g id="Group">
<path id="Vector" d="M21.7803 5.07323C21.7799 5.06547 21.779 5.05773 21.7777 5.05007C21.7477 5.00722 21.7108 4.97034 21.68 4.92834C21.4564 4.62376 21.219 4.32964 20.9683 4.04693C20.9001 3.96981 20.8309 3.89349 20.7609 3.81799C20.5032 3.54204 20.2325 3.27853 19.9498 3.02836C19.8975 2.98204 19.8486 2.93406 19.7963 2.8886C19.099 2.2912 18.3355 1.7757 17.5208 1.35218C17.4882 1.33505 17.4539 1.32048 17.4205 1.3033C17.0576 1.1189 16.6856 0.953205 16.3058 0.806853C16.2201 0.776007 16.1421 0.746819 16.0606 0.721097C15.7226 0.599297 15.3793 0.492588 15.0318 0.401285C14.9289 0.373855 14.826 0.345572 14.7214 0.321558C14.3784 0.241831 14.0355 0.180943 13.6848 0.131208C13.5785 0.115785 13.4739 0.0951876 13.3667 0.0823267C12.4635 -0.0274422 11.5503 -0.0274422 10.647 0.0823267C10.5399 0.0951876 10.4353 0.115785 10.3289 0.131208C9.97826 0.180943 9.63188 0.241831 9.29232 0.321558C9.18773 0.345572 9.08484 0.373855 8.98195 0.401285C8.63423 0.491889 8.2909 0.598608 7.95309 0.721097C7.86733 0.750235 7.78931 0.779423 7.70788 0.806853C7.3281 0.953193 6.95607 1.11889 6.59326 1.3033C6.5598 1.32043 6.52554 1.335 6.49293 1.35218C5.67554 1.77521 4.90943 2.29073 4.20968 2.8886C4.15739 2.93401 4.1085 2.98204 4.05621 3.02836C3.77265 3.27767 3.50194 3.54122 3.24512 3.81799C3.17507 3.89349 3.1059 3.96981 3.03764 4.04693C2.78639 4.32909 2.54891 4.62322 2.32603 4.92829C2.29518 4.97029 2.2583 5.00717 2.22826 5.05002C2.22433 5.05751 2.22089 5.06524 2.21796 5.07318C-0.739321 9.21763 -0.739321 14.7824 2.21796 18.9268C2.22088 18.9348 2.22429 18.9425 2.22826 18.95C2.25825 18.9929 2.29513 19.0297 2.32603 19.0717C2.54921 19.3766 2.78668 19.6707 3.03764 19.9531C3.1059 20.0303 3.17507 20.1066 3.24512 20.1821C3.50307 20.4578 3.77372 20.7212 4.05621 20.9717C4.1085 21.018 4.15739 21.066 4.20968 21.1115C4.907 21.7089 5.67048 22.2244 6.48519 22.6479C6.5178 22.665 6.55206 22.6796 6.58552 22.6968C6.94834 22.8812 7.32037 23.0469 7.70014 23.1932C7.7859 23.2241 7.86391 23.2533 7.94535 23.279C8.2834 23.4008 8.62669 23.5075 8.97422 23.5988C9.0771 23.6262 9.17999 23.6545 9.28458 23.6785C9.62756 23.7582 9.97048 23.8191 10.3212 23.8689C10.4275 23.8843 10.5321 23.9049 10.6393 23.9177C11.5425 24.0275 12.4557 24.0275 13.359 23.9177C13.4661 23.9049 13.5707 23.8843 13.6771 23.8689C14.0277 23.8191 14.3741 23.7582 14.7137 23.6785C14.8183 23.6545 14.9211 23.6262 15.024 23.5988C15.3718 23.5083 15.7151 23.4016 16.0529 23.279C16.1386 23.2498 16.2167 23.2206 16.2981 23.1932C16.6779 23.0469 17.0499 22.8812 17.4127 22.6968C17.4462 22.6796 17.4804 22.6651 17.513 22.6479C18.3277 22.2244 19.0912 21.7089 19.7886 21.1115C19.8409 21.066 19.8897 21.018 19.942 20.9717C20.2259 20.7227 20.4966 20.4591 20.7531 20.1821C20.8232 20.1066 20.8923 20.0303 20.9606 19.9531C21.2116 19.6707 21.449 19.3766 21.6722 19.0717C21.7031 19.0297 21.7399 18.9929 21.77 18.95C21.7739 18.9425 21.7774 18.9348 21.7803 18.9268C24.7376 14.7825 24.7376 9.21768 21.7803 5.07323ZM20.802 6.69545C21.622 8.04589 22.1171 9.56831 22.2484 11.1427H17.1127C17.0498 10.1211 16.889 9.10791 16.6325 8.11702C18.0833 7.84532 19.4874 7.36657 20.802 6.69545ZM14.1847 1.94805C14.2327 1.9592 14.279 1.97463 14.327 1.98578C14.6339 2.05782 14.9383 2.14011 15.2358 2.24299C15.2813 2.25842 15.3259 2.27645 15.3705 2.29273C15.6651 2.39524 15.9554 2.50965 16.2407 2.6357C16.2905 2.65886 16.3393 2.68458 16.3891 2.70774C16.6611 2.83715 16.9276 2.97759 17.1882 3.12873L17.3596 3.23247C17.6066 3.38342 17.8469 3.54505 18.0798 3.71691C18.1399 3.76062 18.1998 3.80267 18.259 3.85065C18.4879 4.02227 18.7071 4.20632 18.9158 4.40195C18.9706 4.45169 19.0273 4.50057 19.0813 4.55201C19.3008 4.76035 19.5099 4.98069 19.7123 5.20877C19.738 5.23876 19.7654 5.26619 19.7912 5.29453C18.6303 5.84779 17.4004 6.24285 16.1344 6.46913C15.548 4.85691 14.7732 3.31956 13.8264 1.88897C13.9454 1.91037 14.0672 1.92238 14.1847 1.94805ZM8.60477 11.1427C8.67239 10.215 8.83033 9.29609 9.07635 8.39906C10.0478 8.51443 11.0252 8.57169 12.0035 8.57052C12.9827 8.57023 13.961 8.51153 14.9332 8.39474C15.1788 9.29323 15.3358 10.2136 15.4022 11.1427H8.60477ZM15.4022 12.8575C15.3345 13.7852 15.1766 14.7041 14.9306 15.6011C13.9592 15.4857 12.9817 15.4285 12.0034 15.4297C11.0243 15.4285 10.046 15.4858 9.07374 15.6011C8.82845 14.704 8.67136 13.7851 8.60472 12.8575H15.4022ZM12.0034 2.27047C12.9792 3.65339 13.7817 5.1507 14.393 6.72891C13.5993 6.8132 12.8016 6.85556 12.0034 6.85581C11.2061 6.85487 10.4093 6.81223 9.61645 6.72806C10.2285 5.15095 11.0301 3.65411 12.0034 2.27047ZM4.29554 5.20787C4.49704 4.97979 4.70709 4.75944 4.92657 4.55111C4.98058 4.49967 5.0372 4.45079 5.09206 4.40105C5.30347 4.20852 5.52257 4.0246 5.74881 3.84974C5.80799 3.80428 5.86798 3.76399 5.92801 3.71601C6.16121 3.54454 6.40149 3.38292 6.64822 3.23157L6.81968 3.12783C7.07972 2.97582 7.34633 2.83535 7.61876 2.70684C7.66849 2.68368 7.71737 2.65796 7.76711 2.6348C8.05151 2.50654 8.34194 2.39209 8.63737 2.29183C8.68193 2.27555 8.72313 2.25751 8.77196 2.24209C9.06947 2.14262 9.37215 2.06033 9.68081 1.98487C9.72883 1.97372 9.7751 1.9583 9.82398 1.948C9.94144 1.92228 10.0632 1.91027 10.1824 1.88882C9.23513 3.31964 8.46011 4.85729 7.87341 6.46983C6.60746 6.24356 5.37758 5.8485 4.21667 5.29523C4.24239 5.26529 4.26982 5.23786 4.29554 5.20787ZM3.20493 6.69545C4.51921 7.36653 5.92309 7.84528 7.37355 8.11702C7.11738 9.10794 6.95689 10.1212 6.89428 11.1427H1.75854C1.88986 9.56832 2.38499 8.04591 3.20493 6.69545ZM3.20493 17.3048C2.38495 15.9543 1.88981 14.4319 1.75854 12.8575H6.89428C6.95717 13.8791 7.11794 14.8923 7.3744 15.8832C5.92365 16.1549 4.51947 16.6336 3.20493 17.3048ZM9.82228 22.0521C9.77425 22.041 9.72798 22.0255 9.67995 22.0144C9.373 21.9424 9.06861 21.8601 8.7711 21.7572C8.72564 21.7418 8.68108 21.7237 8.63647 21.7074C8.34186 21.6049 8.05153 21.4905 7.7662 21.3645C7.71647 21.3413 7.66759 21.3156 7.61785 21.2924C7.34588 21.163 7.0793 21.0226 6.81877 20.8714L6.64731 20.7677C6.40032 20.6168 6.16003 20.4551 5.9271 20.2833C5.86707 20.2395 5.80709 20.1975 5.74791 20.1495C5.51907 19.9779 5.29983 19.7939 5.09115 19.5982C5.03629 19.5485 4.97967 19.4996 4.92567 19.4482C4.70618 19.2398 4.49699 19.0195 4.29463 18.7914C4.26891 18.7614 4.24148 18.734 4.21576 18.7056C5.37668 18.1524 6.60656 17.7573 7.87251 17.531C8.45897 19.1433 9.23368 20.6806 10.1806 22.1112C10.0615 22.0899 9.93973 22.0778 9.82228 22.0521ZM12.0034 21.7297C11.0277 20.3468 10.2252 18.8495 9.61389 17.2713C11.2018 17.1004 12.8034 17.1004 14.3912 17.2713L14.3904 17.2722C13.7784 18.8493 12.9768 20.3461 12.0034 21.7297ZM19.7114 18.7923C19.5099 19.0204 19.2998 19.2407 19.0804 19.4491C19.0264 19.5005 18.9697 19.5494 18.9149 19.5991C18.7038 19.792 18.4847 19.9759 18.2581 20.1504C18.199 20.1958 18.1392 20.2403 18.0789 20.2842C17.8457 20.4556 17.6054 20.6173 17.3587 20.7686L17.1873 20.8723C16.9271 21.0241 16.6605 21.1646 16.3882 21.2933C16.3384 21.3165 16.2896 21.3422 16.2398 21.3654C15.9554 21.4936 15.665 21.6081 15.3696 21.7083C15.325 21.7246 15.2838 21.7427 15.235 21.7581C14.9375 21.8576 14.6348 21.9398 14.3261 22.0153C14.2781 22.0264 14.2318 22.0419 14.1829 22.0522C14.0655 22.0779 13.9437 22.0899 13.8246 22.1114C14.7715 20.6808 15.5462 19.1434 16.1326 17.5312C17.3986 17.7575 18.6284 18.1525 19.7894 18.7058C19.7645 18.7349 19.7371 18.7623 19.7114 18.7923ZM20.802 17.3048C19.4877 16.6337 18.0838 16.1549 16.6334 15.8832C16.8896 14.8923 17.05 13.8791 17.1127 12.8575H22.2484C22.1171 14.4319 21.6219 15.9543 20.802 17.3048Z" fill="#00AD6C"/>
</g>
</g>
<defs>
<clipPath id="clip0_210_4352">
<rect width="24" height="24" fill="white"/>
</clipPath>
</defs>
</svg>
