<svg width="80" height="27" viewBox="0 0 80 27" fill="none" xmlns="http://www.w3.org/2000/svg">
<g clip-path="url(#clip0_234_5188)">
<path d="M0 15.5732H33.8447V27.0004H0V15.5732Z" fill="#82BC00"/>
<path d="M0 0H33.8447V11.4218H0V0Z" fill="#00A1DF"/>
<path d="M67.6844 24.6654L67.5366 24.6975C67.1768 24.7837 66.8088 24.8303 66.4391 24.8364C65.5579 24.8364 64.5131 24.3823 64.5131 22.2186C64.5131 21.1074 64.7031 19.6383 66.3388 19.6383C66.7496 19.6592 67.1558 19.7346 67.5472 19.8627L67.6738 19.9054L67.6844 24.6654ZM67.9588 13.89L67.6844 13.9381V17.9501L67.4522 17.8807H67.3836C66.8985 17.7229 66.3943 17.633 65.885 17.6136C62.5871 17.6136 61.8906 20.1405 61.8906 22.256C61.8906 25.1569 63.4736 26.8237 66.3019 26.8237C67.3031 26.8494 68.3017 26.7067 69.2568 26.4017C70.0695 26.1399 70.365 25.7606 70.365 24.9592V13.4947C69.5734 13.6496 68.7819 13.7778 67.9641 13.9114M77.4621 24.7402L77.3249 24.7776L76.7972 24.9112C76.4023 25.0275 75.9947 25.0939 75.5836 25.1088C74.8079 25.1088 74.3436 24.7188 74.3436 24.0404C74.3436 23.613 74.5335 22.8971 75.7999 22.8971H77.4357L77.4621 24.7402ZM76.3118 17.5441C75.1755 17.5774 74.0509 17.7864 72.9769 18.1638L72.1326 18.4256L72.4123 20.3488L73.2355 20.0764C74.1215 19.7889 75.0439 19.6324 75.9741 19.6116C76.3434 19.6116 77.4516 19.6116 77.4516 20.8243V21.3585H75.9108C73.1141 21.3585 71.8108 22.2614 71.8108 24.2006C71.8108 25.8621 73.0033 26.8451 75.019 26.8451C75.772 26.8296 76.5208 26.7275 77.251 26.5406H77.3302L77.5782 26.5833C78.3644 26.7275 79.1612 26.8664 79.9685 27.0321V20.6427C79.9685 18.5859 78.7443 17.5441 76.3329 17.5441M57.9647 24.7402L57.8275 24.7776L57.2998 24.9112C56.9068 25.028 56.5009 25.0944 56.0915 25.1088C55.3158 25.1088 54.8515 24.7188 54.8515 24.0404C54.8515 23.613 55.0414 22.8971 56.3078 22.8971H57.9436L57.9647 24.7402ZM56.8144 17.5441C55.671 17.5758 54.5392 17.7848 53.4584 18.1638L52.6141 18.4256L52.8991 20.3488L53.717 20.0764C54.6047 19.7884 55.5289 19.6318 56.4608 19.6116C56.8197 19.6116 57.9278 19.6116 57.9278 20.8243V21.3585H56.3923C53.5956 21.3585 52.287 22.2614 52.287 24.2006C52.287 25.8621 53.4848 26.8451 55.4952 26.8451C56.2499 26.8292 57.0005 26.727 57.7325 26.5406H57.8117L58.0597 26.5833C58.8459 26.7275 59.6427 26.8664 60.45 27.0321V20.6427C60.45 18.5805 59.2258 17.5441 56.8144 17.5441ZM47.3744 17.5441C46.434 17.5561 45.5065 17.7672 44.6516 18.1638L44.5513 18.2119L44.4669 18.1638C43.7323 17.7109 42.8763 17.5017 42.0185 17.5655C41.0423 17.5647 40.0714 17.7106 39.1375 17.9982C38.2826 18.2653 37.9502 18.6767 37.9502 19.4567V26.7115H40.6308V20.0123L40.7574 19.9695C41.1351 19.8323 41.5328 19.76 41.9341 19.7558C42.7098 19.7558 43.095 20.1672 43.095 20.9846V26.7115H45.7333V20.867C45.7369 20.6739 45.7047 20.4818 45.6383 20.3008L45.5539 20.1245L45.7333 20.0443C46.1434 19.8592 46.5877 19.7645 47.0367 19.7665C47.1758 19.7502 47.3167 19.7622 47.4513 19.8016C47.5858 19.841 47.7113 19.9071 47.8203 19.9961C47.9293 20.0852 48.0198 20.1952 48.0864 20.32C48.1529 20.4448 48.1943 20.5817 48.2081 20.7228C48.2186 20.8133 48.2186 20.9047 48.2081 20.9953V26.7115H50.8464V20.7121C50.8464 18.5752 49.7172 17.5655 47.3849 17.5655M75.5256 7.44717C74.9946 7.44842 74.4647 7.40013 73.9426 7.30293H73.7948V3.35497C73.797 3.17413 73.7721 2.99401 73.7209 2.82074L73.6365 2.65512L73.8054 2.57499C73.8492 2.56371 73.8916 2.54758 73.932 2.52691H73.9637L74.1378 2.46814H74.2169C74.6675 2.35605 75.1302 2.3022 75.5942 2.30787C77.2299 2.30787 77.4199 3.77701 77.4199 4.89355C77.4199 7.03047 76.3646 7.50594 75.4939 7.50594M75.5097 0H75.457C73.9214 0 72.3384 0.422042 71.7633 1.26078C71.4416 1.69869 71.2727 2.23236 71.2831 2.778V6.81144C71.2953 6.98327 71.2664 7.15556 71.1987 7.31361L71.1142 7.49525H66.2597V4.69054C66.2016 1.73091 64.4656 0.106846 61.9644 0.106846H59.5213L59.2364 2.05679H61.669C62.9459 2.05679 63.6161 3.16264 63.6161 4.85081V7.67155L63.4419 7.58607C63.2571 7.52218 63.0618 7.49498 62.8668 7.50594H58.6454C58.5663 8.04017 58.466 8.74001 58.3552 9.44519H71.2673C71.7 9.36506 72.2223 9.28492 72.6603 9.20479C73.5256 9.54049 74.4459 9.70726 75.3725 9.69628C78.1797 9.69628 79.9896 7.79976 79.9896 4.88821C79.9896 1.97665 78.2431 0.0641076 75.5097 0ZM52.8674 10.6258H52.9835C55.7854 10.6258 57.0888 9.69094 57.0888 7.37772C57.0888 5.71626 55.891 4.39137 53.8805 4.39137H51.295C51.1508 4.40927 51.0045 4.39815 50.8646 4.35866C50.7247 4.31916 50.5938 4.25206 50.4796 4.16122C50.3653 4.07037 50.2699 3.95758 50.1989 3.8293C50.1278 3.70102 50.0825 3.5598 50.0655 3.41373C50.0602 3.3426 50.0602 3.27117 50.0655 3.20004C50.0655 2.66581 50.2555 2.05144 51.5166 2.05144H57.1627C57.2787 1.30352 57.3473 0.844084 57.4529 0.106846H51.5852C48.8519 0.106846 47.4905 1.26078 47.4905 3.20538C47.4905 5.14998 48.6936 6.11159 50.6987 6.11159H53.2948C53.4547 6.10877 53.6135 6.13793 53.7621 6.19741C53.9108 6.25689 54.0464 6.34552 54.1611 6.4582C54.2758 6.57089 54.3674 6.7054 54.4307 6.85403C54.4939 7.00266 54.5275 7.16248 54.5296 7.3243V7.37772C54.5296 7.81045 54.3396 8.69727 53.0785 8.69727H52.6405H44.3719H42.8417C41.57 8.69727 40.673 7.96003 40.673 6.27186V5.08053C40.673 3.30689 41.3642 2.20637 42.8417 2.20637H45.3165C45.422 1.45311 45.4906 0.982984 45.5961 0.256431H42.2454C39.739 0.256431 38.0241 1.96063 37.9502 4.92026V6.24515C38.0135 9.20479 39.739 10.6152 42.2454 10.6152H44.6938H49.1737L52.8674 10.6258Z" fill="black"/>
</g>
<defs>
<clipPath id="clip0_234_5188">
<rect width="80" height="27" fill="white"/>
</clipPath>
</defs>
</svg>
