<svg width="62" height="48" viewBox="0 0 62 48" fill="none" xmlns="http://www.w3.org/2000/svg">
<g clip-path="url(#clip0_234_5179)">
<path d="M60.7784 47.3487V47.472H60.894C60.9157 47.4724 60.9371 47.467 60.956 47.4563C60.9635 47.451 60.9696 47.4439 60.9737 47.4357C60.9777 47.4274 60.9797 47.4183 60.9793 47.4091C60.9796 47.4001 60.9777 47.3912 60.9736 47.3831C60.9696 47.3751 60.9635 47.3682 60.956 47.3631C60.9373 47.352 60.9158 47.3465 60.894 47.3474H60.7784V47.3487ZM60.8952 47.2613C60.9448 47.2583 60.9939 47.2725 61.0341 47.3015C61.0503 47.3146 61.0631 47.3313 61.0715 47.3503C61.08 47.3693 61.0838 47.3899 61.0828 47.4107C61.0835 47.4285 61.0804 47.4463 61.0737 47.4628C61.067 47.4794 61.0567 47.4943 61.0437 47.5066C61.0127 47.5334 60.9738 47.5496 60.9328 47.5526L61.0878 47.7284H60.9684L60.8258 47.5538H60.7796V47.7284H60.6798V47.2617H60.8968L60.8952 47.2613ZM60.8642 47.8894C60.9166 47.8899 60.9685 47.8794 61.0165 47.8586C61.0627 47.8388 61.1048 47.8104 61.1405 47.775C61.1762 47.7396 61.2047 47.6977 61.2245 47.6516C61.2651 47.5538 61.2651 47.444 61.2245 47.3462C61.2044 47.3002 61.1759 47.2584 61.1405 47.2228C61.1048 47.1874 61.0627 47.159 61.0165 47.1392C60.9682 47.1195 60.9164 47.1096 60.8642 47.1102C60.8112 47.1097 60.7585 47.1196 60.7092 47.1392C60.6619 47.1586 60.6189 47.187 60.5825 47.2228C60.5276 47.2788 60.4905 47.3496 60.4758 47.4263C60.4611 47.5031 60.4694 47.5825 60.4997 47.6547C60.5186 47.701 60.5467 47.7429 60.5825 47.7781C60.6189 47.8138 60.662 47.8422 60.7092 47.8617C60.7582 47.8825 60.811 47.893 60.8642 47.8925M60.8642 46.9979C61.0005 46.9978 61.1313 47.051 61.2285 47.146C61.2753 47.1916 61.3126 47.246 61.3382 47.3061C61.3647 47.3678 61.3784 47.4341 61.3784 47.5012C61.3784 47.5683 61.3647 47.6346 61.3382 47.6963C61.312 47.756 61.2748 47.8103 61.2285 47.8564C61.1809 47.9018 61.1256 47.9384 61.0651 47.9644C61.0016 47.9912 60.9333 48.0049 60.8642 48.0045C60.7944 48.005 60.7252 47.9913 60.6609 47.9644C60.5997 47.939 60.5439 47.9023 60.4963 47.8564C60.45 47.8087 60.4132 47.7525 60.3881 47.6911C60.3616 47.6294 60.3479 47.563 60.3479 47.496C60.3479 47.4289 60.3616 47.3625 60.3881 47.3008C60.4137 47.2408 60.451 47.1864 60.4978 47.1407C60.5448 47.094 60.6008 47.0573 60.6624 47.0328C60.7268 47.0058 60.796 46.9922 60.8658 46.9927M13.397 45.1954C13.397 44.3055 13.9829 43.5744 14.9405 43.5744C15.8557 43.5744 16.4732 44.274 16.4732 45.1954C16.4732 46.1169 15.8557 46.8165 14.9405 46.8165C13.9829 46.8165 13.397 46.0854 13.397 45.1954ZM17.5163 45.1954V42.6628H16.4099V43.2798C16.059 42.8238 15.5267 42.5379 14.8029 42.5379C13.3769 42.5379 12.2578 43.6509 12.2578 45.1967C12.2578 46.7425 13.3763 47.8555 14.8029 47.8555C15.5264 47.8555 16.059 47.5692 16.4099 47.1136V47.7284H17.5151V45.1954H17.5163ZM54.8998 45.1954C54.8998 44.3055 55.4857 43.5744 56.4436 43.5744C57.3597 43.5744 57.9763 44.274 57.9763 45.1954C57.9763 46.1169 57.3597 46.8165 56.4436 46.8165C55.4861 46.8165 54.8998 46.0854 54.8998 45.1954ZM59.0204 45.1954V40.6299H57.913V43.2798C57.5621 42.8238 57.0299 42.5379 56.306 42.5379C54.88 42.5379 53.7609 43.6509 53.7609 45.1967C53.7609 46.7425 54.8794 47.8555 56.306 47.8555C57.0299 47.8555 57.5621 47.5692 57.913 47.1136V47.7284H59.0204V45.1954ZM31.2481 43.5222C31.9611 43.5222 32.419 43.9671 32.5358 44.7503H29.8959C30.014 44.0192 30.4601 43.5222 31.2484 43.5222M31.2704 42.5351C29.7793 42.5351 28.7362 43.6148 28.7362 45.1939C28.7362 46.8039 29.8212 47.8527 31.3445 47.8527C32.1108 47.8527 32.8127 47.6624 33.4302 47.1432L32.888 46.3273C32.4614 46.6666 31.9183 46.8569 31.4077 46.8569C30.6947 46.8569 30.0456 46.5284 29.8859 45.6168H33.6639C33.6748 45.4799 33.6859 45.3417 33.6859 45.1936C33.6748 43.6151 32.6939 42.5348 31.2698 42.5348M44.6277 45.1936C44.6277 44.3036 45.2136 43.5725 46.1712 43.5725C47.0863 43.5725 47.7038 44.2721 47.7038 45.1936C47.7038 46.115 47.0863 46.8147 46.1712 46.8147C45.2136 46.8147 44.6274 46.0836 44.6274 45.1936M48.7467 45.1936V42.6628H47.6409V43.2798C47.2887 42.8238 46.7577 42.5379 46.0338 42.5379C44.6078 42.5379 43.4887 43.6509 43.4887 45.1967C43.4887 46.7425 44.6072 47.8555 46.0338 47.8555C46.7577 47.8555 47.2887 47.5692 47.6409 47.1136V47.7284H48.747V45.1954L48.7467 45.1936ZM38.3796 45.1936C38.3796 46.7295 39.4541 47.8524 41.094 47.8524C41.8603 47.8524 42.3709 47.6827 42.923 47.2487L42.3917 46.3587C41.9763 46.6558 41.5401 46.8147 41.0587 46.8147C40.1755 46.8039 39.526 46.1684 39.526 45.1936C39.526 44.2188 40.1755 43.5836 41.0587 43.5725C41.5388 43.5725 41.975 43.7314 42.3917 44.0284L42.923 43.1385C42.37 42.7044 41.8594 42.5348 41.094 42.5348C39.4541 42.5348 38.3796 43.6573 38.3796 45.1936ZM52.6427 42.5348C52.0044 42.5348 51.5887 42.8318 51.3014 43.2767V42.6628H50.2049V47.7256H51.3125V44.8876C51.3125 44.0497 51.6743 43.5842 52.3975 43.5842C52.6344 43.5808 52.8695 43.6241 53.0894 43.7116L53.4304 42.6739C53.1855 42.578 52.8662 42.5357 52.6421 42.5357M22.9863 43.0654C22.454 42.7162 21.7205 42.5357 20.9114 42.5357C19.6225 42.5357 18.7926 43.1505 18.7926 44.1565C18.7926 44.982 19.4104 45.4913 20.5481 45.6501L21.0708 45.7242C21.6775 45.809 21.9639 45.9679 21.9639 46.2538C21.9639 46.6453 21.5609 46.8686 20.8042 46.8686C20.0379 46.8686 19.4848 46.6249 19.1119 46.339L18.592 47.1975C19.1987 47.6423 19.965 47.8546 20.7949 47.8546C22.2643 47.8546 23.1159 47.166 23.1159 46.202C23.1159 45.312 22.4456 44.8465 21.3383 44.6877L20.8169 44.6124C20.3379 44.5507 19.9542 44.4548 19.9542 44.1154C19.9542 43.7453 20.3159 43.5225 20.9229 43.5225C21.5724 43.5225 22.201 43.7662 22.5092 43.9566L22.9881 43.0666L22.9863 43.0654ZM37.2621 42.5366C36.6238 42.5366 36.2081 42.8337 35.922 43.2785V42.6628H34.8255V47.7256H35.9319V44.8876C35.9319 44.0497 36.2936 43.5842 37.0169 43.5842C37.2537 43.5808 37.4889 43.6241 37.7088 43.7116L38.0498 42.6739C37.8049 42.578 37.4856 42.5357 37.2615 42.5357M27.8207 42.6628H26.0116V41.1268H24.8931V42.6628H23.8611V43.6691H24.8931V45.9787C24.8931 47.1534 25.3513 47.853 26.6601 47.853C27.1403 47.853 27.6933 47.705 28.0442 47.4616L27.7246 46.5188C27.3945 46.7092 27.0327 46.8051 26.745 46.8051C26.192 46.8051 26.0116 46.4658 26.0116 45.9577V43.67H27.8207V42.6628ZM11.2794 47.7269V44.5495C11.2794 43.3529 10.5131 42.5477 9.27777 42.5369C8.62832 42.5261 7.95841 42.7273 7.48938 43.4377C7.13846 42.8763 6.58542 42.5369 5.80794 42.5369C5.26451 42.5369 4.73348 42.6958 4.31777 43.2887V42.6628H3.21045V47.7256H4.32645V44.9184C4.32645 44.0395 4.81625 43.5725 5.57265 43.5725C6.30735 43.5725 6.67904 44.0491 6.67904 44.9073V47.725H7.79752V44.9178C7.79752 44.0389 8.30809 43.5719 9.04248 43.5719C9.79795 43.5719 10.1585 44.0485 10.1585 44.9067V47.7244L11.2794 47.7269Z" fill="#231F20"/>
<path d="M61.4092 30.8859V30.1455H61.2155L60.9913 30.6536L60.7685 30.1455H60.5741V30.8859H60.7117V30.3281L60.9213 30.8094H61.0639L61.2734 30.3269V30.8859H61.4098H61.4092ZM60.1801 30.8859V30.2723H60.4281V30.1474H59.7944V30.2723H60.0424V30.8859H60.1788H60.1801Z" fill="#F79410"/>
<path d="M39.3878 34.0607H22.6211V4.07617H39.3881L39.3878 34.0607Z" fill="#FF5F00"/>
<path d="M23.684 19.0695C23.684 12.9872 26.5459 7.56897 31.0025 4.07724C27.6291 1.43029 23.4567 -0.00629575 19.1608 2.07408e-05C8.57832 2.07408e-05 0 8.5376 0 19.0695C0 29.6015 8.57832 38.139 19.1608 38.139C23.4568 38.1454 27.6293 36.7088 31.0028 34.0618C26.5465 30.5707 23.684 25.1522 23.684 19.0695Z" fill="#EB001B"/>
<path d="M62.0078 19.0695C62.0078 29.6015 53.4294 38.139 42.847 38.139C38.5505 38.1453 34.3775 36.7088 31.0034 34.0618C35.4612 30.5701 38.3231 25.1522 38.3231 19.0695C38.3231 12.9869 35.4612 7.56897 31.0034 4.07724C34.3774 1.43037 38.5503 -0.00618503 42.8467 2.00173e-05C53.4291 2.00173e-05 62.0074 8.5376 62.0074 19.0695" fill="#F79E1B"/>
</g>
<defs>
<clipPath id="clip0_234_5179">
<rect width="62" height="48" fill="white"/>
</clipPath>
</defs>
</svg>
