<svg width="24" height="24" viewBox="0 0 24 24" fill="none" xmlns="http://www.w3.org/2000/svg">
<g clip-path="url(#clip0_883_8419)">
<path d="M23.854 10.1457L13.8544 0.146011C13.7604 0.0523113 13.6331 -0.000233586 13.5004 7.80654e-07H0.500888C0.224758 -0.000467952 0.000516382 0.222977 7.75831e-07 0.499107C-0.00023359 0.632227 0.0526395 0.759957 0.146902 0.853985L23.146 23.8531C23.24 23.9468 23.3673 23.9994 23.5 23.9992C23.5655 23.9991 23.6305 23.9862 23.691 23.9611C23.878 23.8839 24 23.7015 24 23.4992V10.4997C24.0002 10.367 23.9477 10.2396 23.854 10.1457Z" fill="#009688"/>
<path d="M10.5011 7.99922C10.225 7.99927 10.0011 7.77549 10.001 7.49936C10.001 7.46576 10.0044 7.4322 10.0111 7.39924L10.6871 4.01837L8.85514 5.85332C8.65654 6.04517 8.34 6.03964 8.14815 5.84104C7.96103 5.64726 7.96103 5.3401 8.14815 5.14637L11.148 2.14648C11.3433 1.95121 11.6598 1.95116 11.8551 2.14639C11.9732 2.26446 12.0246 2.43368 11.992 2.59745L11.316 5.97833L13.149 4.14638C13.3408 3.94778 13.6573 3.94225 13.856 4.1341C14.0546 4.32595 14.0601 4.64244 13.8682 4.84109C13.8642 4.84526 13.8601 4.84934 13.856 4.85337L10.8561 7.85326C10.7619 7.94719 10.6341 7.99974 10.5011 7.99922Z" fill="#FAFAFA"/>
<path d="M13.5003 10.9992C13.3676 10.9995 13.2403 10.947 13.1463 10.8532L11.6464 9.35326C11.4512 9.15804 11.4512 8.84155 11.6464 8.64627L14.6463 5.64639C14.8415 5.4512 15.158 5.4512 15.3533 5.64639L16.8532 7.14633C17.0518 7.33818 17.0573 7.65467 16.8655 7.85332C16.6736 8.05192 16.3571 8.05741 16.1585 7.8656C16.1543 7.86157 16.1502 7.85749 16.1462 7.85332L15.0003 6.70638L12.7074 8.99928L13.8533 10.1452C14.0488 10.3402 14.0492 10.6568 13.8542 10.8523C13.7604 10.9463 13.6331 10.9992 13.5003 10.9992Z" fill="#FAFAFA"/>
<path d="M14.5001 8.99914C14.3674 8.99938 14.2401 8.94688 14.1461 8.85313L13.1462 7.85319C12.9544 7.65458 12.9599 7.33805 13.1585 7.1462C13.3523 6.95908 13.6594 6.95908 13.8531 7.1462L14.8531 8.14614C15.048 8.3417 15.0476 8.65828 14.852 8.85323C14.7586 8.94641 14.6321 8.99882 14.5001 8.99914Z" fill="#FAFAFA"/>
<path d="M17.5008 14.9996C17.2247 14.9994 17.001 14.7754 17.0012 14.4992C17.0012 14.4457 17.0098 14.3925 17.0268 14.3416L17.7108 12.2907L15.6598 12.9746C15.4678 13.0369 15.2572 12.9791 15.1238 12.8276C14.9916 12.6748 14.9644 12.4574 15.0548 12.2766L17.0548 8.27681C17.1782 8.02969 17.4786 7.92939 17.7258 8.0528C17.9729 8.17622 18.0732 8.47663 17.9498 8.72379L16.4898 11.6437L18.3447 11.0257C18.5246 10.9669 18.7222 11.0136 18.8567 11.1467C18.9908 11.2806 19.0377 11.4789 18.9777 11.6587L18.3597 13.5126L21.2796 12.0526C21.5267 11.9292 21.8271 12.0295 21.9506 12.2766C22.074 12.5238 21.9738 12.8242 21.7266 12.9476L17.7268 14.9476C17.6566 14.9824 17.5792 15.0002 17.5008 14.9996Z" fill="#FAFAFA"/>
</g>
<defs>
<clipPath id="clip0_883_8419">
<rect width="24" height="24" fill="white"/>
</clipPath>
</defs>
</svg>
