<svg width="340" height="411" viewBox="0 0 340 411" fill="none" xmlns="http://www.w3.org/2000/svg">
<path opacity="0.15" d="M-248.316 272.359L-246.595 270.638C-246.391 271.408 -246.175 272.205 -245.968 272.986L-248.316 272.359ZM-217.857 280.515L-217.9 280.378C-219.067 276.128 -220.207 271.866 -221.343 267.612C-222.337 263.91 -223.331 260.208 -224.345 256.513C-225.117 253.676 -224.287 252.099 -222.683 250.495L-222.627 250.439C-215.164 243.062 -207.647 235.546 -200.268 228.087C-200.191 228.003 -200.112 227.923 -200.028 227.84C-198.497 226.228 -196.892 225.398 -194.004 226.071C-191.865 226.568 -189.752 227.162 -187.64 227.752C-186.006 228.206 -184.375 228.669 -182.73 229.079C-180.742 229.579 -178.754 230.099 -176.773 230.633C-176.189 230.79 -175.606 230.946 -175.018 231.106C-174.387 231.276 -173.754 231.45 -173.124 231.62C-169.718 232.543 -166.305 233.473 -162.883 234.32C-161.74 234.604 -160.785 235.13 -160.045 235.871C-159.308 236.608 -158.779 237.559 -158.481 238.709L-156.561 246.175C-156.001 248.309 -155.454 250.451 -154.907 252.591C-153.464 258.246 -151.969 264.095 -150.293 269.77C-149.455 272.614 -150.32 274.153 -152.001 275.867C-154.903 278.736 -157.809 281.623 -160.711 284.524C-163.683 287.49 -166.649 290.469 -169.605 293.445L-172.639 292.63C-168.947 288.911 -165.237 285.188 -161.525 281.483C-158.99 278.954 -156.45 276.434 -153.918 273.929C-152.735 272.746 -152.437 272.141 -152.911 270.547C-154.601 264.82 -156.099 258.947 -157.552 253.263C-158.095 251.13 -158.646 248.993 -159.199 246.858L-161.12 239.401C-161.296 238.729 -161.573 238.199 -161.973 237.799C-162.374 237.399 -162.891 237.129 -163.544 236.969C-166.986 236.115 -170.416 235.182 -173.841 234.251C-173.96 234.217 -174.082 234.185 -174.205 234.155C-177.26 233.321 -180.326 232.491 -183.397 231.721C-185.062 231.305 -186.72 230.841 -188.374 230.38C-190.105 229.897 -191.836 229.407 -193.58 228.976C-193.931 228.894 -194.275 228.811 -194.621 228.73C-195.352 228.56 -195.885 228.527 -196.346 228.627C-196.96 228.761 -197.439 229.133 -198.09 229.757C-201.82 233.528 -205.586 237.32 -209.366 241.1C-213.145 244.879 -216.935 248.642 -220.708 252.375C-221.969 253.497 -222.159 254.167 -221.709 255.791C-220.7 259.491 -219.706 263.2 -218.709 266.906C-217.575 271.154 -216.435 275.411 -215.264 279.657C-215.111 280.211 -214.968 280.774 -214.821 281.328L-217.857 280.515ZM-192.431 268.057L-192.891 267.37L-193.158 266.475C-193.375 265.752 -193.595 265.025 -193.755 264.291C-194.205 262.18 -193.247 259.554 -191.663 257.97C-191.141 257.448 -190.549 257.036 -189.914 256.795C-187.083 255.711 -184.01 256.728 -182.449 258.288C-180.638 260.099 -180.006 263.242 -180.949 265.747C-181.824 268.096 -185.446 270.077 -187.984 269.6L-188.608 269.49C-189.709 269.311 -190.959 269.093 -192.114 268.347L-192.431 268.057ZM-184.378 260.217C-185.308 259.286 -187.273 258.703 -188.947 259.343C-190.218 259.834 -191.402 262.239 -191.086 263.717C-190.939 264.377 -190.743 265.035 -190.543 265.681L-190.393 266.199C-189.762 266.535 -189.012 266.659 -188.158 266.805L-187.488 266.922C-186.52 267.095 -184.855 266.357 -183.995 265.497L-183.507 264.796C-182.844 263.046 -183.464 261.131 -184.378 260.217ZM-141.654 300.927C-134.885 294.198 -128.093 287.486 -121.275 280.901L-121.73 279.716C-121.881 279.14 -122.037 278.562 -122.187 277.985C-126.976 259.808 -132.187 240.312 -138.538 216.812C-138.722 216.135 -138.792 215.525 -138.788 214.961L-151.753 211.483C-161.14 208.963 -170.535 206.472 -179.922 203.965L-177.693 201.736C-168.814 204.11 -159.922 206.465 -151.046 208.849L-138.095 212.326C-137.711 211.649 -137.21 211.075 -136.7 210.565L-136.686 210.55C-121.645 195.583 -106.682 180.54 -91.6234 165.601L-91.6014 165.579C-90.2029 164.181 -89.9296 163.094 -90.4658 161.122C-90.8329 159.775 -91.1966 158.444 -91.5567 157.13L-88.5044 157.947C-88.2843 158.76 -88.0613 159.578 -87.8339 160.404C-87.5935 161.291 -87.5209 162.086 -87.5383 162.85L-86.4536 163.153C-85.2625 163.49 -84.075 163.83 -82.8783 164.154L-71.5669 167.177C-55.7309 171.426 -39.897 175.67 -24.04 179.838C-23.4626 179.988 -22.8822 180.141 -22.3048 180.291L-21.1208 180.747C-19.9061 179.486 -18.6895 178.229 -17.4682 176.975L-14.4502 177.786C-16.0368 179.412 -17.6221 181.051 -19.1997 182.682C-18.9832 183.159 -18.8629 183.639 -18.8062 184.076C-18.53 186.495 -17.8424 188.782 -17.1159 191.211C-16.7798 192.316 -16.446 193.416 -16.1593 194.523C-15.4484 197.241 -14.7289 199.97 -14.0094 202.699C-11.124 213.575 -8.15653 224.489 -5.26975 235.116L-1.63143 248.528L7.32036 250.936C12.0501 252.209 16.7635 253.493 21.4826 254.777C34.2282 258.247 47.4061 261.839 60.4316 265.063C61.8225 265.406 62.8929 265.89 63.7634 266.474L63.7938 266.423L63.8068 266.41C66.3625 263.928 68.9185 261.425 71.4698 258.921C72.0563 258.347 72.644 257.773 73.2275 257.196C78.3255 252.185 83.4123 247.138 88.476 242.075C90.5309 240.02 92.5829 237.961 94.6312 235.899C99.6849 230.812 104.712 225.705 109.703 220.593C110.641 219.636 111.575 218.675 112.506 217.717C112.305 217.305 112.172 216.891 112.082 216.521C111.446 213.915 110.795 211.304 110.128 208.696C107.721 199.27 105.147 189.836 102.64 180.65C101.77 177.452 100.893 174.253 100.029 171.054C99.679 169.763 99.3289 168.473 98.9849 167.182C98.7284 166.225 98.4721 165.267 98.218 164.307C97.3785 161.171 96.5582 158.029 95.7514 154.92L94.9775 151.952L81.4527 148.287C80.8293 148.117 80.2042 147.948 79.5805 147.778C77.7673 147.283 75.9421 146.787 74.111 146.29C63.1638 143.316 51.9899 140.302 40.9497 137.414C39.8423 137.128 38.7406 136.795 37.6339 136.468C35.2057 135.741 32.9145 135.05 30.4999 134.77C30.059 134.717 29.5816 134.594 29.1043 134.378C24.3579 138.964 19.6178 143.591 14.8904 148.252C7.97428 155.068 1.09248 161.949 -5.71892 168.868L-6.53584 165.809C-3.42969 162.663 -0.314206 159.521 2.8146 156.392C5.81433 153.392 8.81874 150.408 11.8348 147.432C16.9318 142.401 22.0495 137.404 27.1699 132.457L26.713 131.273C26.5633 130.695 26.4076 130.117 26.2563 129.542C21.416 111.162 16.205 91.6656 9.90269 68.3711C9.71897 67.6944 9.65299 67.0866 9.65237 66.5202L-3.40642 63.0163C-12.7615 60.5047 -22.1253 58.0217 -31.4777 55.5207L-29.2496 53.2926C-20.4069 55.6562 -11.5471 58.0028 -2.69833 60.3804L10.3498 63.8817C10.7308 63.2072 11.2349 62.6298 11.7443 62.1203L11.7573 62.1073C26.7996 47.1385 41.7584 32.0995 56.8204 17.1576L56.8437 17.1343C58.2415 15.7365 58.5151 14.6491 57.9783 12.6778C54.2707 -0.877687 51.0265 -12.9088 48.0657 -24.0227L50.2908 -26.2479C53.3583 -14.727 56.7425 -2.20888 60.6102 11.9603C60.8503 12.8476 60.9236 13.6414 60.9068 14.4053L61.8741 14.6788C63.1016 15.0255 64.3324 15.3756 65.5665 15.709L76.3168 18.5864C92.3372 22.8775 108.361 27.172 124.405 31.3931C124.982 31.5431 125.559 31.6931 126.139 31.8465L127.32 32.3067C128.561 31.019 129.805 29.7347 131.056 28.4503C133.078 26.3687 135.106 24.287 137.141 22.212C141.818 17.4416 146.525 12.6812 151.256 7.95075C151.589 7.61713 151.92 7.28689 152.256 6.95663C154.311 4.90167 156.373 2.85339 158.438 0.80843C163.539 -4.23891 168.656 -9.25626 173.784 -14.2169C174.394 -14.8074 175.005 -15.3979 175.612 -15.985L175.158 -17.1724C175.008 -17.7494 174.851 -18.3265 174.701 -18.9035C169.91 -37.0787 164.702 -56.5781 158.347 -80.0733C158.164 -80.7505 158.097 -81.3575 158.1 -81.9212L145.516 -85.2988C136.006 -87.8561 126.48 -90.3835 116.964 -92.9208L119.192 -95.1492C128.205 -92.7419 137.221 -90.3513 146.226 -87.9307L158.791 -84.5598C159.178 -85.2403 159.675 -85.8107 160.186 -86.3211L160.202 -86.3378C172.806 -98.8811 185.366 -111.468 197.969 -124.011L198.779 -120.972C186.553 -108.786 174.363 -96.5764 162.13 -84.4034L162.12 -84.3934C160.876 -83.1491 160.586 -82.2384 160.982 -80.7874C167.157 -57.9459 172.259 -38.8802 176.933 -21.1353C177.123 -20.4182 177.31 -19.7043 177.497 -18.9905C177.597 -18.617 177.693 -18.24 177.793 -17.8665C177.93 -17.3428 178.113 -17.006 178.337 -16.7825C178.594 -16.5257 178.901 -16.4257 179.254 -16.3857C181.336 -16.1458 183.33 -15.6323 185.265 -15.0654C185.802 -14.9087 186.332 -14.752 186.859 -14.5919C187.93 -14.2685 189.004 -13.9484 190.081 -13.665C195.605 -12.218 201.155 -10.7443 206.695 -9.26055C213.476 -7.4434 220.238 -5.60626 226.905 -3.79579C228.079 -3.47566 229.253 -3.1556 230.421 -2.84219L231.241 0.206478L230.781 0.0797437L230.13 -0.0969683C222.612 -2.13752 214.95 -4.22142 207.262 -6.28528C201.302 -7.88239 195.328 -9.47275 189.39 -11.0265C189.354 -11.0365 189.314 -11.0431 189.277 -11.0532C188.206 -11.3366 187.142 -11.66 186.075 -11.9801C183.647 -12.707 181.359 -13.3939 178.944 -13.6738C178.503 -13.7271 178.026 -13.8505 177.549 -14.0672C176.936 -13.4734 176.325 -12.8829 175.711 -12.2891C175.651 -12.2291 175.591 -12.169 175.528 -12.1123C170.464 -7.20173 165.403 -2.24776 160.366 2.73621C158.301 4.78116 156.239 6.82944 154.184 8.8844C149.117 13.9451 144.073 19.0358 139.069 24.1398C137.034 26.2148 135.006 28.2964 132.984 30.3781C131.73 31.6657 130.489 32.9534 129.241 34.2411C129.461 34.7148 129.581 35.1951 129.635 35.6354C129.914 38.0503 130.601 40.3452 131.332 42.7701C131.662 43.8741 131.995 44.9748 132.282 46.0821C133.936 52.4063 135.633 58.7671 137.336 65.1079C137.77 66.7356 138.21 68.3633 138.65 69.9844C139.737 74.0137 140.824 78.0229 141.904 81.9989C142.328 83.5632 142.751 85.1209 143.175 86.6719L146.812 100.084L155.761 102.495C158.8 103.311 161.832 104.135 164.864 104.959C166.548 105.415 168.226 105.872 169.904 106.329C173.83 107.399 177.792 108.48 181.782 109.553C190.364 111.87 199.066 114.174 207.702 116.325C208.096 116.425 208.486 116.522 208.876 116.618C210.267 116.962 211.334 117.449 212.208 118.029L212.235 117.982L212.248 117.969C213.653 116.604 215.057 115.233 216.465 113.859C218.536 111.827 220.611 109.792 222.68 107.751C227.77 102.727 232.844 97.6726 237.898 92.5986C239.95 90.5403 241.998 88.4787 244.04 86.4104C246.742 83.6816 249.441 80.9494 252.13 78.2139L252.947 81.2659C250.625 83.6211 248.296 85.9829 245.964 88.3348C243.919 90.3998 241.875 92.4648 239.823 94.5231C234.769 99.5971 229.695 104.651 224.604 109.675C222.536 111.717 220.464 113.755 218.393 115.787C216.978 117.168 215.564 118.549 214.149 119.923L214.143 119.93C214.99 121.157 215.467 122.588 215.867 124.129C218.044 132.478 220.351 141.21 222.875 150.647C224.312 156.02 225.823 161.62 227.416 167.511C228.753 172.451 230.154 177.594 231.624 182.974C231.861 183.851 231.931 184.649 231.921 185.419L233.015 185.726C234.205 186.063 235.39 186.399 236.577 186.719L247.081 189.53C248.155 189.817 249.229 190.11 250.303 190.397C253.118 191.151 255.93 191.901 258.748 192.651C267.374 194.952 275.996 197.242 284.625 199.526L285.438 202.561C275.796 200.011 266.156 197.45 256.52 194.88C255.732 194.673 254.945 194.459 254.155 194.249C251.563 193.559 248.968 192.866 246.373 192.165L235.87 189.355C234.672 189.031 233.468 188.688 232.271 188.351L231.263 188.071C230.896 188.785 230.433 189.469 229.755 190.106C228.064 191.784 226.369 193.465 224.681 195.147C222.62 197.195 220.561 199.246 218.503 201.298C218.109 201.692 217.719 202.082 217.329 202.472C212.652 207.136 207.978 211.81 203.308 216.48C201.252 218.529 199.197 220.584 197.146 222.635C192.996 226.778 188.849 230.919 184.696 235.052C183.448 236.266 183.151 237.217 183.545 238.664C183.638 239.005 183.732 239.351 183.825 239.692C185.392 245.489 186.909 251.109 188.376 256.573C188.573 257.297 188.766 258.024 188.959 258.744C193.101 274.147 196.869 288.29 200.365 301.589C200.503 302.112 200.687 302.455 200.907 302.675C201.164 302.932 201.47 303.033 201.831 303.072C204.485 303.379 207.004 304.136 209.445 304.87C210.509 305.193 211.581 305.509 212.654 305.79C224.322 308.844 236.133 312.035 247.67 315.172C249.535 315.676 251.389 316.183 253.237 316.683L266.636 320.314L306.341 280.609L307.158 283.654L268.61 322.202L269.533 325.747C270.013 327.596 270.498 329.446 270.988 331.304C271.277 332.409 271.567 333.513 271.861 334.619C273.315 340.056 274.798 345.49 276.278 350.921C278.05 357.394 279.847 363.989 281.597 370.623C283.03 376.034 284.424 381.47 285.748 386.883C285.865 387.367 286.001 387.731 286.275 388.004C286.498 388.228 286.815 388.391 287.289 388.518C304.493 393.032 321.681 397.624 338.922 402.228L339.729 405.27C321.988 400.532 304.299 395.801 286.594 391.154L285.417 390.69C279.083 397.197 272.64 403.687 266.199 410.168L263.167 409.358C269.993 402.499 276.808 395.624 283.52 388.731C283.319 388.319 283.186 387.905 283.092 387.532C281.655 381.631 280.125 375.704 278.562 369.809C276.935 363.691 275.278 357.611 273.647 351.638C272.163 346.198 270.68 340.764 269.232 335.321C268.679 333.259 268.135 331.188 267.598 329.137C267.362 328.233 267.132 327.335 266.896 326.438L265.988 322.963L253.72 319.635L252.524 319.311C239.238 315.7 225.502 311.966 211.967 308.431C210.856 308.141 209.754 307.809 208.654 307.482C206.227 306.754 203.931 306.061 201.516 305.781C201.073 305.731 200.595 305.608 200.118 305.392C188.536 316.58 176.981 328.022 165.611 339.559C160.978 344.259 156.374 348.975 151.814 353.696C152.031 354.173 152.151 354.653 152.208 355.09C152.48 357.513 153.174 359.807 153.901 362.235C154.231 363.332 154.564 364.434 154.858 365.54C156.238 370.838 157.668 376.164 159.089 381.481L156.051 380.664C154.759 375.851 153.467 371.027 152.216 366.228C151.936 365.154 151.612 364.091 151.289 363.019C150.552 360.581 149.798 358.06 149.495 355.408C149.452 355.05 149.356 354.74 149.099 354.483C148.875 354.26 148.535 354.08 148.012 353.943C134.689 350.443 121.381 346.888 108.073 343.327C106.373 342.871 104.673 342.417 102.972 341.964C101.485 341.563 99.996 341.164 98.512 340.767L87.4255 337.799C86.2577 337.486 85.0936 337.156 83.9222 336.826L82.8024 336.512C82.4454 337.189 81.9984 337.863 81.3442 338.517L81.3102 338.551C75.4726 344.342 69.6579 350.157 63.84 355.968L60.7924 355.153C66.983 348.969 73.1785 342.78 79.3904 336.615L79.4205 336.585C80.8109 335.195 81.0809 334.104 80.5447 332.132C80.0936 330.482 79.6511 328.857 79.2144 327.253C78.1111 323.206 77.0575 319.317 76.0396 315.566C71.7384 299.682 68.1582 286.206 64.7803 273.261C64.3166 271.484 63.8704 270.209 62.9465 269.285C62.2395 268.578 61.2582 268.078 59.7745 267.708C46.7183 264.474 33.5274 260.882 20.7655 257.409C16.0494 256.128 11.3327 254.841 6.61259 253.571L-2.36992 251.154L-36.6067 285.391L-50.8487 299.633L-50.0048 302.871C-49.2106 305.912 -48.4111 308.982 -47.5946 312.047C-46.2405 317.11 -44.8592 322.166 -43.4868 327.224L-46.5321 326.407C-47.7721 321.857 -49.0121 317.307 -50.2291 312.754C-51.0463 309.683 -51.8499 306.604 -52.6464 303.558L-53.4672 300.397L-66.7589 296.792C-80.0972 293.168 -93.8959 289.416 -107.495 285.859C-108.598 285.568 -109.699 285.242 -110.803 284.911C-113.232 284.179 -115.528 283.492 -117.942 283.212C-118.386 283.162 -118.863 283.039 -119.339 282.821C-125.782 289.05 -132.194 295.396 -138.592 301.747L-141.654 300.927ZM-119.956 275.754C-119.67 276.848 -119.383 277.935 -119.095 279.022C-118.958 279.545 -118.769 279.883 -118.549 280.103C-118.272 280.38 -117.951 280.466 -117.631 280.5C-114.973 280.81 -112.451 281.57 -110.017 282.297C-108.949 282.617 -107.878 282.94 -106.805 283.221C-93.1891 286.782 -79.3858 290.535 -66.0418 294.161L-52.8192 297.748L-39.6487 284.577L-4.27433 249.203L-7.90528 235.837C-10.7517 225.336 -13.6828 214.553 -16.5369 203.799C-17.2937 200.934 -18.0506 198.069 -18.7975 195.214C-19.0815 194.137 -19.4046 193.066 -19.7277 191.995C-20.4576 189.563 -21.2122 187.049 -21.5225 184.391C-21.5614 184.036 -21.6581 183.726 -21.9149 183.469C-22.1384 183.246 -22.4793 183.067 -23.0023 182.929C-24.0926 182.639 -25.1814 182.353 -26.2711 182.069C-41.6147 178.028 -56.9447 173.921 -72.271 169.809L-83.585 166.788C-84.7932 166.456 -85.9943 166.122 -87.1947 165.782L-88.2147 165.495C-88.569 166.182 -89.0194 166.853 -89.6763 167.51L-89.7036 167.537C-104.758 182.485 -119.72 197.521 -134.759 212.486L-134.769 212.496C-136.014 213.74 -136.3 214.647 -135.907 216.102C-129.728 238.939 -124.631 258.009 -119.956 275.754ZM81.5485 325.445C82.0827 327.399 82.6235 329.387 83.18 331.418C83.4204 332.305 83.4856 333.1 83.4729 333.867L84.67 334.204C85.8214 334.527 86.9785 334.857 88.1322 335.164L99.1097 338.101L99.2201 338.131C102.911 339.122 106.608 340.109 110.301 341.098C123.095 344.526 135.894 347.937 148.706 351.301L149.89 351.758C154.086 347.415 158.319 343.075 162.582 338.745C166.313 334.955 170.062 331.172 173.828 327.406C181.895 319.34 190.031 311.343 198.18 303.467L197.724 302.283C193.78 287.283 189.498 271.206 184.714 253.464C184.651 253.214 184.584 252.961 184.513 252.711C183.343 248.371 182.144 243.927 180.913 239.382C180.733 238.708 180.667 238.1 180.666 237.534L171.134 234.973L168.395 234.236C167.321 233.949 166.25 233.66 165.176 233.373C164.703 233.246 164.229 233.12 163.756 232.993C150.42 229.412 137.082 225.834 123.729 222.297C121.014 221.576 118.299 220.857 115.58 220.14L114.403 219.676C113.483 220.623 112.558 221.574 111.631 222.521C106.64 227.632 101.617 232.736 96.559 237.827C94.5107 239.889 92.4587 241.947 90.4037 244.002C85.3374 249.069 80.2533 254.113 75.1553 259.124C74.2012 260.065 73.2412 261.005 72.28 261.946C70.0917 264.094 67.9003 266.232 65.7085 268.364L65.6982 268.374C66.545 269.602 67.0221 271.033 67.4218 272.574C70.9031 285.922 74.6043 299.838 79.0848 316.382C79.882 319.314 80.7019 322.336 81.5485 325.445ZM28.4927 127.305C28.7791 128.4 29.0659 129.487 29.3516 130.575C29.4883 131.106 29.6824 131.445 29.8992 131.662C30.1727 131.935 30.4932 132.022 30.8094 132.059C33.4715 132.365 35.9862 133.126 38.4221 133.852C39.4918 134.176 40.5635 134.492 41.6398 134.776C52.9882 137.743 64.4683 140.844 75.6983 143.896C75.9828 143.972 76.26 144.048 76.5428 144.125C78.4271 144.636 80.2993 145.145 82.1702 145.655L92.623 148.49L95.6253 149.303L109.72 135.209L115.878 129.05L121.499 123.43L131.067 113.862L137.232 107.697L144.17 100.758L140.543 87.3894C139.709 84.3207 138.866 81.2287 138.025 78.12C137.575 76.4622 137.125 74.7978 136.675 73.1334C135.608 69.1842 134.538 65.2183 133.478 61.249C132.184 56.4192 130.9 51.5861 129.643 46.7729C129.36 45.6956 129.04 44.6283 128.716 43.5575C127.989 41.1226 127.233 38.6043 126.919 35.9492C126.883 35.5923 126.786 35.2821 126.529 35.0253C126.306 34.8018 125.966 34.6218 125.445 34.4817C124.354 34.1983 123.26 33.9115 122.173 33.6248C106.64 29.5338 91.1228 25.3794 75.6094 21.2216L64.8591 18.3442C63.6149 18.0074 62.3708 17.6507 61.13 17.3039L60.2294 17.0505C59.8758 17.7377 59.422 18.4115 58.7681 19.0654L58.7415 19.0921C43.6862 34.0406 28.724 49.0762 13.6857 64.0411L13.6754 64.0514C12.4311 65.2957 12.1405 66.2067 12.5379 67.657C18.6662 90.3117 23.7645 109.374 28.4927 127.305ZM113.89 212.458C114.178 213.598 114.453 214.736 114.738 215.873C114.854 216.357 114.99 216.714 115.264 216.988C115.487 217.211 115.808 217.378 116.278 217.501C117.486 217.821 118.687 218.141 119.89 218.458C133.71 222.108 147.513 225.809 161.314 229.511C162.619 229.86 163.916 230.211 165.22 230.561C166.414 230.881 167.609 231.201 168.805 231.525C168.902 231.548 169.003 231.574 169.103 231.601L178.168 234.035L181.331 234.889C181.717 234.188 182.231 233.608 182.775 233.117C186.925 228.987 191.071 224.848 195.218 220.707C197.269 218.656 199.325 216.607 201.38 214.552C205.681 210.252 209.98 205.952 214.287 201.659C215.051 200.895 215.811 200.134 216.575 199.37C218.634 197.319 220.692 195.267 222.753 193.219C224.445 191.534 226.14 189.853 227.834 188.171L227.864 188.141C229.255 186.75 229.526 185.66 228.989 183.688C227.058 176.62 225.251 169.963 223.541 163.635C221.954 157.758 220.453 152.161 219.02 146.791C216.962 139.069 215.049 131.811 213.225 124.817C212.761 123.039 212.315 121.765 211.391 120.841C210.684 120.134 209.703 119.634 208.219 119.263C207.882 119.18 207.548 119.1 207.215 119.013C200.03 117.226 192.805 115.333 185.644 113.415C180.107 111.935 174.61 110.435 169.19 108.964C169.043 108.924 168.896 108.884 168.75 108.844C164.183 107.6 159.624 106.357 155.054 105.13L146.075 102.709L139.159 109.625L132.994 115.79L122.263 126.521L117.806 130.978L111.648 137.136L97.5961 151.188L98.3899 154.236C98.3926 154.247 98.3966 154.256 98.3962 154.263C99.2071 157.355 100.016 160.481 100.848 163.605C101.515 166.087 102.181 168.569 102.854 171.051C102.928 171.324 103.001 171.597 103.074 171.871C103.808 174.56 104.538 177.245 105.272 179.933C108.176 190.57 111.171 201.536 113.89 212.458ZM-97.7651 259.073L-97.9618 258.876L-98.3861 258.28C-98.7586 257.258 -99.086 256.225 -99.3887 255.187C-99.8489 253.619 -100.246 252.049 -100.64 250.508C-100.893 249.507 -101.144 248.504 -101.411 247.51L-101.574 246.932C-103.474 239.874 -105.381 232.809 -107.402 225.785C-108.232 222.88 -107.671 220.704 -105.517 218.55L-105.349 218.39C-97.5435 210.871 -89.7967 202.99 -82.9579 196.045C-81.747 194.861 -80.026 193.54 -77.2649 194.427C-74.1859 195.411 -71.0472 196.274 -68.3821 196.984L-65.677 197.701C-59.3986 199.374 -53.1178 201.045 -46.8147 202.613C-46.691 202.642 -46.5616 202.673 -46.4345 202.706C-44.9832 203.062 -43.8391 203.659 -42.9787 204.52C-42.0014 205.497 -41.3875 206.817 -41.1011 208.519C-40.8608 209.94 -40.441 211.334 -39.9905 212.811C-39.9839 212.831 -39.9769 212.851 -39.9715 212.872C-39.6411 213.956 -39.3173 215.033 -39.061 216.131C-38.2071 219.8 -37.1905 223.506 -36.1999 227.084C-35.0803 231.154 -33.9226 235.366 -32.9918 239.579L-32.9088 239.909C-32.7257 240.673 -32.4393 241.828 -33.3904 242.912L-34.4109 244.086C-35.5912 245.46 -36.8159 246.878 -38.2073 248.129C-43.838 253.186 -49.1025 258.464 -53.869 263.818C-57.0122 267.341 -60.5884 270.57 -66.9351 268.205C-71.2219 266.609 -75.8008 265.465 -80.2307 264.358C-83.0926 263.638 -86.0612 262.898 -88.9437 262.038C-89.7699 261.79 -90.6242 261.637 -91.4814 261.481C-93.5227 261.107 -95.8336 260.683 -97.7651 259.073ZM-97.1813 252.979C-96.8079 254.353 -96.4004 255.72 -95.9239 257.051C-94.5635 258.146 -92.8283 258.458 -90.9904 258.795C-90.0371 258.969 -89.0828 259.149 -88.1629 259.423C-85.3367 260.265 -82.4012 260.999 -79.5663 261.712C-75.067 262.836 -70.408 264.001 -65.9818 265.651C-61.2218 267.422 -58.7996 265.26 -55.9109 262.011C-51.0767 256.576 -45.7294 251.222 -40.0313 246.104C-38.7703 244.97 -37.6598 243.673 -36.4755 242.308L-35.4373 241.11L-35.557 240.563L-35.654 240.166C-36.5675 236.023 -37.7222 231.848 -38.8355 227.805C-39.8254 224.199 -40.852 220.47 -41.7158 216.745C-41.9562 215.738 -42.2493 214.743 -42.5524 213.752C-42.5687 213.702 -42.5834 213.657 -42.5997 213.606C-43.0495 212.108 -43.5227 210.567 -43.79 208.973C-43.983 207.839 -44.3235 207.032 -44.9072 206.448C-45.4242 205.931 -46.1302 205.59 -47.0882 205.354C-47.7486 205.194 -48.4084 205.027 -49.0665 204.864C-54.8496 203.41 -60.6167 201.873 -66.3804 200.339L-69.0795 199.623C-71.7843 198.899 -74.96 198.033 -78.1017 197.025C-79.2591 196.655 -79.8389 196.901 -81.0111 197.96C-84.7141 201.717 -88.6732 205.742 -92.7728 209.842C-96.2692 213.338 -99.8554 216.878 -103.455 220.351C-105.073 221.842 -105.353 223.029 -104.776 225.027C-102.752 232.068 -100.845 239.146 -98.9384 246.218L-98.7814 246.795C-98.5077 247.808 -98.2546 248.823 -97.9942 249.836C-97.7308 250.874 -97.4641 251.928 -97.1813 252.979ZM-15.558 334.702C-15.7473 334.051 -15.9554 333.405 -16.1081 332.744C-17.008 328.868 -18.0819 324.946 -19.1185 321.159C-20.1821 317.294 -21.2761 313.305 -22.1996 309.319C-22.6394 307.404 -21.9858 306.457 -21.3553 305.539C-19.9371 303.481 -18.2321 301.983 -16.5788 300.543C-15.7208 299.785 -14.8401 299.044 -14.0562 298.22C-12.5483 296.679 -11.0168 295.161 -9.49222 293.636C-9.23535 293.379 -8.97281 293.124 -8.71493 292.866C-5.56642 289.731 -2.35054 286.488 0.6392 283.145C0.915748 282.835 1.23602 282.475 1.60598 282.105C3.18156 280.529 5.62311 278.775 9.11234 279.955C14.0285 281.629 19.1682 282.953 24.1321 284.239C27.7268 285.16 31.4455 286.124 35.0755 287.21C35.7656 287.421 36.4788 287.548 37.1969 287.677C38.8407 287.981 40.7019 288.328 42.3272 289.544L42.5733 289.785L42.9569 290.275C44.1571 292.844 44.8078 295.548 45.4303 298.168C45.681 299.231 45.9414 300.305 46.2342 301.366L48.0723 308.073L48.208 308.584C49.526 313.423 50.8461 318.266 52.2295 323.093C53.0894 326.069 52.4094 328.29 50.1833 330.489C44.2496 336.203 38.3579 342.114 32.8672 347.672L29.8379 346.865C35.6529 340.97 41.9338 334.643 48.2932 328.524C49.8971 327.046 50.1808 325.842 49.6116 323.85C48.2205 319.011 46.9006 314.154 45.5732 309.298L45.0163 307.253L43.603 302.089C43.2996 300.999 43.0389 299.899 42.7758 298.794C42.1757 296.286 41.6085 293.905 40.5951 291.656C39.5011 290.883 38.1369 290.626 36.7033 290.365C35.8888 290.213 35.0752 290.059 34.2873 289.826C30.7117 288.752 27.0236 287.798 23.451 286.881C18.4344 285.581 13.2536 284.245 8.23409 282.54C6.03868 281.794 4.62462 282.775 2.67071 284.962C-0.0127936 287.966 -2.85803 290.864 -5.67293 293.679C-6.30743 294.314 -6.93827 294.945 -7.56843 295.568C-9.08263 297.082 -10.6065 298.599 -12.1114 300.131C-12.9754 300.982 -13.8738 301.793 -14.7872 302.6C-16.3781 303.991 -17.8826 305.309 -19.0299 306.963C-19.6314 307.844 -19.7151 307.962 -19.5411 308.701C-18.6312 312.634 -17.5403 316.6 -16.49 320.439C-15.4471 324.252 -14.3631 328.197 -13.4462 332.13C-13.2025 333.187 -12.8891 334.228 -12.5696 335.269L-12.4959 335.522L-15.558 334.702ZM-157.12 181.163L-154.903 178.946C-154.386 179.082 -153.865 179.235 -153.341 179.371C-151.586 179.838 -149.829 180.303 -148.098 180.832C-146.916 181.198 -146.33 180.979 -145.166 179.902C-138.967 173.609 -130.767 165.322 -122.318 157.073C-121.063 155.872 -120.879 155.021 -121.383 153.257C-121.813 151.779 -122.203 150.295 -122.604 148.815L-119.565 149.625C-119.301 150.588 -119.038 151.546 -118.761 152.503C-117.984 155.228 -118.545 157.07 -120.413 159.025C-128.847 167.258 -137.036 175.534 -143.224 181.815C-144.486 183.024 -146.136 184.301 -148.906 183.441C-150.603 182.917 -152.321 182.46 -154.038 182.01C-155.072 181.737 -156.099 181.45 -157.12 181.163ZM-75.0735 237.075C-75.1935 236.955 -75.3016 236.816 -75.401 236.649L-75.6074 236.421C-76.2951 235.455 -76.5118 234.404 -76.6949 233.473L-76.8549 232.753C-76.8586 232.723 -76.8649 232.696 -76.8709 232.669C-77.3386 230.622 -76.3667 228.002 -74.7287 226.364C-74.2597 225.895 -73.7316 225.501 -73.1679 225.23C-72.441 224.884 -70.8633 224.827 -69.2725 225.07C-67.7515 225.304 -66.2209 225.821 -65.4171 226.625C-65.2603 226.781 -65.1296 226.951 -65.0332 227.128L-64.8825 227.404C-63.9354 229.185 -62.6418 231.62 -63.9693 234.109C-65.9307 237.771 -69.0299 238.983 -73.1699 237.746C-73.6429 237.719 -74.4731 237.675 -75.0735 237.075ZM-73.6587 229.457C-74.1428 230.341 -74.3934 231.352 -74.206 232.092L-74.0233 232.936C-73.8789 233.659 -73.7423 234.296 -73.4188 234.786L-73.2027 235.011L-72.3858 235.134C-70.2244 235.781 -68.6733 235.557 -67.4693 234.353C-67.0654 233.95 -66.7121 233.443 -66.3744 232.818C-65.7772 231.701 -66.3508 230.46 -67.2953 228.69L-67.4443 228.405C-67.9119 227.992 -70.8642 227.456 -71.8642 227.662C-71.9176 227.669 -71.9683 227.686 -72.0077 227.699C-72.6415 228.006 -73.2386 228.683 -73.6587 229.457ZM9.94481 321.986L9.52391 321.407C8.59956 318.989 7.37578 315.764 10.136 313.004C10.4526 312.687 10.8158 312.37 11.2455 312.068C13.668 310.359 17.7808 309.935 20.0454 312.032C20.0788 312.066 20.1182 312.1 20.1549 312.137C21.1488 313.13 21.7463 314.781 21.7998 316.695C21.8526 318.677 21.3127 320.404 20.3109 321.446C17.0423 324.888 15.497 324.659 10.4511 322.381L9.94481 321.986ZM18.227 314.071C18.2137 314.058 18.2004 314.044 18.1904 314.034C16.9693 312.907 14.3051 313.25 12.821 314.294C10.688 315.8 10.8553 317.174 11.9254 320.053C15.6517 321.723 16.1721 321.743 17.7763 320.138L18.3509 319.551C18.8139 319.067 19.1072 317.954 19.075 316.772C19.0411 315.625 18.7006 314.545 18.227 314.071ZM104.629 313.024L104.192 312.394C103.637 310.762 103.172 309.098 102.742 307.454C102.602 306.933 102.473 306.416 102.336 305.898C102.082 304.918 101.832 303.927 101.562 302.951C100.919 300.619 100.285 298.284 99.6582 295.949C99.1481 294.058 98.6416 292.17 98.1375 290.279C97.1342 286.54 96.1306 282.807 95.11 279.079C94.3404 276.253 95.1635 274.676 96.7624 273.077L96.8315 273.008C100.598 269.281 104.382 265.518 108.15 261.749C110.209 259.69 112.261 257.632 114.306 255.574C116.021 253.852 117.729 252.13 119.43 250.409C121.081 248.885 122.555 247.965 125.454 248.641C127.593 249.137 129.703 249.728 131.808 250.319C133.447 250.774 135.077 251.232 136.721 251.649C138.543 252.102 140.361 252.578 142.175 253.065C143.56 253.435 144.944 253.812 146.324 254.186C147.296 254.448 148.262 254.716 149.23 254.975C151.671 255.636 154.116 256.28 156.575 256.889C157.716 257.169 158.666 257.693 159.407 258.433C160.147 259.174 160.674 260.128 160.978 261.278L162.898 268.737C163.451 270.865 163.992 272.979 164.531 275.108C164.571 275.248 164.608 275.391 164.645 275.535C166.058 281.072 167.522 286.792 169.162 292.343C170.002 295.185 169.165 296.842 167.458 298.436C159.915 305.893 152.315 313.492 144.859 321.035L144.803 321.091C143.208 322.686 141.641 323.519 138.805 322.787C136.18 322.109 133.565 321.389 130.957 320.662L130.783 320.616L127.955 319.829C125.97 319.285 123.982 318.779 121.988 318.279C121.637 318.189 121.287 318.105 120.937 318.015C115.743 316.712 110.373 315.372 105.22 313.448L104.629 313.024ZM105.011 305.345C105.501 307.236 106.002 309.184 106.621 311.059C110.401 312.436 114.333 313.52 118.225 314.517C119.357 314.806 120.48 315.09 121.598 315.366C123.963 315.964 126.331 316.557 128.676 317.2L131.683 318.035C132.124 318.154 132.562 318.277 133.001 318.398C135.16 318.994 137.318 319.584 139.486 320.145C141.131 320.567 141.848 320.284 142.922 319.117C150.381 311.571 157.994 303.958 165.54 296.498C166.777 295.322 167.014 294.704 166.544 293.113C164.846 287.373 163.346 281.476 161.893 275.785C161.549 274.441 161.206 273.097 160.859 271.749C160.659 270.976 160.459 270.202 160.256 269.431L158.339 261.963C158.165 261.296 157.882 260.765 157.482 260.365C157.085 259.968 156.567 259.699 155.914 259.538C153.109 258.841 150.314 258.094 147.519 257.34C147.031 257.208 146.538 257.074 146.051 256.941C145.904 256.901 145.757 256.861 145.611 256.821C142.432 255.957 139.249 255.091 136.057 254.294C134.393 253.87 132.735 253.407 131.074 252.947C129 252.366 126.932 251.786 124.837 251.299C123.132 250.903 122.432 251.216 121.375 252.327C119.666 254.049 117.951 255.777 116.237 257.505C114.195 259.56 112.147 261.615 110.092 263.67C110.09 263.672 110.086 263.676 110.082 263.68C106.305 267.457 102.523 271.219 98.7536 274.948C97.6524 276.083 97.2988 276.73 97.7382 278.358C98.1616 279.889 98.575 281.423 98.9888 282.957C99.5856 285.162 100.182 287.367 100.773 289.571C101.69 292.99 102.6 296.41 103.534 299.825C103.753 300.626 103.971 301.422 104.191 302.223C104.464 303.217 104.721 304.221 104.977 305.219C104.988 305.261 105 305.302 105.011 305.345ZM19.1241 227.519L18.7205 226.982L18.5234 226.558L18.0306 225.317L15.1661 214.707C13.2827 207.726 11.3995 200.737 9.47159 193.767C9.2452 192.946 9.15493 192.162 9.19504 191.415C9.29564 189.707 10.0927 188.189 11.5842 186.825C14.9962 183.726 17.5352 181.3 19.8507 178.985C24.9774 173.825 29.0983 169.564 32.82 165.569L33.1442 165.231C35.4287 162.947 37.7674 162.416 41.0902 163.395C43.9754 164.246 46.8976 165.059 49.8226 165.849C52.1437 166.476 54.4686 167.087 56.7934 167.683C60.1893 168.557 63.5738 169.408 66.916 170.248L70.442 171.131C71.8792 171.495 73.021 172.094 73.8915 172.965C74.7586 173.832 75.3579 174.974 75.7217 176.411L76.6022 179.926C77.4457 183.272 78.2963 186.664 79.1728 190.063C80.5232 195.31 81.9372 200.586 83.461 205.766C84.5003 209.303 83.8862 211.738 81.2652 214.045C79.7937 215.37 78.3192 216.731 76.8544 218.123C75.2662 219.631 73.6922 221.171 72.141 222.729C71.6479 223.229 71.1476 223.729 70.6425 224.241C67.2608 227.656 63.7113 231.292 60.2585 235.072C58.0394 237.578 55.4876 238.289 52.5987 237.329C47.7429 235.707 42.686 234.401 37.7964 233.133C34.1304 232.184 30.3319 231.199 26.6292 230.093C25.9321 229.883 25.221 229.753 24.5081 229.619C22.8574 229.315 20.9948 228.97 19.3742 227.756L19.1241 227.519ZM12.8344 189.443C11.907 190.517 11.7 191.585 12.1008 193.038C14.0277 200.017 15.9108 207.005 17.7987 213.996L20.6621 224.6L20.9932 225.389L21.1086 225.641C22.2069 226.424 23.5612 226.67 25.0014 226.938C25.8126 227.087 26.6235 227.243 27.41 227.477C31.0657 228.571 34.8385 229.548 38.4806 230.495C43.4164 231.769 48.5204 233.089 53.4643 234.735C55.3178 235.357 56.6825 234.899 58.2444 233.237C61.7368 229.411 65.306 225.749 68.7147 222.313C69.2158 221.806 69.7162 221.305 70.2066 220.808C71.7648 219.257 73.3424 217.712 74.9333 216.201C76.4288 214.773 77.9363 213.372 79.4439 212.018L79.8175 211.664C81.2887 210.193 81.529 208.872 80.8418 206.538C78.8752 199.846 77.0974 193.012 75.394 186.284C74.9069 184.376 74.4338 182.475 73.9567 180.591L73.0735 177.078C72.8327 176.118 72.4902 175.413 71.9666 174.89C71.4396 174.363 70.7349 174.02 69.7749 173.779L66.2529 172.892C64.3721 172.419 62.4731 171.943 60.5722 171.462C56.0623 170.322 51.5133 169.148 46.9864 167.905C44.7549 167.295 42.5298 166.665 40.3187 166.014C37.8378 165.28 36.4962 165.601 34.8215 167.429C31.0755 171.442 26.9325 175.725 21.7851 180.906C19.4332 183.238 16.8679 185.71 13.4219 188.842C13.1984 189.046 13.0015 189.243 12.8344 189.443ZM187.057 388.973L186.107 385.447C184.243 378.553 182.386 371.658 180.482 364.777C179.728 362.042 180.383 359.867 182.598 357.838C185.994 354.756 188.532 352.311 190.864 349.999C191.869 348.988 192.822 348.021 193.739 347.091C197.65 343.114 200.845 339.791 203.834 336.583L204.152 336.251C206.44 333.963 208.778 333.426 212.101 334.406C220.64 336.92 229.435 339.131 237.937 341.261L241.452 342.142C242.893 342.509 244.031 343.105 244.902 343.975C245.772 344.846 246.368 345.984 246.735 347.425L247.605 350.891C248.55 354.649 249.507 358.468 250.499 362.291C251.757 367.137 253.067 371.997 254.471 376.777C255.518 380.312 254.917 382.735 252.276 385.056C249.196 387.835 246.12 390.798 243.155 393.743C240.596 396.315 237.921 399.064 235.239 401.879L232.25 401.079C235.285 397.857 238.325 394.731 241.22 391.822C244.249 388.833 247.332 385.838 250.454 383.028L250.828 382.675C252.303 381.199 252.543 379.886 251.856 377.551C250.292 372.245 248.849 366.843 247.471 361.484C246.615 358.151 245.782 354.829 244.961 351.554L244.087 348.092C243.847 347.132 243.501 346.424 242.977 345.9C242.453 345.377 241.749 345.034 240.785 344.79L237.273 343.907C228.745 341.769 219.921 339.553 211.329 337.025C208.852 336.294 207.524 336.621 205.829 338.443C203.097 341.368 200.205 344.387 196.765 347.9C195.523 349.169 194.209 350.503 192.802 351.917C190.431 354.295 187.857 356.741 184.432 359.853C183.031 361.161 182.64 362.332 183.115 364.052C185.018 370.941 186.874 377.836 188.739 384.736L190.102 389.79L187.057 388.973ZM212.679 376.291C212.649 376.261 212.619 376.231 212.586 376.198L212.529 376.135L212.152 375.652C211.468 374.207 209.485 370.034 213.017 366.501C213.317 366.201 213.647 365.911 214.031 365.628C215.563 364.463 219.141 364.46 221.196 365.227C221.871 365.479 222.337 365.793 222.668 366.123C223.085 366.54 223.271 366.981 223.347 367.344C223.434 367.765 223.618 368.188 223.791 368.622C224.338 369.969 225.165 372.003 223.6 373.975L223.036 374.719C221.549 376.701 219.287 379.703 215.057 377.329L214.561 377.185C214.053 377.079 213.303 376.915 212.679 376.291ZM220.676 367.908C220.132 367.364 216.494 367.181 215.673 367.801C213.511 369.45 213.153 371.281 214.518 374.28L214.608 374.37L215.134 374.523C215.494 374.597 215.945 374.693 216.395 374.95C217.802 375.738 218.597 375.61 219.558 374.649C219.949 374.258 220.362 373.739 220.856 373.078L221.462 372.285C221.986 371.62 221.823 371.037 221.262 369.643C221.025 369.059 220.799 368.479 220.679 367.911C220.676 367.908 220.676 367.908 220.676 367.908ZM41.6689 205.281C41.6389 205.251 41.6055 205.217 41.5722 205.184L41.5182 205.125L41.1379 204.638C40.4546 203.193 38.4707 199.02 42.0035 195.487C42.3035 195.187 42.6367 194.901 43.0137 194.611C44.5525 193.452 48.125 193.448 50.1793 194.216C50.8567 194.465 51.327 194.782 51.6572 195.112C52.0741 195.529 52.2602 195.97 52.3368 196.334C52.4235 196.754 52.6073 197.177 52.777 197.608C53.3242 198.955 54.1482 200.986 52.5899 202.965L52.0258 203.696C50.5242 205.684 48.2797 208.696 44.0464 206.319L43.5504 206.174C43.0394 206.065 42.2892 205.901 41.6689 205.281ZM49.6656 196.897C49.122 196.354 45.4855 196.168 44.6589 196.788C42.4969 198.436 42.1394 200.268 43.5037 203.266L43.5971 203.359L44.1205 203.51C44.487 203.59 44.9346 203.683 45.3846 203.94C46.7851 204.72 47.5833 204.596 48.5438 203.636C48.9307 203.249 49.3477 202.725 49.8445 202.061L50.448 201.271C50.9724 200.607 50.8124 200.019 50.2518 198.632C50.0148 198.049 49.785 197.465 49.6656 196.897ZM127.023 290.63L126.567 289.939L126.294 289.025C126.077 288.307 125.864 287.594 125.704 286.86C125.521 285.989 125.57 285.033 125.807 284.102C126.098 282.964 126.657 281.864 127.388 280.987C127.519 280.829 127.656 280.678 127.796 280.539C128.319 280.015 128.913 279.608 129.537 279.364C129.744 279.285 129.951 279.218 130.16 279.161C132.813 278.423 135.558 279.407 137.009 280.857C138.82 282.668 139.446 285.805 138.509 288.323C138.215 289.103 137.621 289.838 136.863 290.462C135.343 291.709 133.165 292.486 131.474 292.169L130.853 292.064C129.745 291.877 128.499 291.669 127.344 290.916L127.023 290.63ZM129.323 282.921C128.609 283.881 128.155 285.282 128.372 286.286C128.512 286.94 128.705 287.587 128.906 288.227L129.066 288.768C129.699 289.102 130.483 289.231 131.304 289.378L131.967 289.488C132.758 289.638 134.02 289.163 134.919 288.518C135.124 288.373 135.304 288.219 135.46 288.063L135.951 287.365C136.611 285.612 135.991 283.697 135.08 282.786C134.15 281.856 132.185 281.272 130.511 281.913C130.086 282.077 129.673 282.443 129.323 282.921ZM-14.0321 137.838L-14.8443 134.795C-11.7188 131.676 -8.59303 128.571 -5.47357 125.484C-4.2336 124.311 -3.99299 123.697 -4.46648 122.103C-6.15731 116.369 -7.66101 110.495 -9.10736 104.811C-9.65516 102.684 -10.2043 100.545 -10.7581 98.4172L-12.6716 90.9521C-12.8516 90.285 -13.1328 89.7589 -13.533 89.3587C-13.9299 88.9618 -14.4465 88.6847 -15.0996 88.524C-18.5415 87.6701 -21.9711 86.7372 -25.3963 85.8066C-26.3206 85.5569 -27.2439 85.3062 -28.1685 85.0568L-28.982 82.0148C-27.551 82.3982 -26.1134 82.7883 -24.6789 83.1748C-21.2763 84.1013 -17.8648 85.0323 -14.4385 85.8751C-13.2988 86.1629 -12.3409 86.6857 -11.6004 87.4262C-10.8634 88.1632 -10.3365 89.1172 -10.0364 90.2646L-8.11289 97.7265C-7.55975 99.8615 -7.01296 102.003 -6.46583 104.137C-5.02249 109.798 -3.5291 115.649 -1.85194 121.329C-1.01168 124.171 -1.86177 125.648 -3.55613 127.423C-7.04256 130.869 -10.5423 134.349 -14.0321 137.838ZM307.219 367.167L306.878 366.761C305.521 364.289 304.964 361.644 304.418 359.089C304.17 357.916 303.92 356.738 303.594 355.59C302.951 353.345 302.28 350.967 301.593 348.492C300.146 343.269 298.645 337.619 297.265 331.902C296.802 329.984 297.452 329.04 298.09 328.122C299.615 325.917 301.446 324.319 303.21 322.775C304.182 321.93 305.165 321.1 306.042 320.163C308.845 317.274 311.751 314.414 314.619 311.499L315.44 314.561C312.945 317.076 310.435 319.552 307.997 322.063L307.717 322.351C306.853 323.215 305.932 324.022 305.004 324.83C303.287 326.326 301.662 327.745 300.428 329.54C299.821 330.42 299.741 330.533 299.914 331.254C301.495 337.805 303.241 344.263 304.872 350.09C305.332 351.731 305.778 353.319 306.216 354.843C306.563 356.05 306.826 357.288 307.082 358.519C307.588 360.881 308.062 363.122 309.116 365.163C313.86 366.863 318.843 368.124 323.662 369.334C325.941 369.91 328.272 370.514 330.594 371.154L331.413 374.21C328.619 373.41 325.767 372.679 322.995 371.982C317.978 370.716 312.801 369.409 307.815 367.592L307.219 367.167ZM221.69 281.639L221.5 281.448L221.072 280.849C220.136 278.283 219.465 275.632 218.816 273.067C218.562 272.073 218.315 271.073 218.042 270.078L217.828 269.278C215.944 262.291 214.06 255.309 212.057 248.354C211.223 245.446 211.784 243.27 213.938 241.116L214.103 240.952C221.451 233.877 228.594 226.648 236.497 218.618C237.678 217.37 239.432 216.109 242.191 216.993C245.263 217.983 248.405 218.843 251.073 219.55L253.505 220.2C259.892 221.904 266.503 223.665 273.021 225.272C274.475 225.632 275.616 226.225 276.476 227.086C277.454 228.063 278.067 229.384 278.354 231.085C278.597 232.509 279.021 233.907 279.467 235.381C279.801 236.482 280.141 237.583 280.398 238.7C281.244 242.362 282.268 246.068 283.255 249.65C284.375 253.72 285.536 257.936 286.466 262.149L286.546 262.475C286.733 263.243 287.016 264.4 286.062 265.481L285.061 266.635C283.877 268.02 282.646 269.451 281.248 270.695C275.64 275.736 270.373 281.009 265.582 286.387C262.456 289.9 258.87 293.139 252.526 290.778C248.233 289.182 243.65 288.034 239.225 286.924C236.358 286.208 233.394 285.464 230.512 284.604C229.689 284.359 228.831 284.203 227.977 284.05C225.939 283.68 223.627 283.257 221.69 281.639ZM274.558 229.011C274.044 228.497 273.337 228.164 272.37 227.924C265.826 226.303 259.205 224.539 252.801 222.832L250.372 222.185C247.667 221.469 244.485 220.595 241.357 219.595C240.196 219.221 239.572 219.405 238.441 220.529C234.351 224.692 230.451 228.639 226.631 232.459C223.062 236.028 219.556 239.494 216 242.917C214.435 244.441 214.105 245.599 214.678 247.6C216.686 254.565 218.57 261.565 220.461 268.566L220.677 269.364C220.95 270.372 221.203 271.386 221.458 272.399C222.067 274.798 222.69 277.27 223.531 279.617C224.899 280.711 226.632 281.032 228.468 281.364C229.421 281.546 230.375 281.718 231.293 281.995C234.118 282.832 237.05 283.569 239.884 284.276C244.384 285.406 249.045 286.569 253.473 288.217C258.237 289.991 260.652 287.829 263.544 284.576C268.398 279.123 273.739 273.768 279.424 268.67C280.695 267.54 281.812 266.229 282.993 264.861L284.017 263.683L283.897 263.13L283.804 262.736C282.887 258.59 281.737 254.411 280.627 250.378C279.63 246.766 278.599 243.033 277.739 239.311C277.496 238.26 277.172 237.216 276.856 236.172C276.402 234.678 275.939 233.14 275.662 231.542C275.469 230.395 275.138 229.591 274.558 229.011ZM50.6797 110.628L50.4829 110.431L50.0583 109.835C49.6845 108.815 49.3548 107.784 49.0517 106.746C48.5952 105.181 48.1985 103.617 47.8077 102.08C47.554 101.073 47.3016 100.065 47.0315 99.0675L46.9208 98.6779C45.0343 91.6727 43.0828 84.4257 41.0432 77.3401C40.2087 74.4392 40.7699 72.2636 42.9253 70.1083L43.0954 69.9448C50.8973 62.4298 58.6474 54.5462 65.4829 47.604C66.6738 46.4398 68.4185 45.0953 71.1802 45.9823C74.2355 46.9626 77.3809 47.8262 80.0626 48.5397L82.641 49.2232C88.9618 50.907 95.2826 52.5908 101.63 54.1678C101.757 54.2012 101.884 54.2278 102.01 54.2611C103.461 54.6179 104.602 55.2115 105.462 56.072C106.44 57.0492 107.053 58.37 107.343 60.0745C107.583 61.5021 108.003 62.8963 108.454 64.374C108.787 65.468 109.124 66.5721 109.384 67.6861C110.237 71.3552 111.258 75.0576 112.244 78.6399C112.748 80.4778 113.261 82.3457 113.762 84.2269C114.205 85.9113 114.635 87.6024 115.035 89.2969C115.182 89.9106 115.322 90.5243 115.455 91.1381L115.532 91.4683C115.662 91.9853 115.832 92.6891 115.628 93.4263C115.535 93.7732 115.358 94.1234 115.055 94.467L114.031 95.6446C113.847 95.8548 113.667 96.0683 113.483 96.2785C112.473 97.4494 111.418 98.6236 110.237 99.6845C106.008 103.481 101.984 107.405 98.2216 111.393C96.9733 112.715 95.7557 114.046 94.5717 115.377C93.8305 116.205 93.0702 117.019 92.2532 117.742C89.5978 120.104 86.3588 121.569 81.5093 119.761C77.2229 118.164 72.6436 117.02 68.2174 115.917C65.3478 115.197 62.3866 114.457 59.501 113.593C58.7582 113.369 57.9897 113.224 57.2162 113.083C57.1295 113.07 57.0471 113.052 56.959 113.04C54.9217 112.663 52.6095 112.24 50.6797 110.628ZM52.3968 108.264C52.4368 108.377 52.4731 108.494 52.5208 108.607C52.7403 108.787 52.9774 108.944 53.2172 109.084C54.4543 109.808 55.9163 110.074 57.4543 110.35C58.4036 110.528 59.3616 110.704 60.2792 110.981C63.111 111.824 66.0453 112.559 68.8771 113.269C73.3807 114.395 78.0341 115.559 82.4629 117.207C85.9885 118.517 88.2331 117.673 90.3354 115.824C91.0693 115.177 91.7869 114.406 92.5339 113.566C93.7548 112.192 95.0092 110.824 96.2905 109.462C100.087 105.44 104.146 101.486 108.413 97.66C109.517 96.6625 110.525 95.5349 111.552 94.3473C111.686 94.1872 111.826 94.0271 111.966 93.867L113.007 92.6661L112.887 92.1191L112.79 91.7221C111.95 87.9129 110.913 84.0805 109.886 80.3514C109.793 80.0245 109.703 79.6943 109.613 79.364C108.619 75.755 107.592 72.0259 106.729 68.3001C106.482 67.2461 106.162 66.2055 105.845 65.1681C105.395 63.6705 104.925 62.1262 104.651 60.5318C104.458 59.3844 104.125 58.5772 103.544 57.9969C103.034 57.4866 102.324 57.1498 101.356 56.9097C100.696 56.7497 100.035 56.583 99.3783 56.4196C93.5511 54.9559 87.7407 53.4088 81.9403 51.8584L79.3652 51.1783C76.6468 50.4548 73.458 49.5812 70.3427 48.5808C69.1853 48.2107 68.4882 48.4409 67.4306 49.5185C63.731 53.2714 59.7679 57.3013 55.6716 61.3976C52.1779 64.8913 48.5894 68.4332 44.9892 71.9066C43.3883 73.3808 43.0872 74.5889 43.6644 76.5866C45.7087 83.6942 47.6685 90.9529 49.5567 97.9698L49.663 98.3504C49.9401 99.3674 50.1928 100.389 50.4526 101.41C50.7139 102.442 50.9767 103.487 51.2631 104.535C51.6029 105.789 51.9703 107.043 52.3968 108.264ZM136.257 195.914C135.277 194.934 134.664 193.612 134.376 191.912C134.257 191.19 134.087 190.48 133.893 189.76C133.703 189.057 133.487 188.346 133.263 187.616C132.929 186.521 132.596 185.414 132.336 184.3C131.956 182.666 131.546 181.02 131.12 179.379C130.536 177.135 129.925 174.904 129.326 172.715C128.262 168.849 127.169 164.86 126.245 160.874C125.805 158.959 126.459 158.012 127.092 157.092C127.723 156.175 128.413 155.364 129.131 154.62C129.505 154.232 129.888 153.862 130.275 153.502C130.839 152.978 131.412 152.478 131.979 151.985C132.873 151.198 133.761 150.41 134.602 149.569C134.895 149.269 135.192 148.966 135.489 148.661C136.754 147.377 138.032 146.106 139.306 144.831C142.571 141.573 145.961 138.197 149.083 134.701C149.36 134.39 149.68 134.03 150.051 133.66C150.181 133.53 150.321 133.396 150.468 133.263C152.046 131.812 154.361 130.43 157.553 131.514C159.23 132.084 160.935 132.615 162.649 133.115C165.955 134.085 169.3 134.949 172.576 135.795C176.168 136.719 179.887 137.682 183.52 138.766C184.21 138.976 184.924 139.103 185.644 139.236C187.285 139.543 189.15 139.886 190.774 141.104L191.018 141.34L191.398 141.827C192.605 144.402 193.252 147.111 193.875 149.729C194.129 150.796 194.386 151.867 194.679 152.921L196.649 160.143C196.683 160.269 196.719 160.399 196.753 160.526C197.593 163.601 198.433 166.684 199.29 169.756C199.744 171.39 200.207 173.021 200.674 174.649C201.487 177.484 200.9 179.645 198.935 181.73C198.832 181.834 198.732 181.94 198.625 182.047C194.468 186.05 190.325 190.154 186.328 194.171C185.435 195.064 184.548 195.958 183.67 196.842C183.126 197.393 182.586 197.94 182.045 198.487C180.517 200.035 179.017 201.555 177.555 203.044C177.107 203.498 176.668 203.945 176.231 204.388C175.02 205.599 173.301 206.891 170.536 206.007C167.511 205.03 164.48 204.199 161.654 203.45L158.952 202.729C156.114 201.973 153.276 201.215 150.434 200.468C147.815 199.785 145.2 199.105 142.578 198.445C141.62 198.202 140.664 197.965 139.706 197.729C138.259 197.368 137.118 196.775 136.257 195.914ZM134.145 180.19C134.438 181.358 134.721 182.522 134.995 183.689C135.239 184.739 135.554 185.784 135.872 186.821C136.326 188.315 136.796 189.859 137.065 191.457C137.259 192.605 137.596 193.408 138.176 193.989C138.69 194.502 139.394 194.839 140.364 195.076C143.165 195.77 145.964 196.486 148.759 197.214C152.395 198.16 156.025 199.126 159.653 200.094L162.358 200.811C165.22 201.577 168.289 202.418 171.374 203.408C172.534 203.775 173.272 203.525 174.29 202.474C174.734 202.023 175.177 201.573 175.624 201.113C177.602 199.108 179.646 197.03 181.742 194.914C182.26 194.397 182.773 193.877 183.29 193.353C183.913 192.73 184.534 192.103 185.161 191.476C188.934 187.696 192.824 183.846 196.734 180.083C196.831 179.993 196.924 179.899 197.014 179.809C198.362 178.462 198.592 177.271 198.055 175.406C197.142 172.224 196.258 169.039 195.385 165.85C195.325 165.643 195.268 165.433 195.211 165.229C194.814 163.772 194.418 162.314 194.014 160.857L192.047 153.645C191.747 152.558 191.48 151.457 191.22 150.363C190.62 147.842 190.05 145.463 189.036 143.215C187.942 142.441 186.585 142.185 185.147 141.922C184.333 141.768 183.519 141.615 182.732 141.381C179.156 140.308 175.461 139.354 171.892 138.434C170.137 137.98 168.359 137.524 166.578 137.044C163.266 136.16 159.937 135.206 156.679 134.096C154.987 133.526 153.77 133.963 152.402 135.197C151.992 135.568 151.568 136.011 151.114 136.518C147.935 140.071 144.529 143.47 141.233 146.766C139.959 148.041 138.685 149.308 137.417 150.589C137.13 150.883 136.84 151.18 136.549 151.477C135.656 152.357 134.717 153.209 133.773 154.04C132.89 154.803 132.039 155.547 131.259 156.334C131.189 156.404 131.118 156.474 131.055 156.544C130.458 157.161 129.907 157.812 129.417 158.523C128.813 159.4 128.73 159.517 128.906 160.254C129.81 164.194 130.904 168.155 131.954 171.994C132.688 174.676 133.445 177.428 134.145 180.19ZM-8.5989 32.6419L-6.37446 30.4174C-4.23007 31.0013 -1.91489 31.6611 0.360563 32.3941C1.52131 32.7675 2.14877 32.5736 3.276 31.4597C11.1923 23.41 18.3476 16.1679 25.7201 9.06895C27.3247 7.6111 27.6151 6.38694 27.0382 4.38896C26.4847 2.46773 25.9713 0.533096 25.4378 -1.39481L27.6529 -3.60991C28.3197 -1.19501 28.9699 1.22993 29.6634 3.63818C30.5203 6.61676 29.7963 8.82166 27.6112 11.0334C20.2621 18.109 13.1257 25.3388 5.21676 33.3745C3.99948 34.6385 2.28751 35.8769 -0.474267 34.9966C-3.25272 34.0996 -6.09161 33.3097 -8.5989 32.6419ZM244.377 259.645C244.257 259.525 244.151 259.384 244.054 259.222L243.851 258.991C243.163 258.024 242.95 256.977 242.76 256.046L242.6 255.326C242.094 253.264 243.065 250.592 244.725 248.932C245.199 248.457 245.727 248.07 246.29 247.8C247.714 247.116 252.404 247.549 254.042 249.187C254.202 249.347 254.332 249.517 254.425 249.697L254.565 249.971C255.519 251.752 256.82 254.193 255.485 256.682C253.516 260.332 250.428 261.559 246.285 260.319C245.808 260.289 244.981 260.249 244.377 259.645ZM252.017 250.978C251.517 250.545 248.268 249.965 247.453 250.266C246.09 250.922 244.906 253.267 245.249 254.665L245.428 255.499C245.581 256.233 245.709 256.866 246.035 257.354L246.252 257.577L247.073 257.703C249.234 258.351 250.782 258.123 251.986 256.919C252.387 256.518 252.75 256.008 253.08 255.392C253.681 254.27 253.104 253.026 252.16 251.255L252.017 250.978ZM73.3636 88.6311C73.2469 88.5144 73.1371 88.3706 73.0398 88.2079L72.8373 87.9767C72.1496 87.0101 71.9329 85.9594 71.7459 85.0325L71.7133 84.8851L71.5859 84.312C71.5822 84.2823 71.5759 84.2553 71.5695 84.2283C71.1058 82.1773 72.0764 79.5591 73.7144 77.9211C74.1888 77.4467 74.7128 77.0561 75.2766 76.7858C76.0064 76.4362 77.5812 76.3823 79.1722 76.6256C80.6966 76.8622 82.2276 77.3791 83.028 78.1796C83.1881 78.3397 83.3215 78.5065 83.4149 78.6866L83.555 78.9601C84.5054 80.7378 85.8027 83.176 84.4715 85.6678C82.6996 88.9806 79.9886 90.2908 76.4193 89.5911C76.046 89.5174 75.6611 89.422 75.2708 89.3054C74.7978 89.2781 73.964 89.2315 73.3636 88.6311ZM74.7754 81.0224C74.2953 81.9027 74.052 82.9131 74.2348 83.6509L74.4178 84.4885C74.5641 85.216 74.6981 85.8557 75.0243 86.3433L75.2418 86.5662L76.059 86.6895C78.2201 87.3367 79.7711 87.113 80.9754 85.9087C81.3767 85.5074 81.7364 84.9943 82.07 84.3739C82.6672 83.2564 82.0936 82.0156 81.1498 80.2445L81.0031 79.9643C80.5295 79.5508 77.5779 79.0137 76.5802 79.2177C76.5268 79.2243 76.4764 79.2413 76.4367 79.2544C75.7959 79.5616 75.1961 80.2415 74.7754 81.0224ZM158.385 173.546L157.968 172.962C157.651 172.139 157.301 171.221 157.088 170.26C156.674 168.4 156.761 166.378 158.579 164.561C158.897 164.243 159.261 163.926 159.688 163.625C162.112 161.914 166.225 161.49 168.487 163.591C168.523 163.621 168.56 163.658 168.597 163.695C169.591 164.689 170.191 166.336 170.244 168.251C170.297 170.232 169.756 171.961 168.756 173.001C166.267 175.55 164.793 176.083 162.031 175.203C161.147 174.92 160.122 174.49 158.896 173.936L158.385 173.546ZM166.665 165.62C166.655 165.61 166.645 165.6 166.635 165.59C165.414 164.462 162.746 164.81 161.261 165.854C159.137 167.351 159.3 168.729 160.367 171.61C164.096 173.278 164.616 173.298 166.217 171.698L166.791 171.11C167.258 170.623 167.552 169.509 167.518 168.329C167.482 167.171 167.142 166.097 166.665 165.62ZM253.074 164.579L252.637 163.949C251.904 161.801 251.337 159.593 250.78 157.455C250.527 156.474 250.273 155.487 250.003 154.509C249.109 151.261 248.233 148.008 247.362 144.756C247.099 143.786 246.839 142.812 246.579 141.838C245.575 138.099 244.575 134.363 243.555 130.634C243.318 129.763 243.231 129.009 243.271 128.342C243.365 126.835 244.099 125.74 245.207 124.633L245.277 124.563C249.38 120.506 253.493 116.406 257.596 112.297C258.557 111.329 259.521 110.365 260.482 109.398L261.302 112.446C260.708 113.04 260.118 113.63 259.527 114.228C259.197 114.558 258.867 114.895 258.533 115.228C254.754 119.008 250.971 122.771 247.198 126.504C246.1 127.635 245.743 128.285 246.187 129.91C246.353 130.524 246.523 131.141 246.687 131.758C247.537 134.876 248.377 138.005 249.214 141.13C249.884 143.629 250.551 146.124 251.228 148.622C251.695 150.343 252.158 152.061 252.632 153.782C252.908 154.773 253.165 155.777 253.422 156.774C253.922 158.708 254.435 160.696 255.066 162.614C259.715 164.315 264.605 165.562 269.358 166.752C269.582 166.809 269.802 166.862 270.025 166.919C272.133 167.452 274.235 167.986 276.329 168.553L277.143 171.595L276.396 171.388C275.308 171.088 274.218 170.804 273.127 170.521C271.87 170.198 270.619 169.881 269.365 169.568C264.175 168.267 258.811 166.927 253.664 165.003L253.074 164.579ZM167.569 79.074L167.165 78.537L166.972 78.1167L166.475 76.8726L163.564 66.1023C162.931 63.7541 162.297 61.4059 161.664 59.0577C160.423 54.4747 159.176 49.8984 157.916 45.3221C157.663 44.4082 157.576 43.5409 157.653 42.7237C157.806 41.1226 158.594 39.6882 160.028 38.3805C163.441 35.2813 165.976 32.826 168.295 30.5409C169.609 29.2198 170.853 27.9555 172.044 26.7446C174.23 24.5128 176.228 22.4478 178.106 20.4763C179.197 19.332 180.248 18.2144 181.265 17.1236L181.585 16.79C183.87 14.5048 186.209 13.9742 189.534 14.9512C195.598 16.7384 201.802 18.3721 207.933 19.9325C209.014 20.2059 210.091 20.4759 211.165 20.7494C212.573 21.1028 213.974 21.4562 215.364 21.8063L218.883 22.6898C220.324 23.0499 221.465 23.6502 222.336 24.5207C223.203 25.3879 223.803 26.5286 224.163 27.9695L225.047 31.4751C225.663 33.94 226.284 36.4216 226.92 38.92C228.481 45.0506 230.118 51.2513 231.905 57.3219C232.945 60.8576 232.335 63.2826 229.709 65.6011C228.582 66.6153 227.454 67.6495 226.333 68.7037C224.395 70.5218 222.47 72.3866 220.582 74.2881C220.422 74.4549 220.255 74.6217 220.088 74.7885C217.45 77.4406 214.697 80.2395 211.949 83.1418C210.864 84.286 209.78 85.4503 208.703 86.6278C207.332 88.1924 205.824 89.0531 204.183 89.2535C203.185 89.3703 202.141 89.247 201.044 88.8835C196.658 87.4197 192.108 86.2128 187.665 85.0592C187.188 84.9358 186.718 84.8124 186.244 84.6924C182.575 83.7388 178.776 82.7553 175.074 81.6482C174.377 81.4382 173.666 81.3082 172.946 81.1748C171.301 80.8715 169.437 80.5281 167.816 79.3141L167.569 79.074ZM165.533 62.9266C165.753 63.7471 165.976 64.571 166.196 65.3915L169.107 76.1552L169.437 76.9524L169.55 77.1991C170.644 77.9795 172.002 78.2296 173.443 78.4963C174.257 78.6429 175.067 78.7996 175.851 79.0364C178.493 79.8233 181.188 80.5501 183.853 81.247C184.887 81.5204 185.914 81.7871 186.932 82.0505C191.525 83.2408 196.264 84.4644 200.891 85.9616C201.231 86.0683 201.571 86.1817 201.908 86.2917C203.763 86.9119 205.127 86.4548 206.688 84.7935C208.533 82.7686 210.401 80.7937 212.256 78.8721C214.254 76.8005 216.236 74.7923 218.161 72.8607C218.327 72.6939 218.488 72.5271 218.654 72.3603C220.549 70.4722 222.471 68.604 224.409 66.7792C225.563 65.6917 226.721 64.6208 227.885 63.5766L228.259 63.223C229.736 61.7452 229.973 60.4276 229.287 58.0927C227.056 50.5045 225.065 42.7428 223.155 35.1545C222.902 34.1472 222.651 33.1432 222.398 32.1425L221.518 28.6336C221.278 27.6729 220.934 26.9691 220.411 26.4455C219.884 25.9185 219.18 25.5751 218.219 25.335L214.7 24.4515C213.703 24.2014 212.702 23.948 211.698 23.698C211.618 23.678 211.535 23.6546 211.455 23.6346C203.943 21.7475 196.262 19.777 188.764 17.5697C186.279 16.8395 184.944 17.1532 183.263 18.988C182.222 20.1022 181.148 21.2364 180.037 22.4074C178.159 24.3789 176.161 26.4439 173.972 28.6723C172.781 29.8833 171.54 31.1443 170.229 32.462C167.891 34.7805 165.312 37.2658 161.866 40.3983C160.455 41.6893 160.064 42.8735 160.545 44.5946C160.675 45.0649 160.801 45.532 160.931 46.0022C162.485 51.6392 164.006 57.2829 165.533 62.9266ZM82.0602 -6.43457L81.6267 -7.06166C80.8897 -9.21303 80.3196 -11.4244 79.7695 -13.5558C79.5127 -14.5398 79.2593 -15.5271 78.9859 -16.5078C77.8223 -20.7539 76.6787 -25.0133 75.5417 -29.2661C74.5515 -32.9718 73.5578 -36.6742 72.5442 -40.3766C71.7673 -43.2084 72.6014 -44.7896 74.206 -46.3942L74.2628 -46.451C81.8021 -53.9036 89.4048 -61.5063 96.8574 -69.0456C98.4586 -70.7002 99.9931 -71.4876 102.882 -70.8141C105.02 -70.3174 107.138 -69.7272 109.249 -69.137C110.88 -68.6802 112.515 -68.2201 114.156 -67.8067C117.361 -67.0098 120.55 -66.1363 123.742 -65.2727C127.154 -64.3425 130.57 -63.4155 134.005 -62.5686C135.146 -62.2819 136.103 -61.7584 136.844 -61.0179C137.581 -60.2809 138.108 -59.3269 138.408 -58.1795L140.332 -50.718C140.885 -48.5766 141.432 -46.4352 141.982 -44.2971C143.422 -38.6401 144.919 -32.793 146.593 -27.116C147.43 -24.2708 146.556 -22.7697 144.885 -21.0183C137.349 -13.5624 129.746 -5.95964 122.29 1.57632C120.689 3.21762 119.108 4.07172 116.236 3.3282C113.581 2.64803 110.939 1.91453 108.294 1.18433L105.382 0.374089C103.047 -0.266092 100.699 -0.852911 98.3507 -1.44638C93.1607 -2.74669 87.7972 -4.08698 82.6539 -6.00771L82.0602 -6.43457ZM134.912 -59.0864C134.512 -59.4866 133.998 -59.7601 133.348 -59.9235C129.896 -60.7737 126.457 -61.7106 123.024 -62.6408C119.852 -63.4977 116.68 -64.3679 113.488 -65.1648C111.827 -65.5849 110.169 -66.0484 108.515 -66.5085C106.44 -67.0887 104.362 -67.6721 102.268 -68.1589C100.563 -68.5556 99.8593 -68.2387 98.7985 -67.1312C95.0655 -63.3582 91.2992 -59.5651 87.5195 -55.7855C83.7398 -52.0058 79.9535 -48.2461 76.1805 -44.5132L76.1238 -44.4565C75.023 -43.3556 74.736 -42.6951 75.1794 -41.0974C76.1864 -37.395 77.1833 -33.6826 78.1769 -29.9735C79.3139 -25.7274 80.4541 -21.4713 81.6211 -17.2286C81.8979 -16.2379 82.1513 -15.2373 82.4114 -14.2366C82.9048 -12.3087 83.4216 -10.3174 84.0518 -8.39951C88.9216 -6.61883 94.0482 -5.33519 99.0148 -4.09158C101.38 -3.49478 103.751 -2.90463 106.109 -2.25446L109.025 -1.44758C111.653 -0.72072 114.281 0.0128131 116.92 0.689647C118.564 1.11975 119.215 0.78281 120.352 -0.341417C127.815 -7.88407 135.424 -15.4935 142.97 -22.9594C144.215 -24.137 144.448 -24.7441 143.978 -26.3418C142.287 -32.0688 140.787 -37.9393 139.333 -43.623C138.793 -45.7578 138.243 -47.8959 137.69 -50.0306L135.766 -57.4921C135.593 -58.1592 135.312 -58.6862 134.912 -59.0864ZM190.12 56.8497C190.083 56.813 190.053 56.7763 190.017 56.7396L189.963 56.6796L189.583 56.1926C188.896 54.7517 186.915 50.5757 190.448 47.0429C190.745 46.746 191.082 46.4558 191.459 46.1656L191.462 46.1623C193 45.0113 196.572 45.0009 198.624 45.7712C199.301 46.0213 199.771 46.3381 200.101 46.6682C200.518 47.0851 200.705 47.5255 200.782 47.889C200.872 48.3126 201.048 48.7363 201.225 49.1665C201.772 50.514 202.589 52.5453 201.034 54.5202L200.507 55.2074L200.467 55.2541C198.969 57.239 196.724 60.2513 192.492 57.8734L191.991 57.7334C191.484 57.62 190.734 57.4634 190.12 56.8497ZM193.467 48.1667C193.316 48.2168 193.193 48.2735 193.103 48.3435C190.908 49.9982 190.581 51.8262 191.948 54.8147L192.045 54.9115L192.565 55.0648C192.932 55.1449 193.379 55.2382 193.829 55.495C195.227 56.2787 196.027 56.1518 196.985 55.1944C197.375 54.8041 197.792 54.2803 198.289 53.6165L198.559 53.2596L198.893 52.8259C199.417 52.1621 199.253 51.5784 198.697 50.1875C198.457 49.6071 198.23 49.0201 198.11 48.453C197.626 47.9694 194.687 47.773 193.467 48.1667ZM104.455 -28.829L103.994 -29.5161L103.731 -30.4134C103.508 -31.1372 103.294 -31.8643 103.131 -32.5948C102.684 -34.7095 103.642 -37.3347 105.226 -38.9193C105.747 -39.4398 106.337 -39.85 106.971 -40.0903C109.81 -41.1813 112.878 -40.161 114.439 -38.6001C116.25 -36.7891 116.884 -33.647 115.936 -31.1386C115.062 -28.7902 111.443 -26.8117 108.901 -27.2851L108.277 -27.3952C107.173 -27.5785 105.926 -27.7918 104.775 -28.5422L104.455 -28.829ZM112.511 -36.6719C111.581 -37.6025 109.613 -38.1826 107.938 -37.542C106.664 -37.0549 105.483 -34.6464 105.799 -33.1688C105.943 -32.5117 106.14 -31.8613 106.34 -31.2142L106.493 -30.6872C107.123 -30.3504 107.874 -30.227 108.724 -30.0837L109.398 -29.9637C110.365 -29.7903 112.03 -30.5277 112.894 -31.3917L113.381 -32.0922C114.042 -33.8402 113.425 -35.7581 112.511 -36.6719ZM199.12 -37.8125L198.927 -38.0126L198.503 -38.6096C198.13 -39.6303 197.8 -40.6609 197.496 -41.6983C197.036 -43.266 196.639 -44.837 196.249 -46.3813C195.992 -47.3786 195.742 -48.3826 195.476 -49.3766L195.316 -49.9504C193.442 -56.8949 191.508 -64.0795 189.487 -71.1041C188.654 -74.006 189.214 -76.1808 191.369 -78.3358L191.536 -78.496C196.55 -83.3299 201.514 -88.2871 206.251 -93.0709L207.071 -90.0223C206.084 -89.0281 205.12 -88.0507 204.112 -87.0432C200.623 -83.5538 197.03 -80.0076 193.431 -76.5349C191.819 -75.0503 191.532 -73.8562 192.109 -71.8582C194.133 -64.8103 196.074 -57.6189 197.947 -50.6611L198.104 -50.0907C198.381 -49.0801 198.634 -48.0661 198.891 -47.0487C199.154 -46.0114 199.424 -44.9607 199.708 -43.91C199.781 -43.6365 199.858 -43.3663 199.935 -43.0962C200.241 -41.9954 200.581 -40.9014 200.962 -39.8341C202.026 -38.9836 203.32 -38.6035 204.714 -38.3168C205.101 -38.2368 205.495 -38.1634 205.895 -38.0901C206.849 -37.9168 207.806 -37.74 208.723 -37.4633C211.552 -36.623 214.484 -35.8862 217.326 -35.1794C218.897 -34.7827 220.494 -34.3725 222.089 -33.9525L222.902 -30.9105C220.818 -31.4873 218.723 -32.0141 216.658 -32.5309C213.903 -33.2244 211.058 -33.9345 208.276 -34.7547C208.166 -34.7847 208.053 -34.8181 207.942 -34.8481C207.119 -35.0982 206.265 -35.2515 205.407 -35.4082C203.68 -35.7216 201.758 -36.0749 200.037 -37.1488C199.727 -37.3455 199.42 -37.5656 199.12 -37.8125ZM139.765 -115.722L141.987 -117.944C142.501 -117.804 143.024 -117.654 143.548 -117.517C145.302 -117.05 147.057 -116.584 148.788 -116.053C149.969 -115.687 150.559 -115.91 151.72 -116.984C157.918 -123.276 166.122 -131.566 174.568 -139.812C175.816 -141.007 176.006 -141.864 175.503 -143.629C174.916 -145.677 174.382 -147.731 173.826 -149.783L176.044 -152.001C176.731 -149.459 177.398 -146.911 178.125 -144.383C178.905 -141.661 178.354 -139.83 176.473 -137.861C168.039 -129.628 159.853 -121.355 153.661 -115.07C152.397 -113.859 150.752 -112.588 147.98 -113.445C146.286 -113.972 144.565 -114.425 142.851 -114.879C141.813 -115.149 140.789 -115.439 139.765 -115.722Z" fill="url(#paint0_linear_678_7866)"/>
<defs>
<linearGradient id="paint0_linear_678_7866" x1="-506.81" y1="163.831" x2="175.874" y2="131.4" gradientUnits="userSpaceOnUse">
<stop stop-color="#F8ED0F"/>
<stop offset="1" stop-color="#289540"/>
</linearGradient>
</defs>
</svg>
