<svg width="226" height="240" viewBox="0 0 226 240" fill="none" xmlns="http://www.w3.org/2000/svg">
<path d="M8.07747 19.0215C14.6731 9.66287 29.5016 6.8932 41.2297 12.8186C52.9739 18.7522 57.2091 31.1795 50.6573 40.5923C44.0868 50.0321 29.1781 52.8437 17.3899 46.8557C5.61821 40.8757 1.46315 28.4065 8.07747 19.0215Z" fill="#5A9BCB"/>
<path d="M66.6718 18.608C68.9987 11.6646 77.6244 7.28129 85.9483 8.80699C94.2798 10.3342 99.1754 17.206 96.8724 24.1656C94.5651 31.1381 85.9126 35.5472 77.5573 34.0036C69.2096 32.4615 64.3407 25.5639 66.6718 18.608Z" fill="#5A9BCB"/>
<path d="M112.238 239.918C174.158 239.918 224.354 237.722 224.354 235.012C224.354 232.302 174.158 230.105 112.238 230.105C50.3188 230.105 0.123047 232.302 0.123047 235.012C0.123047 237.722 50.3188 239.918 112.238 239.918Z" fill="#5A9BCB"/>
<path d="M197.057 36.0137H39.4775V233.519H197.057V36.0137Z" fill="#5A9BCB"/>
<path d="M185.452 23.3809H18.9209V231.674H185.452V23.3809Z" fill="#F5F5F5"/>
<path d="M50.3857 151.472L58.2074 159.294L71.7424 143.65" stroke="#05BD6B" stroke-width="5" stroke-miterlimit="10" stroke-linecap="square"/>
<path d="M86.8213 146.24H150.714" stroke="#D4D4D4" stroke-width="8" stroke-miterlimit="10" stroke-linecap="square"/>
<path d="M86.8213 156.816H130.256" stroke="#D4D4D4" stroke-width="8" stroke-miterlimit="10" stroke-linecap="square"/>
<path d="M50.3857 189.656L58.2074 197.477L71.7424 181.834" stroke="#05BD6B" stroke-width="5" stroke-miterlimit="10" stroke-linecap="square"/>
<path d="M86.8213 184.424H150.714" stroke="#D4D4D4" stroke-width="8" stroke-miterlimit="10" stroke-linecap="square"/>
<path d="M86.8213 195H138.351" stroke="#D4D4D4" stroke-width="8" stroke-miterlimit="10" stroke-linecap="square"/>
<path d="M187.055 12.5642L186.943 2.26758" stroke="#5A9BCB" stroke-width="4" stroke-miterlimit="10" stroke-linecap="round"/>
<path d="M192.941 16.9158L203.647 5.97461" stroke="#5A9BCB" stroke-width="4" stroke-miterlimit="10" stroke-linecap="round"/>
<path d="M195.967 21.5332H206.264" stroke="#5A9BCB" stroke-width="4" stroke-miterlimit="10" stroke-linecap="round"/>
<path d="M52.0418 115.358H152.034C153.53 115.358 154.743 114.144 154.743 112.648V53.0381C154.743 51.5414 153.53 50.3281 152.034 50.3281H52.0418C50.5453 50.3281 49.332 51.5414 49.332 53.0381V112.648C49.3319 114.144 50.5451 115.358 52.0418 115.358Z" fill="#576BBA"/>
<path d="M90.3848 115.358H152.034C153.531 115.358 154.744 114.144 154.744 112.648V53.0381C154.744 51.5414 153.531 50.3281 152.034 50.3281H125.129L90.3848 115.358Z" fill="#4C5FA8"/>
<path d="M73.6771 86.9762H60.1226C59.2005 86.9762 58.4531 86.2288 58.4531 85.3068V76.5093C58.4531 75.5873 59.2005 74.8398 60.1226 74.8398H73.6771C74.5991 74.8398 75.3465 75.5873 75.3465 76.5093V85.3068C75.3465 86.2288 74.5991 86.9762 73.6771 86.9762Z" fill="url(#paint0_linear_321_12937)"/>
<path opacity="0.3" d="M58.8965 61.3945H87.7179" stroke="white" stroke-width="10.9692" stroke-miterlimit="10" stroke-linecap="square"/>
<path opacity="0.3" d="M58.8301 97.5645H77.4231" stroke="white" stroke-width="10.9692" stroke-miterlimit="10" stroke-linecap="square"/>
<path opacity="0.3" d="M58.8965 103.057H98.1379" stroke="white" stroke-width="10.9692" stroke-miterlimit="10" stroke-linecap="square"/>
<mask id="mask0_321_12937" style="mask-type:luminance" maskUnits="userSpaceOnUse" x="131" y="68" width="19" height="23">
<path d="M131.248 79.4767L149.164 68.7188V79.2784V90.4962L131.248 79.4767Z" fill="white"/>
</mask>
<g mask="url(#mask0_321_12937)">
<g opacity="0.31">
<path d="M135.763 83.797C138.258 81.3019 138.258 77.2567 135.763 74.7616C133.268 72.2666 129.223 72.2666 126.728 74.7616C124.233 77.2567 124.233 81.3019 126.728 83.797C129.223 86.292 133.268 86.292 135.763 83.797Z" stroke="white" stroke-width="10.9692" stroke-miterlimit="10" stroke-linecap="square"/>
<path d="M137.983 86.0172C141.705 82.296 141.705 76.2626 137.983 72.5414C134.262 68.8201 128.229 68.8201 124.507 72.5414C120.786 76.2626 120.786 82.296 124.507 86.0172C128.229 89.7385 134.262 89.7385 137.983 86.0172Z" stroke="white" stroke-width="10.9692" stroke-miterlimit="10" stroke-linecap="square"/>
<path d="M140.204 88.2375C145.151 83.29 145.151 75.2686 140.204 70.3211C135.256 65.3736 127.235 65.3736 122.287 70.3211C117.34 75.2686 117.34 83.29 122.287 88.2375C127.235 93.185 135.256 93.185 140.204 88.2375Z" stroke="white" stroke-width="10.9692" stroke-miterlimit="10" stroke-linecap="square"/>
</g>
</g>
<path d="M148.541 94.2002C155.051 94.2002 160.328 88.9227 160.328 82.4126C160.328 75.9025 155.051 70.625 148.541 70.625C142.03 70.625 136.753 75.9025 136.753 82.4126C136.753 88.9227 142.03 94.2002 148.541 94.2002Z" fill="url(#paint1_linear_321_12937)"/>
<path d="M146.552 94.2002C153.062 94.2002 158.34 88.9227 158.34 82.4126C158.34 75.9025 153.062 70.625 146.552 70.625C140.042 70.625 134.765 75.9025 134.765 82.4126C134.765 88.9227 140.042 94.2002 146.552 94.2002Z" fill="url(#paint2_linear_321_12937)"/>
<path d="M146.552 94.1395C153.028 94.1395 158.278 88.8896 158.278 82.4135C158.278 75.9374 153.028 70.6875 146.552 70.6875C140.076 70.6875 134.826 75.9374 134.826 82.4135C134.826 88.8896 140.076 94.1395 146.552 94.1395Z" fill="url(#paint3_linear_321_12937)"/>
<path d="M146.056 89.9701V88.0643C144.962 88.0455 143.829 87.7059 143.169 87.2341L143.622 85.9699C144.301 86.4228 145.282 86.7814 146.339 86.7814C147.679 86.7814 148.584 86.0078 148.584 84.9322C148.584 83.8943 147.849 83.2529 146.452 82.6867C144.528 81.9319 143.339 81.064 143.339 79.4223C143.339 77.8561 144.452 76.6674 146.188 76.3843V74.4785H147.358V76.3089C148.49 76.3466 149.264 76.6484 149.811 76.9693L149.339 78.2147C148.943 77.9883 148.169 77.5731 146.962 77.5731C145.509 77.5731 144.961 78.441 144.961 79.1959C144.961 80.1771 145.66 80.6677 147.301 81.347C149.245 82.1394 150.226 83.1207 150.226 84.8001C150.226 86.2908 149.188 87.6871 147.245 88.0079V89.9703L146.056 89.9701Z" fill="#FFF9DE"/>
<path d="M141.358 113.523H116.502V117.995H141.358V113.523Z" fill="url(#paint4_linear_321_12937)"/>
<path d="M127.529 113.523H118.797V117.995H127.529V113.523Z" fill="#FFD54A"/>
<path d="M129.66 113.523H128.501V117.995H129.66V113.523Z" fill="#FFD030"/>
<path d="M116.502 117.994H141.358" stroke="#D13D23" stroke-width="1.983" stroke-miterlimit="10"/>
<path d="M116.502 113.523H141.358" stroke="#FFDE57" stroke-width="1.983" stroke-miterlimit="10"/>
<path d="M168.35 113.523H143.493V117.995H168.35V113.523Z" fill="url(#paint5_linear_321_12937)"/>
<path d="M154.521 113.523H145.788V117.995H154.521V113.523Z" fill="#FFD54A"/>
<path d="M156.651 113.523H155.492V117.995H156.651V113.523Z" fill="#FFD030"/>
<path d="M143.493 117.994H168.349" stroke="#D13D23" stroke-width="1.983" stroke-miterlimit="10"/>
<path d="M143.493 113.523H168.349" stroke="#FFDE57" stroke-width="1.983" stroke-miterlimit="10"/>
<path d="M160.971 108.723H136.114V113.194H160.971V108.723Z" fill="url(#paint6_linear_321_12937)"/>
<path d="M147.142 108.723H138.409V113.194H147.142V108.723Z" fill="#FFD54A"/>
<path d="M149.272 108.723H148.113V113.194H149.272V108.723Z" fill="#FFD030"/>
<path d="M136.114 113.193H160.971" stroke="#D13D23" stroke-width="1.983" stroke-miterlimit="10"/>
<path d="M136.114 108.723H160.971" stroke="#FFDE57" stroke-width="1.983" stroke-miterlimit="10"/>
<path d="M162.154 103.922H137.298V108.393H162.154V103.922Z" fill="url(#paint7_linear_321_12937)"/>
<path d="M148.325 103.922H139.593V108.393H148.325V103.922Z" fill="#FFD54A"/>
<path d="M150.456 103.922H149.297V108.393H150.456V103.922Z" fill="#FFD030"/>
<path d="M137.298 108.393H162.154" stroke="#D13D23" stroke-width="1.983" stroke-miterlimit="10"/>
<path d="M137.298 103.922H162.154" stroke="#FFDE57" stroke-width="1.983" stroke-miterlimit="10"/>
<path d="M159.622 99.1191H134.766V103.59H159.622V99.1191Z" fill="url(#paint8_linear_321_12937)"/>
<path d="M145.793 99.1191H137.061V103.59H145.793V99.1191Z" fill="#FFD54A"/>
<path d="M147.923 99.1191H146.765V103.59H147.923V99.1191Z" fill="#FFD030"/>
<path d="M134.766 103.59H159.622" stroke="#D13D23" stroke-width="1.983" stroke-miterlimit="10"/>
<path d="M134.766 99.1191H159.622" stroke="#FFDE57" stroke-width="1.983" stroke-miterlimit="10"/>
<path d="M160.404 94.3828H135.548V98.854H160.404V94.3828Z" fill="url(#paint9_linear_321_12937)"/>
<path d="M146.575 94.3828H137.843V98.854H146.575V94.3828Z" fill="#FFD54A"/>
<path d="M148.706 94.3828H147.547V98.854H148.706V94.3828Z" fill="#FFD030"/>
<path d="M135.548 98.8535H160.404" stroke="#D13D23" stroke-width="1.983" stroke-miterlimit="10"/>
<path d="M135.548 94.3828H160.404" stroke="#FFDE57" stroke-width="1.983" stroke-miterlimit="10"/>
<path d="M136.063 108.723H111.207V113.194H136.063V108.723Z" fill="url(#paint10_linear_321_12937)"/>
<path d="M122.235 108.723H113.502V113.194H122.235V108.723Z" fill="#FFD54A"/>
<path d="M124.365 108.723H123.206V113.194H124.365V108.723Z" fill="#FFD030"/>
<path d="M111.207 113.193H136.063" stroke="#D13D23" stroke-width="1.983" stroke-miterlimit="10"/>
<path d="M111.207 108.723H136.063" stroke="#FFDE57" stroke-width="1.983" stroke-miterlimit="10"/>
<defs>
<linearGradient id="paint0_linear_321_12937" x1="66.8997" y1="71.1311" x2="66.8997" y2="95.0528" gradientUnits="userSpaceOnUse">
<stop stop-color="#FFE887"/>
<stop offset="0.174" stop-color="#FDDF7B"/>
<stop offset="0.4853" stop-color="#F8C65D"/>
<stop offset="0.8953" stop-color="#EF9E2B"/>
<stop offset="1" stop-color="#ED931D"/>
</linearGradient>
<linearGradient id="paint1_linear_321_12937" x1="147.825" y1="79.4183" x2="153.999" y2="105.264" gradientUnits="userSpaceOnUse">
<stop stop-color="#FFA826"/>
<stop offset="0.0369" stop-color="#FB9D25"/>
<stop offset="0.1886" stop-color="#EC7320"/>
<stop offset="0.3438" stop-color="#DF511B"/>
<stop offset="0.5008" stop-color="#D53618"/>
<stop offset="0.6605" stop-color="#CE2316"/>
<stop offset="0.8243" stop-color="#CA1814"/>
<stop offset="0.9987" stop-color="#C91414"/>
</linearGradient>
<linearGradient id="paint2_linear_321_12937" x1="145.253" y1="80.0532" x2="169.509" y2="124.107" gradientUnits="userSpaceOnUse">
<stop stop-color="#FFF23A"/>
<stop offset="0.034" stop-color="#FDE83A"/>
<stop offset="0.1863" stop-color="#F7BE3A"/>
<stop offset="0.3422" stop-color="#F29C39"/>
<stop offset="0.4998" stop-color="#ED8139"/>
<stop offset="0.6602" stop-color="#EA6E39"/>
<stop offset="0.8247" stop-color="#E96339"/>
<stop offset="1" stop-color="#E85F39"/>
</linearGradient>
<linearGradient id="paint3_linear_321_12937" x1="146.28" y1="81.6395" x2="153.068" y2="100.917" gradientUnits="userSpaceOnUse">
<stop stop-color="#FFD519"/>
<stop offset="0.0207" stop-color="#FED118"/>
<stop offset="0.2069" stop-color="#F8AF12"/>
<stop offset="0.397" stop-color="#F3940D"/>
<stop offset="0.5902" stop-color="#F0810A"/>
<stop offset="0.7887" stop-color="#EE7608"/>
<stop offset="1" stop-color="#ED7207"/>
</linearGradient>
<linearGradient id="paint4_linear_321_12937" x1="126.462" y1="115.759" x2="151.318" y2="115.759" gradientUnits="userSpaceOnUse">
<stop stop-color="#FFA826"/>
<stop offset="0.0254" stop-color="#FEA324"/>
<stop offset="0.2107" stop-color="#F48117"/>
<stop offset="0.3998" stop-color="#ED660D"/>
<stop offset="0.5922" stop-color="#E75306"/>
<stop offset="0.7897" stop-color="#E44801"/>
<stop offset="1" stop-color="#E34400"/>
</linearGradient>
<linearGradient id="paint5_linear_321_12937" x1="153.453" y1="115.759" x2="178.309" y2="115.759" gradientUnits="userSpaceOnUse">
<stop stop-color="#FFA826"/>
<stop offset="0.0254" stop-color="#FEA324"/>
<stop offset="0.2107" stop-color="#F48117"/>
<stop offset="0.3998" stop-color="#ED660D"/>
<stop offset="0.5922" stop-color="#E75306"/>
<stop offset="0.7897" stop-color="#E44801"/>
<stop offset="1" stop-color="#E34400"/>
</linearGradient>
<linearGradient id="paint6_linear_321_12937" x1="146.074" y1="110.958" x2="170.93" y2="110.958" gradientUnits="userSpaceOnUse">
<stop stop-color="#FFA826"/>
<stop offset="0.0254" stop-color="#FEA324"/>
<stop offset="0.2107" stop-color="#F48117"/>
<stop offset="0.3998" stop-color="#ED660D"/>
<stop offset="0.5922" stop-color="#E75306"/>
<stop offset="0.7897" stop-color="#E44801"/>
<stop offset="1" stop-color="#E34400"/>
</linearGradient>
<linearGradient id="paint7_linear_321_12937" x1="147.258" y1="106.157" x2="172.114" y2="106.157" gradientUnits="userSpaceOnUse">
<stop stop-color="#FFA826"/>
<stop offset="0.0254" stop-color="#FEA324"/>
<stop offset="0.2107" stop-color="#F48117"/>
<stop offset="0.3998" stop-color="#ED660D"/>
<stop offset="0.5922" stop-color="#E75306"/>
<stop offset="0.7897" stop-color="#E44801"/>
<stop offset="1" stop-color="#E34400"/>
</linearGradient>
<linearGradient id="paint8_linear_321_12937" x1="144.725" y1="101.355" x2="169.582" y2="101.355" gradientUnits="userSpaceOnUse">
<stop stop-color="#FFA826"/>
<stop offset="0.0254" stop-color="#FEA324"/>
<stop offset="0.2107" stop-color="#F48117"/>
<stop offset="0.3998" stop-color="#ED660D"/>
<stop offset="0.5922" stop-color="#E75306"/>
<stop offset="0.7897" stop-color="#E44801"/>
<stop offset="1" stop-color="#E34400"/>
</linearGradient>
<linearGradient id="paint9_linear_321_12937" x1="145.508" y1="96.6184" x2="170.364" y2="96.6184" gradientUnits="userSpaceOnUse">
<stop stop-color="#FFA826"/>
<stop offset="0.0254" stop-color="#FEA324"/>
<stop offset="0.2107" stop-color="#F48117"/>
<stop offset="0.3998" stop-color="#ED660D"/>
<stop offset="0.5922" stop-color="#E75306"/>
<stop offset="0.7897" stop-color="#E44801"/>
<stop offset="1" stop-color="#E34400"/>
</linearGradient>
<linearGradient id="paint10_linear_321_12937" x1="121.167" y1="110.958" x2="146.023" y2="110.958" gradientUnits="userSpaceOnUse">
<stop stop-color="#FFA826"/>
<stop offset="0.0254" stop-color="#FEA324"/>
<stop offset="0.2107" stop-color="#F48117"/>
<stop offset="0.3998" stop-color="#ED660D"/>
<stop offset="0.5922" stop-color="#E75306"/>
<stop offset="0.7897" stop-color="#E44801"/>
<stop offset="1" stop-color="#E34400"/>
</linearGradient>
</defs>
</svg>
