<svg width="120" height="120" viewBox="0 0 120 120" fill="none" xmlns="http://www.w3.org/2000/svg">
<mask id="mask0_168_4683" style="mask-type:luminance" maskUnits="userSpaceOnUse" x="0" y="0" width="120" height="120">
<path d="M60 120C93.1371 120 120 93.1371 120 60C120 26.8629 93.1371 0 60 0C26.8629 0 0 26.8629 0 60C0 93.1371 26.8629 120 60 120Z" fill="white"/>
</mask>
<g mask="url(#mask0_168_4683)">
<path d="M56.8607 122.883C48.2809 122.883 39.9577 121.202 32.1225 117.888C24.5546 114.687 17.7578 110.105 11.9211 104.268C6.08436 98.4313 1.50191 91.6346 -1.69906 84.0667C-5.01306 76.2315 -6.69336 67.9083 -6.69336 59.3285C-6.69336 50.7488 -5.01306 42.4256 -1.69906 34.5904C1.50201 27.0224 6.08436 20.2257 11.9211 14.3889C17.7578 8.55223 24.5547 3.96968 32.1225 0.768711C39.9577 -2.54529 48.2808 -4.22559 56.8607 -4.22559C65.4405 -4.22559 73.7636 -2.54529 81.5988 0.768711C89.1668 3.96978 95.9636 8.55233 101.8 14.3889C107.637 20.2257 112.22 27.0224 115.421 34.5904C118.735 42.4256 120.415 50.7488 120.415 59.3285C120.415 67.9083 118.735 76.2314 115.421 84.0667C112.22 91.6347 107.637 98.4313 101.8 104.268C95.9637 110.105 89.1668 114.687 81.5988 117.888C73.7635 121.202 65.4404 122.883 56.8607 122.883Z" fill="#D6FFF0"/>
<path d="M56.8604 -4.3042C21.7165 -4.3042 -6.77441 24.1852 -6.77441 59.3291C-6.77441 76.696 0.183556 92.4375 11.4633 103.919C11.4999 103.957 11.538 103.997 11.5777 104.035C19.713 112.275 30.0601 118.305 41.6799 121.146H41.7005C41.753 121.159 41.8054 121.172 41.8578 121.183H41.8784C46.6897 122.346 51.6932 122.962 56.8604 122.962C61.9687 122.962 66.9374 122.36 71.6977 121.222H71.72C71.7422 121.216 71.7565 121.21 71.7851 121.202H71.7947C71.7962 121.202 71.7962 121.202 71.7978 121.202H71.8073C71.8217 121.197 71.8311 121.192 71.8519 121.186C72.0219 121.145 72.192 121.103 72.3619 121.06C72.3635 121.06 72.3635 121.06 72.365 121.06C72.3666 121.06 72.3666 121.06 72.3682 121.06C72.3698 121.06 72.3698 121.06 72.3713 121.059C73.9713 120.658 75.5508 120.196 77.1 119.675C89.4173 115.547 100.054 107.752 107.712 97.5872C107.874 97.3728 108.035 97.1566 108.194 96.9389C108.526 96.4877 108.853 96.0317 109.172 95.5708V95.5692C116.311 85.2857 120.493 72.7951 120.493 59.3291C120.494 24.1852 92.0042 -4.3042 56.8604 -4.3042ZM107.679 97.3742C105.876 99.7783 103.896 102.06 101.743 104.211C95.9146 110.041 89.1252 114.619 81.5666 117.816C80.1144 118.431 78.6445 118.988 77.1605 119.489C75.3428 120.104 73.5028 120.633 71.6405 121.076H71.631C71.6294 121.076 71.6294 121.076 71.6279 121.076C71.6263 121.076 71.6263 121.076 71.6247 121.076C71.6231 121.076 71.6231 121.076 71.6216 121.076C71.62 121.076 71.62 121.076 71.6184 121.078C71.4707 121.114 71.3261 121.151 71.1767 121.186C71.1576 121.191 71.137 121.195 71.1163 121.2C71.0846 121.208 71.0528 121.214 71.021 121.222C66.41 122.274 61.6749 122.803 56.8605 122.803C51.9905 122.803 47.2031 122.262 42.5411 121.186C42.5395 121.186 42.5395 121.186 42.5379 121.186C42.5364 121.186 42.5364 121.186 42.5348 121.186C42.5332 121.186 42.5332 121.186 42.5316 121.186C42.53 121.186 42.53 121.186 42.5284 121.186C42.5268 121.186 42.5268 121.186 42.5253 121.186C42.5237 121.186 42.5237 121.186 42.5221 121.186C42.5205 121.186 42.5205 121.186 42.519 121.186C42.5174 121.186 42.5174 121.186 42.5158 121.186C42.5143 121.186 42.5142 121.186 42.5126 121.186C42.511 121.186 42.511 121.186 42.5094 121.186C42.5079 121.186 42.5079 121.186 42.5063 121.186C42.5047 121.186 42.5047 121.186 42.5031 121.186C42.5016 121.186 42.5016 121.186 42.5 121.186C42.4603 121.173 42.4126 121.16 42.3792 121.148C42.3776 121.148 42.3776 121.148 42.3761 121.148C42.3745 121.148 42.3745 121.148 42.3728 121.148C42.3712 121.148 42.3712 121.148 42.3697 121.148C42.3681 121.148 42.3681 121.148 42.3665 121.148C42.3649 121.148 42.3649 121.148 42.3634 121.148C42.3618 121.148 42.3618 121.148 42.3602 121.148C42.3587 121.148 42.3587 121.148 42.3571 121.148C42.3555 121.148 42.3555 121.148 42.3539 121.148C42.3524 121.148 42.3524 121.148 42.3508 121.148C42.3492 121.148 42.3492 121.148 42.3476 121.148C42.3461 121.148 42.3461 121.148 42.3445 121.148C42.3429 121.148 42.3429 121.148 42.3414 121.148C42.3398 121.148 42.3398 121.148 42.3381 121.148C38.8727 120.334 35.4581 119.223 32.1531 117.816C24.5946 114.619 17.8067 110.041 11.977 104.211C11.853 104.087 11.7291 103.963 11.6084 103.838C11.5687 103.8 11.5305 103.762 11.494 103.722C5.89303 98.005 1.48219 91.3839 -1.6258 84.0352C-4.93557 76.2097 -6.61498 67.898 -6.61498 59.329C-6.61498 50.7599 -4.93547 42.4467 -1.6258 34.6212C1.57114 27.0626 6.14721 20.2748 11.977 14.445C17.8068 8.61526 24.5946 4.03919 32.1531 0.842257C39.9781 -2.46742 48.2913 -4.14526 56.8604 -4.14526C65.4295 -4.14526 73.7411 -2.46732 81.5666 0.842356C89.1252 4.03929 95.9146 8.61536 101.743 14.4451C107.573 20.2749 112.15 27.0627 115.347 34.6213C118.657 42.4468 120.335 50.76 120.335 59.3291C120.335 67.8981 118.657 76.2098 115.347 84.0353C113.658 88.0266 111.586 91.8035 109.146 95.3372C108.824 95.8028 108.499 96.262 108.165 96.718C108.005 96.9373 107.843 97.1551 107.679 97.3727V97.3742H107.679Z" fill="#D6FFF0"/>
</g>
<mask id="mask1_168_4683" style="mask-type:luminance" maskUnits="userSpaceOnUse" x="0" y="0" width="120" height="120">
<path d="M60 120C93.1371 120 120 93.1371 120 60C120 26.8629 93.1371 0 60 0C26.8629 0 0 26.8629 0 60C0 93.1371 26.8629 120 60 120Z" fill="white"/>
</mask>
<g mask="url(#mask1_168_4683)">
<path d="M77.1016 119.675C89.419 115.547 100.055 107.752 107.714 97.5874L107.698 97.4825L107.68 97.3745V97.3729L107.046 93.1734C106.868 91.9944 106.074 90.9982 104.962 90.5644L80.6004 81.0373L76.8029 79.5516L76.3834 79.3879L76.3707 79.3831L76.3453 79.3736H76.3437L75.0169 78.854L60.8771 80.2046L45.4773 79.4038H45.4741L41.1904 80.9688L15.3814 90.3976C15.3226 90.4198 15.2639 90.4452 15.2067 90.4723C14.6235 90.7344 14.1373 91.1571 13.7957 91.6766C13.7941 91.6782 13.7941 91.6782 13.7941 91.6798C13.5367 92.0723 13.3603 92.5219 13.2872 93.0001L11.6094 103.838L11.5935 103.937L11.5791 104.035C19.7144 112.275 30.0615 118.305 41.6813 121.146H41.702H42.0341H42.0357L42.3391 121.148C42.3407 121.148 42.3407 121.148 42.3423 121.148C42.3439 121.148 42.3439 121.148 42.3455 121.148C42.3471 121.148 42.3471 121.148 42.3486 121.148C42.3502 121.148 42.3502 121.148 42.3518 121.148C42.3533 121.148 42.3533 121.148 42.3549 121.148C42.3565 121.148 42.3565 121.148 42.3581 121.148C42.3596 121.148 42.3596 121.148 42.3612 121.148C42.3628 121.148 42.3628 121.148 42.3644 121.148C42.3659 121.148 42.3659 121.148 42.3675 121.148C42.3691 121.148 42.3691 121.148 42.3706 121.148C42.3722 121.148 42.3722 121.148 42.3738 121.148C42.3754 121.148 42.3754 121.148 42.377 121.148C42.3786 121.148 42.3786 121.148 42.3802 121.148L54.2113 121.168H54.2272L56.7139 121.173L60.1142 121.18L60.961 121.181L63.5256 121.186L65.2051 121.189L66.6939 121.192H66.7097L71.1174 121.2H71.4574C71.459 121.202 71.459 121.202 71.4606 121.2L71.7863 121.202H71.7958C71.7974 121.202 71.7974 121.202 71.7991 121.202H71.8086C71.823 121.197 71.8324 121.192 71.8531 121.186C72.0232 121.144 72.1932 121.103 72.3632 121.06C72.3648 121.06 72.3647 121.06 72.3663 121.06C72.3679 121.06 72.3679 121.06 72.3695 121.06C72.371 121.06 72.371 121.06 72.3726 121.059L77.1016 119.675Z" fill="#C7B299"/>
<path d="M77.1172 83.9631C66.51 84.9938 54.956 84.8401 44.3838 83.8236L47.9234 69.5157L48.1465 68.1921C49.8903 69.5214 54.4896 72.6078 60.961 72.7083C67.8188 72.8145 72.7023 69.5056 74.461 68.1763L74.6866 69.5156C75.6302 75.1301 76.4304 79.8832 77.1172 83.9631Z" fill="#FFE0B2"/>
<path d="M74.6872 69.5157C60.6673 79.5358 47.9238 69.5157 47.9238 69.5157L48.147 68.1921C49.8907 69.5214 54.49 72.6078 60.9614 72.7083C67.8192 72.8145 72.7028 69.5056 74.4615 68.1763L74.6872 69.5157Z" fill="#E6B493"/>
<path d="M60.9611 83.8237H72.4838L66.7225 90.133L60.9611 96.4423L55.1997 90.133L49.4385 83.8237H60.9611Z" fill="#FFE0B2"/>
<path d="M77.1003 119.675C89.4177 115.547 100.054 107.752 107.713 97.5875C107.875 97.373 108.035 97.1569 108.194 96.9392L108.18 96.8327L108.165 96.7183L107.848 94.23C107.625 92.4981 106.475 91.0267 104.849 90.3928L80.6039 81.0213L76.8016 79.5515L76.3821 79.3879L76.3694 79.3831L76.344 79.3751V79.3735H76.3424L72.3319 83.8241L71.8346 84.3754L64.7289 92.2596L60.96 96.4416V121.181V121.186H63.5245H65.2056H66.9629H71.1768H71.52H71.8521C72.0221 121.145 72.1921 121.103 72.3621 121.06C72.3637 121.06 72.3637 121.06 72.3652 121.06C72.3668 121.06 72.3668 121.06 72.3684 121.06C72.37 121.06 72.3699 121.06 72.3715 121.059L77.1003 119.675Z" fill="#C7B299"/>
<path d="M80.6035 81.0207L75.9497 98.0278L64.729 92.2602L76.3422 79.3735L80.6035 81.0207Z" fill="#D6D2CF"/>
<path d="M41.189 80.968L45.8653 98.0571L57.1545 92.2534L45.4728 79.4028L41.189 80.968Z" fill="#D6D2CF"/>
<path d="M56.7273 121.227L42.5413 121.186C42.5398 121.186 42.5398 121.186 42.5382 121.186C42.5366 121.186 42.5366 121.186 42.5351 121.186C42.5335 121.186 42.5335 121.186 42.5318 121.186C42.5302 121.186 42.5302 121.186 42.5287 121.186C42.5271 121.186 42.5271 121.186 42.5255 121.186C42.5239 121.186 42.5239 121.186 42.5224 121.186C42.5208 121.186 42.5208 121.186 42.5192 121.186C42.5177 121.186 42.5177 121.186 42.5161 121.186C42.5145 121.186 42.5145 121.186 42.5128 121.186C42.5113 121.186 42.5113 121.186 42.5097 121.186C42.5081 121.186 42.5081 121.186 42.5066 121.186C42.505 121.186 42.505 121.186 42.5034 121.186C42.5018 121.186 42.5018 121.186 42.5003 121.186L42.1952 121.184L41.879 121.183H41.8583C41.8059 121.172 41.7534 121.159 41.701 121.146H41.6804C30.0606 118.305 19.7135 112.275 11.5783 104.035C11.5386 103.997 11.5004 103.957 11.4639 103.919L11.4781 103.821L11.494 103.722L12.959 93.7645C13.0479 92.9923 13.3419 92.2773 13.7932 91.6798C13.7932 91.6783 13.7932 91.6783 13.7948 91.6766C14.1666 91.1825 14.6464 90.7678 15.2057 90.4722C15.3725 90.3817 15.5458 90.3038 15.7253 90.2371L45.4732 79.4038L45.4748 79.4102L46.7188 84.0324L49.93 95.9683L56.7131 121.173L56.7273 121.227Z" fill="#736357"/>
<path d="M45.4741 79.4028L35.644 91.153L45.2354 120.959L56.7282 121.227L45.4741 79.4028Z" fill="#333333"/>
<path d="M71.7191 121.223H71.6969H71.3632H71.02L65.1934 121.227L65.2029 121.189L65.2045 121.186L71.9241 95.9588L75.0702 84.1467L76.3413 79.3735H76.3429V79.3751L76.3683 79.3831L76.381 79.3879L106.196 90.237C107.707 90.7995 108.776 92.1612 108.962 93.7644L109.145 95.3375L109.157 95.4598L109.172 95.5694V95.571C108.852 96.0318 108.525 96.4879 108.193 96.939C108.034 97.1568 107.873 97.3728 107.711 97.5874C100.053 107.752 89.4166 115.547 77.0991 119.675L72.3705 121.059C72.369 121.061 72.3689 121.061 72.3674 121.061C72.3658 121.061 72.3658 121.061 72.3642 121.061C72.3627 121.061 72.3627 121.061 72.3611 121.061C72.191 121.103 72.0211 121.145 71.851 121.186C71.8304 121.192 71.8209 121.197 71.8065 121.202L71.7191 121.223Z" fill="#736357"/>
<path d="M77.0992 119.675L77.1294 119.583L77.1596 119.489L86.2768 91.1538L79.8989 83.5921L76.3429 79.3751L76.3413 79.3735L75.0702 84.1467L71.9241 95.9588L65.2045 121.186L65.2029 121.189L65.1934 121.227L66.6917 121.192H66.7075L66.9617 121.186L71.6173 121.078C71.6189 121.076 71.6189 121.076 71.6205 121.076C71.622 121.076 71.622 121.076 71.6236 121.076C71.6252 121.076 71.6252 121.076 71.6268 121.076C71.6283 121.076 71.6283 121.076 71.6299 121.076H71.6394L72.008 121.068H72.0096L72.3608 121.061C72.3624 121.061 72.3624 121.061 72.3639 121.061C72.3655 121.061 72.3655 121.061 72.3671 121.061C72.3687 121.061 72.3687 121.061 72.3702 121.059L77.0992 119.675Z" fill="#333333"/>
</g>
<mask id="mask2_168_4683" style="mask-type:luminance" maskUnits="userSpaceOnUse" x="0" y="0" width="120" height="120">
<path d="M60 120C93.1371 120 120 93.1371 120 60C120 26.8629 93.1371 0 60 0C26.8629 0 0 26.8629 0 60C0 93.1371 26.8629 120 60 120Z" fill="white"/>
</mask>
<g mask="url(#mask2_168_4683)">
<path d="M41.2277 51.8478C41.2277 51.8478 38.4246 47.1291 35.5152 51.9405C35.5152 51.9405 34.4469 53.6378 36.944 56.3806C36.944 56.3806 37.7128 57.133 37.7913 57.9466C37.8697 58.7603 37.6802 59.1395 38.5354 59.5895C39.3907 60.0395 41.3709 60.6719 41.3257 57.8892C41.2807 55.1067 41.2277 51.8478 41.2277 51.8478Z" fill="#FFE0B2"/>
<path opacity="0.49" d="M38.7877 56.6767C38.7877 56.6767 40.287 57.4171 39.9277 56.1818C39.5684 54.9465 40.7735 53.6356 40.4841 52.6874C40.4841 52.6874 39.2363 49.9159 37.298 52.0528C36.7466 52.6606 36.6024 53.5177 36.9201 54.2632C37.3546 55.2828 37.9607 56.3641 38.7877 56.6767Z" fill="#FFE0B2" stroke="#C69C6D" stroke-width="3.1899" stroke-miterlimit="10"/>
</g>
<mask id="mask3_168_4683" style="mask-type:luminance" maskUnits="userSpaceOnUse" x="0" y="0" width="120" height="120">
<path d="M60 120C93.1371 120 120 93.1371 120 60C120 26.8629 93.1371 0 60 0C26.8629 0 0 26.8629 0 60C0 93.1371 26.8629 120 60 120Z" fill="white"/>
</mask>
<g mask="url(#mask3_168_4683)">
<path d="M81.3891 51.3696C81.3891 51.3696 84.1865 46.4527 87.1018 51.452C87.1018 51.452 88.1722 53.2155 85.6785 56.0756C85.6785 56.0756 84.9105 56.8603 84.8331 57.7072C84.7556 58.5539 84.9456 58.9481 84.0909 59.4184C83.2361 59.8887 81.2567 60.5516 81.2985 57.6561C81.3402 54.7608 81.3891 51.3696 81.3891 51.3696Z" fill="#FFE0B2"/>
<path opacity="0.49" d="M83.8337 56.3884C83.8337 56.3884 82.3353 57.1626 82.6931 55.8762C83.0508 54.5899 81.8441 53.2288 82.1323 52.2415C82.1323 52.2415 83.3767 49.3546 85.3178 51.5732C85.8699 52.2043 86.0151 53.0957 85.6984 53.8722C85.2651 54.9345 84.6602 56.0611 83.8337 56.3884Z" fill="#FFE0B2" stroke="#C69C6D" stroke-width="3.2539" stroke-miterlimit="10"/>
</g>
<mask id="mask4_168_4683" style="mask-type:luminance" maskUnits="userSpaceOnUse" x="0" y="0" width="120" height="120">
<path d="M60 120C93.1371 120 120 93.1371 120 60C120 26.8629 93.1371 0 60 0C26.8629 0 0 26.8629 0 60C0 93.1371 26.8629 120 60 120Z" fill="white"/>
</mask>
<g mask="url(#mask4_168_4683)">
<path d="M75.319 73.2769C74.5225 74.1513 69.3366 79.6608 61.2542 79.5325C53.6496 79.4119 48.6636 74.3825 47.6449 73.355C47.4078 73.1157 47.2185 72.912 47.0935 72.7749L47.3445 71.2512C47.2484 71.1718 46.8763 71.0617 46.7803 70.9823L46.7958 70.8906C46.8618 70.9525 46.9615 71.0451 47.0839 71.1559C48.862 72.7655 54.1335 77.5375 61.2889 77.521C68.0131 77.5056 72.8879 73.2518 75.0295 71.4483C75.0299 71.448 75.0313 71.4468 75.0332 71.4466C75.0841 71.4426 75.1892 72.176 75.319 73.2769Z" fill="#BDCCD4"/>
</g>
<mask id="mask5_168_4683" style="mask-type:luminance" maskUnits="userSpaceOnUse" x="0" y="0" width="120" height="120">
<path d="M60 120C93.1371 120 120 93.1371 120 60C120 26.8629 93.1371 0 60 0C26.8629 0 0 26.8629 0 60C0 93.1371 26.8629 120 60 120Z" fill="white"/>
</mask>
<g mask="url(#mask5_168_4683)">
<path d="M81.6794 59.2994C81.6412 53.2845 81.6028 47.2697 81.5646 41.2549C81.5242 36.9031 79.2174 32.8923 75.4843 30.6555C71.8143 28.4566 66.7243 26.2878 60.9439 26.3082C54.6639 26.3307 49.656 28.4612 46.1435 30.6661C42.6035 32.8884 40.4428 36.7632 40.4266 40.943C40.4174 43.3112 40.4084 45.6795 40.3994 48.0479H40.4941C40.3966 50.2587 40.2986 53.5505 40.3568 57.6386C40.3836 59.5281 40.4206 59.9497 40.4469 60.1994C40.9687 65.1477 44.2991 68.7199 46.0027 70.5471C47.3885 72.0334 53.0395 78.0928 61.1374 78.3316C61.6453 78.3465 62.0146 78.3344 62.0953 78.3316C68.3716 78.1125 72.8062 73.8577 74.5913 72.1418C79.4775 67.4449 81.1064 61.8686 81.6794 59.2994Z" fill="#FFE0B2"/>
</g>
<path d="M40.9069 57.3069C40.9069 57.3069 37.7909 40.9787 47.1134 35.461C47.1134 35.461 57.01 43.452 73.3697 35.461C73.3697 35.461 81.3813 36.5354 82.0545 55.4048C82.0545 55.4048 96.1925 32.7077 70.2729 17.8673C70.2729 17.8673 74.8509 15.9871 75.7261 17.8673C75.7261 17.8673 68.5897 12.4281 57.3466 17.0615C57.3466 17.0615 56.5388 13.9725 60.9821 14.174C60.9821 14.174 47.046 12.831 47.1134 22.4336C47.1134 22.4336 26.5669 29.842 40.9069 57.3069Z" fill="black"/>
</svg>
