<svg width="240" height="240" viewBox="0 0 240 240" fill="none" xmlns="http://www.w3.org/2000/svg">
<g id="QR Code">
<g clip-path="url(#clip0_680_8088)">
<g id="Vector">
<path d="M12.0453 0.681641H0.681641V12.0453H12.0453V0.681641Z" fill="black"/>
<path d="M23.4089 0.681641H12.0453V12.0453H23.4089V0.681641Z" fill="black"/>
<path d="M34.7725 0.681641H23.4089V12.0453H34.7725V0.681641Z" fill="black"/>
<path d="M46.1362 0.681641H34.7725V12.0453H46.1362V0.681641Z" fill="black"/>
<path d="M57.4998 0.681641H46.1362V12.0453H57.4998V0.681641Z" fill="black"/>
<path d="M68.8634 0.681641H57.4998V12.0453H68.8634V0.681641Z" fill="black"/>
<path d="M80.2271 0.681641H68.8634V12.0453H80.2271V0.681641Z" fill="black"/>
<path d="M102.954 0.681641H91.5907V12.0453H102.954V0.681641Z" fill="black"/>
<path d="M114.318 0.681641H102.954V12.0453H114.318V0.681641Z" fill="black"/>
<path d="M137.045 0.681641H125.682V12.0453H137.045V0.681641Z" fill="black"/>
<path d="M148.409 0.681641H137.045V12.0453H148.409V0.681641Z" fill="black"/>
<path d="M171.136 0.681641H159.773V12.0453H171.136V0.681641Z" fill="black"/>
<path d="M182.5 0.681641H171.136V12.0453H182.5V0.681641Z" fill="black"/>
<path d="M193.863 0.681641H182.5V12.0453H193.863V0.681641Z" fill="black"/>
<path d="M205.227 0.681641H193.863V12.0453H205.227V0.681641Z" fill="black"/>
<path d="M216.591 0.681641H205.227V12.0453H216.591V0.681641Z" fill="black"/>
<path d="M227.954 0.681641H216.591V12.0453H227.954V0.681641Z" fill="black"/>
<path d="M239.318 0.681641H227.954V12.0453H239.318V0.681641Z" fill="black"/>
<path d="M12.0453 12.0453H0.681641V23.4089H12.0453V12.0453Z" fill="black"/>
<path d="M80.2271 12.0453H68.8634V23.4089H80.2271V12.0453Z" fill="black"/>
<path d="M148.409 12.0453H137.045V23.4089H148.409V12.0453Z" fill="black"/>
<path d="M171.136 12.0453H159.773V23.4089H171.136V12.0453Z" fill="black"/>
<path d="M239.318 12.0453H227.954V23.4089H239.318V12.0453Z" fill="black"/>
<path d="M12.0453 23.4089H0.681641V34.7725H12.0453V23.4089Z" fill="black"/>
<path d="M34.7725 23.4089H23.4089V34.7725H34.7725V23.4089Z" fill="black"/>
<path d="M46.1362 23.4089H34.7725V34.7725H46.1362V23.4089Z" fill="black"/>
<path d="M57.4998 23.4089H46.1362V34.7725H57.4998V23.4089Z" fill="black"/>
<path d="M80.2271 23.4089H68.8634V34.7725H80.2271V23.4089Z" fill="black"/>
<path d="M102.954 23.4089H91.5907V34.7725H102.954V23.4089Z" fill="black"/>
<path d="M137.045 23.4089H125.682V34.7725H137.045V23.4089Z" fill="black"/>
<path d="M171.136 23.4089H159.773V34.7725H171.136V23.4089Z" fill="black"/>
<path d="M193.863 23.4089H182.5V34.7725H193.863V23.4089Z" fill="black"/>
<path d="M205.227 23.4089H193.863V34.7725H205.227V23.4089Z" fill="black"/>
<path d="M216.591 23.4089H205.227V34.7725H216.591V23.4089Z" fill="black"/>
<path d="M239.318 23.4089H227.954V34.7725H239.318V23.4089Z" fill="black"/>
<path d="M12.0453 34.7725H0.681641V46.1362H12.0453V34.7725Z" fill="black"/>
<path d="M34.7725 34.7725H23.4089V46.1362H34.7725V34.7725Z" fill="black"/>
<path d="M46.1362 34.7725H34.7725V46.1362H46.1362V34.7725Z" fill="black"/>
<path d="M57.4998 34.7725H46.1362V46.1362H57.4998V34.7725Z" fill="black"/>
<path d="M80.2271 34.7725H68.8634V46.1362H80.2271V34.7725Z" fill="black"/>
<path d="M102.954 34.7725H91.5907V46.1362H102.954V34.7725Z" fill="black"/>
<path d="M114.318 34.7725H102.954V46.1362H114.318V34.7725Z" fill="black"/>
<path d="M137.045 34.7725H125.682V46.1362H137.045V34.7725Z" fill="black"/>
<path d="M148.409 34.7725H137.045V46.1362H148.409V34.7725Z" fill="black"/>
<path d="M171.136 34.7725H159.773V46.1362H171.136V34.7725Z" fill="black"/>
<path d="M193.863 34.7725H182.5V46.1362H193.863V34.7725Z" fill="black"/>
<path d="M205.227 34.7725H193.863V46.1362H205.227V34.7725Z" fill="black"/>
<path d="M216.591 34.7725H205.227V46.1362H216.591V34.7725Z" fill="black"/>
<path d="M239.318 34.7725H227.954V46.1362H239.318V34.7725Z" fill="black"/>
<path d="M12.0453 46.1362H0.681641V57.4998H12.0453V46.1362Z" fill="black"/>
<path d="M34.7725 46.1362H23.4089V57.4998H34.7725V46.1362Z" fill="black"/>
<path d="M46.1362 46.1362H34.7725V57.4998H46.1362V46.1362Z" fill="black"/>
<path d="M57.4998 46.1362H46.1362V57.4998H57.4998V46.1362Z" fill="black"/>
<path d="M80.2271 46.1362H68.8634V57.4998H80.2271V46.1362Z" fill="black"/>
<path d="M125.682 46.1362H114.318L114.318 57.4998H125.682L125.682 46.1362Z" fill="black"/>
<path d="M137.045 46.1362H125.682L125.682 57.4998H137.045V46.1362Z" fill="black"/>
<path d="M171.136 46.1362H159.773V57.4998H171.136V46.1362Z" fill="black"/>
<path d="M193.863 46.1362H182.5V57.4998H193.863V46.1362Z" fill="black"/>
<path d="M205.227 46.1362H193.863V57.4998H205.227V46.1362Z" fill="black"/>
<path d="M216.591 46.1362H205.227V57.4998H216.591V46.1362Z" fill="black"/>
<path d="M239.318 46.1362H227.954V57.4998H239.318V46.1362Z" fill="black"/>
<path d="M12.0453 57.4998H0.681641V68.8634H12.0453V57.4998Z" fill="black"/>
<path d="M80.2271 57.4998H68.8634V68.8634H80.2271V57.4998Z" fill="black"/>
<path d="M102.954 57.4998H91.5907V68.8634H102.954V57.4998Z" fill="black"/>
<path d="M114.318 57.4998H102.954V68.8634H114.318L114.318 57.4998Z" fill="black"/>
<path d="M125.682 57.4998H114.318L114.318 68.8634H125.682V57.4998Z" fill="black"/>
<path d="M171.136 57.4998H159.773V68.8634H171.136V57.4998Z" fill="black"/>
<path d="M239.318 57.4998H227.954V68.8634H239.318V57.4998Z" fill="black"/>
<path d="M12.0453 68.8634H0.681641V80.2271H12.0453V68.8634Z" fill="black"/>
<path d="M23.4089 68.8634H12.0453V80.2271H23.4089V68.8634Z" fill="black"/>
<path d="M34.7725 68.8634H23.4089V80.2271H34.7725V68.8634Z" fill="black"/>
<path d="M46.1362 68.8634H34.7725V80.2271H46.1362V68.8634Z" fill="black"/>
<path d="M57.4998 68.8634H46.1362V80.2271H57.4998V68.8634Z" fill="black"/>
<path d="M68.8634 68.8634H57.4998V80.2271H68.8634V68.8634Z" fill="black"/>
<path d="M80.2271 68.8634H68.8634V80.2271H80.2271V68.8634Z" fill="black"/>
<path d="M102.954 68.8634H91.5907V80.2271H102.954V68.8634Z" fill="black"/>
<path d="M125.682 68.8634H114.318L114.318 80.2271H125.682V68.8634Z" fill="black"/>
<path d="M148.409 68.8634H137.045V80.2271H148.409V68.8634Z" fill="black"/>
<path d="M171.136 68.8634H159.773V80.2271H171.136V68.8634Z" fill="black"/>
<path d="M182.5 68.8634H171.136V80.2271H182.5V68.8634Z" fill="black"/>
<path d="M193.863 68.8634H182.5V80.2271H193.863V68.8634Z" fill="black"/>
<path d="M205.227 68.8634H193.863V80.2271H205.227V68.8634Z" fill="black"/>
<path d="M216.591 68.8634H205.227V80.2271H216.591V68.8634Z" fill="black"/>
<path d="M227.954 68.8634H216.591V80.2271H227.954V68.8634Z" fill="black"/>
<path d="M239.318 68.8634H227.954V80.2271H239.318V68.8634Z" fill="black"/>
<path d="M102.954 80.2271H91.5907V91.5907H102.954V80.2271Z" fill="black"/>
<path d="M125.682 80.2271H114.318V91.5907H125.682V80.2271Z" fill="black"/>
<path d="M12.0453 91.5907H0.681641V102.954H12.0453V91.5907Z" fill="black"/>
<path d="M23.4089 91.5907H12.0453V102.954H23.4089V91.5907Z" fill="black"/>
<path d="M46.1362 91.5907H34.7725V102.954H46.1362V91.5907Z" fill="black"/>
<path d="M80.2271 91.5907H68.8634V102.954H80.2271V91.5907Z" fill="black"/>
<path d="M91.5907 91.5907L80.2271 91.5907V102.954H91.5907L91.5907 91.5907Z" fill="black"/>
<path d="M137.045 91.5907L125.682 91.5907L125.682 102.954H137.045V91.5907Z" fill="black"/>
<path d="M148.409 91.5907H137.045V102.954H148.409V91.5907Z" fill="black"/>
<path d="M159.773 91.5907H148.409V102.954H159.773V91.5907Z" fill="black"/>
<path d="M171.136 91.5907H159.773V102.954H171.136V91.5907Z" fill="black"/>
<path d="M182.5 91.5907H171.136V102.954H182.5V91.5907Z" fill="black"/>
<path d="M205.227 91.5907H193.863V102.954H205.227V91.5907Z" fill="black"/>
<path d="M216.591 91.5907H205.227V102.954H216.591V91.5907Z" fill="black"/>
<path d="M239.318 91.5907H227.954V102.954H239.318V91.5907Z" fill="black"/>
<path d="M12.0453 102.954H0.681641V114.318H12.0453V102.954Z" fill="black"/>
<path d="M23.4089 102.954H12.0453V114.318H23.4089V102.954Z" fill="black"/>
<path d="M46.1362 102.954H34.7725V114.318H46.1362V102.954Z" fill="black"/>
<path d="M57.4998 102.954L46.1362 102.954V114.318H57.4998V102.954Z" fill="black"/>
<path d="M91.5907 102.954H80.2271V114.318H91.5907V102.954Z" fill="black"/>
<path d="M159.773 102.954H148.409V114.318H159.773V102.954Z" fill="black"/>
<path d="M193.863 102.954H182.5V114.318H193.863V102.954Z" fill="black"/>
<path d="M216.591 102.954H205.227V114.318H216.591V102.954Z" fill="black"/>
<path d="M227.954 102.954H216.591V114.318H227.954V102.954Z" fill="black"/>
<path d="M12.0453 114.318H0.681641V125.682H12.0453V114.318Z" fill="black"/>
<path d="M23.4089 114.318H12.0453V125.682H23.4089V114.318Z" fill="black"/>
<path d="M57.4998 114.318H46.1362V125.682H57.4998V114.318Z" fill="black"/>
<path d="M68.8634 114.318L57.4998 114.318V125.682H68.8634V114.318Z" fill="black"/>
<path d="M80.2271 114.318L68.8634 114.318V125.682H80.2271V114.318Z" fill="black"/>
<path d="M91.5907 114.318H80.2271V125.682H91.5907V114.318Z" fill="black"/>
<path d="M148.409 114.318L137.045 114.318V125.682H148.409V114.318Z" fill="black"/>
<path d="M159.773 114.318H148.409V125.682H159.773V114.318Z" fill="black"/>
<path d="M171.136 114.318L159.773 114.318V125.682H171.136V114.318Z" fill="black"/>
<path d="M205.227 114.318H193.863V125.682H205.227V114.318Z" fill="black"/>
<path d="M239.318 114.318L227.954 114.318V125.682H239.318V114.318Z" fill="black"/>
<path d="M57.4998 125.682H46.1362V137.045H57.4998V125.682Z" fill="black"/>
<path d="M68.8634 125.682H57.4998V137.045H68.8634V125.682Z" fill="black"/>
<path d="M91.5907 125.682H80.2271V137.045H91.5907V125.682Z" fill="black"/>
<path d="M102.954 125.682L91.5907 125.682V137.045H102.954V125.682Z" fill="black"/>
<path d="M114.318 125.682H102.954V137.045H114.318V125.682Z" fill="black"/>
<path d="M125.682 125.682H114.318V137.045H125.682V125.682Z" fill="black"/>
<path d="M137.045 125.682L125.682 125.682V137.045H137.045V125.682Z" fill="black"/>
<path d="M159.773 125.682H148.409V137.045H159.773V125.682Z" fill="black"/>
<path d="M171.136 125.682H159.773V137.045H171.136V125.682Z" fill="black"/>
<path d="M205.227 125.682H193.863V137.045H205.227V125.682Z" fill="black"/>
<path d="M12.0453 137.045H0.681641V148.409H12.0453V137.045Z" fill="black"/>
<path d="M23.4089 137.045H12.0453V148.409H23.4089V137.045Z" fill="black"/>
<path d="M46.1362 137.045H34.7725V148.409H46.1362V137.045Z" fill="black"/>
<path d="M68.8634 137.045H57.4998V148.409H68.8634V137.045Z" fill="black"/>
<path d="M80.2271 137.045H68.8634V148.409H80.2271V137.045Z" fill="black"/>
<path d="M91.5907 137.045H80.2271V148.409H91.5907V137.045Z" fill="black"/>
<path d="M102.954 137.045H91.5907V148.409H102.954V137.045Z" fill="black"/>
<path d="M114.318 137.045H102.954V148.409H114.318V137.045Z" fill="black"/>
<path d="M148.409 137.045H137.045V148.409H148.409V137.045Z" fill="black"/>
<path d="M171.136 137.045H159.773V148.409H171.136V137.045Z" fill="black"/>
<path d="M193.863 137.045H182.5V148.409H193.863V137.045Z" fill="black"/>
<path d="M216.591 137.045H205.227V148.409H216.591V137.045Z" fill="black"/>
<path d="M114.318 148.409H102.954L102.954 159.773H114.318V148.409Z" fill="black"/>
<path d="M193.863 148.409H182.5V159.773H193.863V148.409Z" fill="black"/>
<path d="M227.954 148.409H216.591V159.773H227.954V148.409Z" fill="black"/>
<path d="M239.318 148.409H227.954V159.773H239.318V148.409Z" fill="black"/>
<path d="M12.0453 159.773H0.681641V171.136H12.0453V159.773Z" fill="black"/>
<path d="M23.4089 159.773H12.0453V171.136H23.4089V159.773Z" fill="black"/>
<path d="M34.7725 159.773H23.4089V171.136H34.7725V159.773Z" fill="black"/>
<path d="M46.1362 159.773H34.7725V171.136H46.1362V159.773Z" fill="black"/>
<path d="M57.4998 159.773H46.1362V171.136H57.4998V159.773Z" fill="black"/>
<path d="M68.8634 159.773H57.4998V171.136H68.8634V159.773Z" fill="black"/>
<path d="M80.2271 159.773H68.8634V171.136H80.2271V159.773Z" fill="black"/>
<path d="M102.954 159.773H91.5907V171.136H102.954L102.954 159.773Z" fill="black"/>
<path d="M114.318 159.773H102.954L102.954 171.136H114.318V159.773Z" fill="black"/>
<path d="M137.045 159.773H125.682V171.136H137.045V159.773Z" fill="black"/>
<path d="M159.773 159.773H148.409V171.136H159.773V159.773Z" fill="black"/>
<path d="M193.863 159.773H182.5V171.136H193.863V159.773Z" fill="black"/>
<path d="M205.227 159.773H193.863V171.136H205.227V159.773Z" fill="black"/>
<path d="M216.591 159.773H205.227V171.136H216.591V159.773Z" fill="black"/>
<path d="M12.0453 171.136H0.681641V182.5H12.0453V171.136Z" fill="black"/>
<path d="M80.2271 171.136H68.8634V182.5H80.2271V171.136Z" fill="black"/>
<path d="M114.318 171.136H102.954L102.954 182.5H114.318V171.136Z" fill="black"/>
<path d="M159.773 171.136H148.409V182.5H159.773V171.136Z" fill="black"/>
<path d="M171.136 171.136H159.773V182.5H171.136V171.136Z" fill="black"/>
<path d="M182.5 171.136H171.136V182.5H182.5V171.136Z" fill="black"/>
<path d="M205.227 171.136H193.863V182.5H205.227V171.136Z" fill="black"/>
<path d="M227.954 171.136H216.591V182.5H227.954V171.136Z" fill="black"/>
<path d="M12.0453 182.5H0.681641V193.863H12.0453V182.5Z" fill="black"/>
<path d="M34.7725 182.5H23.4089V193.863H34.7725V182.5Z" fill="black"/>
<path d="M46.1362 182.5H34.7725V193.863H46.1362V182.5Z" fill="black"/>
<path d="M57.4998 182.5H46.1362V193.863H57.4998V182.5Z" fill="black"/>
<path d="M80.2271 182.5H68.8634V193.863H80.2271V182.5Z" fill="black"/>
<path d="M137.045 182.5H125.682V193.863H137.045V182.5Z" fill="black"/>
<path d="M159.773 182.5H148.409V193.863H159.773V182.5Z" fill="black"/>
<path d="M171.136 182.5H159.773V193.863H171.136V182.5Z" fill="black"/>
<path d="M12.0453 193.863H0.681641V205.227H12.0453V193.863Z" fill="black"/>
<path d="M34.7725 193.863H23.4089V205.227H34.7725V193.863Z" fill="black"/>
<path d="M46.1362 193.863H34.7725V205.227H46.1362V193.863Z" fill="black"/>
<path d="M57.4998 193.863H46.1362V205.227H57.4998V193.863Z" fill="black"/>
<path d="M80.2271 193.863H68.8634V205.227H80.2271V193.863Z" fill="black"/>
<path d="M102.954 193.863H91.5907V205.227H102.954V193.863Z" fill="black"/>
<path d="M114.318 193.863H102.954V205.227H114.318V193.863Z" fill="black"/>
<path d="M137.045 193.863H125.682V205.227H137.045V193.863Z" fill="black"/>
<path d="M159.773 193.863H148.409V205.227H159.773V193.863Z" fill="black"/>
<path d="M171.136 193.863H159.773V205.227H171.136V193.863Z" fill="black"/>
<path d="M182.5 193.863H171.136V205.227H182.5V193.863Z" fill="black"/>
<path d="M193.863 193.863H182.5V205.227H193.863V193.863Z" fill="black"/>
<path d="M205.227 193.863H193.863V205.227H205.227V193.863Z" fill="black"/>
<path d="M216.591 193.863H205.227V205.227H216.591V193.863Z" fill="black"/>
<path d="M12.0453 205.227H0.681641V216.591H12.0453V205.227Z" fill="black"/>
<path d="M34.7725 205.227H23.4089V216.591H34.7725V205.227Z" fill="black"/>
<path d="M46.1362 205.227H34.7725V216.591H46.1362V205.227Z" fill="black"/>
<path d="M57.4998 205.227H46.1362V216.591H57.4998V205.227Z" fill="black"/>
<path d="M80.2271 205.227H68.8634V216.591H80.2271V205.227Z" fill="black"/>
<path d="M114.318 205.227H102.954L102.954 216.591H114.318V205.227Z" fill="black"/>
<path d="M171.136 205.227H159.773V216.591H171.136V205.227Z" fill="black"/>
<path d="M182.5 205.227H171.136V216.591H182.5V205.227Z" fill="black"/>
<path d="M193.863 205.227H182.5V216.591H193.863V205.227Z" fill="black"/>
<path d="M216.591 205.227H205.227V216.591H216.591V205.227Z" fill="black"/>
<path d="M239.318 205.227H227.954V216.591H239.318V205.227Z" fill="black"/>
<path d="M12.0453 216.591H0.681641V227.954H12.0453V216.591Z" fill="black"/>
<path d="M80.2271 216.591H68.8634V227.954H80.2271V216.591Z" fill="black"/>
<path d="M102.954 216.591H91.5907V227.954H102.954L102.954 216.591Z" fill="black"/>
<path d="M125.682 216.591H114.318L114.318 227.954H125.682V216.591Z" fill="black"/>
<path d="M137.045 216.591H125.682V227.954H137.045V216.591Z" fill="black"/>
<path d="M159.773 216.591H148.409V227.954H159.773V216.591Z" fill="black"/>
<path d="M182.5 216.591H171.136V227.954H182.5V216.591Z" fill="black"/>
<path d="M193.863 216.591H182.5V227.954H193.863V216.591Z" fill="black"/>
<path d="M205.227 216.591H193.863V227.954H205.227V216.591Z" fill="black"/>
<path d="M12.0453 227.954H0.681641V239.318H12.0453V227.954Z" fill="black"/>
<path d="M23.4089 227.954H12.0453V239.318H23.4089V227.954Z" fill="black"/>
<path d="M34.7725 227.954H23.4089V239.318H34.7725V227.954Z" fill="black"/>
<path d="M46.1362 227.954H34.7725V239.318H46.1362V227.954Z" fill="black"/>
<path d="M57.4998 227.954H46.1362V239.318H57.4998V227.954Z" fill="black"/>
<path d="M68.8634 227.954H57.4998V239.318H68.8634V227.954Z" fill="black"/>
<path d="M80.2271 227.954H68.8634V239.318H80.2271V227.954Z" fill="black"/>
<path d="M102.954 227.954H91.5907V239.318H102.954V227.954Z" fill="black"/>
<path d="M114.318 227.954H102.954V239.318H114.318L114.318 227.954Z" fill="black"/>
<path d="M125.682 227.954H114.318L114.318 239.318H125.682V227.954Z" fill="black"/>
<path d="M137.045 227.954H125.682V239.318H137.045V227.954Z" fill="black"/>
<path d="M182.5 227.954H171.136V239.318H182.5V227.954Z" fill="black"/>
<path d="M193.863 227.954H182.5V239.318H193.863V227.954Z" fill="black"/>
<path d="M227.954 227.954H216.591V239.318H227.954V227.954Z" fill="black"/>
</g>
</g>
</g>
<defs>
<clipPath id="clip0_680_8088">
<rect width="240" height="240" rx="8" fill="white"/>
</clipPath>
</defs>
</svg>
