<svg width="137" height="197" viewBox="0 0 137 197" fill="none" xmlns="http://www.w3.org/2000/svg">
<path d="M25.7819 180.01C25.0916 180.01 24.4403 180.331 24.0207 180.879L16.6189 190.542L13.9589 190.897L13.9434 194.665L13.9471 194.665C13.8885 195.853 14.8096 197.001 16.1659 197.001H69.2788V180.01H25.7819Z" fill="#1C8D57"/>
<path d="M69.2791 175.824H25.7819C25.0915 175.824 24.4405 176.146 24.0206 176.694L14.4046 189.248C13.2869 190.707 14.3273 192.815 16.1659 192.815H69.2791V175.824Z" fill="#1C8D57"/>
<path d="M69.2791 175.824H25.7819C25.0915 175.824 24.4405 176.146 24.0206 176.694L14.4046 189.248C13.2869 190.707 14.3273 192.815 16.1659 192.815H69.2791V175.824Z" fill="white" fill-opacity="0.4"/>
<path d="M40.8112 163.406C40.1209 163.406 39.4696 163.728 39.05 164.276L28.9882 165.666L28.9727 184.077L28.9767 184.078C28.918 185.266 29.8389 186.413 31.1952 186.413H70.731V163.406H40.8112Z" fill="#1C8D57"/>
<path d="M70.7313 150.727H40.8112C40.1209 150.727 39.4699 151.048 39.05 151.596L29.434 164.15C28.3162 165.609 29.3564 167.717 31.195 167.717H70.7313V150.727Z" fill="#1C8D57"/>
<path d="M70.7313 150.727H40.8112C40.1209 150.727 39.4699 151.048 39.05 151.596L29.434 164.15C28.3162 165.609 29.3564 167.717 31.195 167.717H70.7313V150.727Z" fill="white" fill-opacity="0.4"/>
<path d="M112.775 180.01C113.465 180.01 114.116 180.331 114.535 180.879L121.937 190.542L124.598 190.897L124.613 194.665L124.609 194.665C124.668 195.853 123.747 197.001 122.391 197.001H69.2773V180.01H112.775Z" fill="#1C8D57"/>
<path d="M69.2793 175.824H112.776C113.467 175.824 114.118 176.146 114.537 176.694L124.153 189.248C125.271 190.707 124.23 192.815 122.392 192.815H69.2793V175.824Z" fill="#1C8D57"/>
<path d="M69.2793 175.824H112.776C113.467 175.824 114.118 176.146 114.537 176.694L124.153 189.248C125.271 190.707 124.23 192.815 122.392 192.815H69.2793V175.824Z" fill="white" fill-opacity="0.4"/>
<path d="M97.7445 163.406C98.4349 163.406 99.0859 163.728 99.5055 164.276L109.568 165.666L109.583 184.077L109.579 184.078C109.638 185.266 108.717 186.413 107.361 186.413H67.8242V163.406H97.7445Z" fill="#1C8D57"/>
<path d="M67.8262 150.727H97.7462C98.4366 150.727 99.0876 151.048 99.5072 151.596L109.123 164.15C110.241 165.609 109.201 167.717 107.362 167.717H67.8262V150.727Z" fill="#1C8D57"/>
<path d="M67.8262 150.727H97.7462C98.4366 150.727 99.0876 151.048 99.5072 151.596L109.123 164.15C110.241 165.609 109.201 167.717 107.362 167.717H67.8262V150.727Z" fill="white" fill-opacity="0.4"/>
<path d="M45.6996 149.002C45.0092 149.002 44.3582 149.324 43.9386 149.871L36.5369 159.535L33.8766 159.889L33.8613 163.657L33.8651 163.657C33.8064 164.845 34.7273 165.993 36.0836 165.993H69.2784V149.002H45.6996Z" fill="#1C8D57"/>
<path d="M92.8562 149.002C93.5465 149.002 94.1975 149.324 94.6174 149.871L102.019 159.535L104.68 159.889L104.694 163.657L104.691 163.657C104.749 164.845 103.829 165.993 102.472 165.993H69.2773V149.002H92.8562Z" fill="#1C8D57"/>
<path d="M69.2785 144.816H45.6997C45.0093 144.816 44.3583 145.138 43.9387 145.686L34.3227 158.24C33.2047 159.699 34.2454 161.807 36.0837 161.807H69.2785V144.816Z" fill="#1C8D57"/>
<path d="M69.2785 144.816H45.6997C45.0093 144.816 44.3583 145.138 43.9387 145.686L34.3227 158.24C33.2047 159.699 34.2454 161.807 36.0837 161.807H69.2785V144.816Z" fill="white" fill-opacity="0.4"/>
<path d="M69.2773 144.816H92.8562C93.5465 144.816 94.1975 145.138 94.6174 145.686L104.233 158.24C105.351 159.699 104.311 161.807 102.472 161.807H69.2773V144.816Z" fill="#1C8D57"/>
<path d="M69.2773 144.816H92.8562C93.5465 144.816 94.1975 145.138 94.6174 145.686L104.233 158.24C105.351 159.699 104.311 161.807 102.472 161.807H69.2773V144.816Z" fill="white" fill-opacity="0.4"/>
<path d="M54.9315 165.992H43.3223V161.807H54.9315V165.992Z" fill="white" fill-opacity="0.3"/>
<path d="M44.6051 197H33.0781V192.814H44.6051V197Z" fill="white" fill-opacity="0.3"/>
<path d="M51.5701 186.413H39.9609V167.717H51.5701V186.413Z" fill="white" fill-opacity="0.3"/>
<path d="M33.0781 192.815L40.0025 186.412H51.5295L44.6051 192.815H33.0781Z" fill="white" fill-opacity="0.3"/>
<path d="M43.3225 165.992L39.9609 167.717H51.5699L54.9312 165.992H43.3225Z" fill="white" fill-opacity="0.3"/>
<path d="M68.8263 0.556641C29.6599 0.556641 24.1191 9.64149 24.1191 15.7976C24.1191 39.9251 39.9671 113.522 68.8263 113.522C97.6855 113.522 113.533 39.9251 113.533 15.7976C113.533 9.64149 107.993 0.556641 68.8263 0.556641Z" fill="#FFBB0D"/>
<path d="M130.815 27.4743C126.833 24.7094 121.787 24.1826 117.319 26.0637L112.667 28.0233C112.667 28.0233 111.803 33.9799 111.114 38.4489C110.425 42.9176 108.339 51.9231 108.339 51.9231C108.339 51.9231 110.384 39.5267 119.729 34.6229L120.744 34.1952C122.437 33.4824 124.274 33.6741 125.783 34.722C127.292 35.7699 128.114 37.424 128.038 39.2594L127.672 48.0778C127.43 53.9095 125.477 59.479 122.023 64.1845C118.569 68.8897 113.841 72.4226 108.35 74.4015L102.821 76.3944C95.8092 78.9213 91.9759 86.4978 94.0936 93.6435L95.4953 98.3723C96.0635 100.29 97.8196 101.531 99.7232 101.531C100.138 101.531 100.56 101.472 100.979 101.348C103.315 100.656 104.647 98.201 103.955 95.8649L102.553 91.1361C101.762 88.4681 103.194 85.6388 105.812 84.6952L111.342 82.7023C118.488 80.1267 124.641 75.529 129.136 69.4051C133.63 63.2817 136.173 56.0331 136.488 48.4434L136.854 39.6253C137.055 34.7815 134.797 30.2392 130.815 27.4743Z" fill="#FFBB0D"/>
<path d="M6.83637 27.4743C10.8185 24.7094 15.8637 24.1826 20.3316 26.0637L24.9839 28.0233C24.9839 28.0233 25.8479 33.9799 26.5374 38.4489C27.2269 42.9176 29.3121 51.9231 29.3121 51.9231C29.3121 51.9231 27.2666 39.5267 17.9228 34.6229L16.9079 34.1952C15.2142 33.4824 13.3776 33.6741 11.8681 34.722C10.3589 35.7699 9.53662 37.424 9.61278 39.2594L9.97895 48.0778C10.2209 53.9095 12.1745 59.479 15.6283 64.1845C19.0822 68.8897 23.8099 72.4226 29.3009 74.4015L34.831 76.3944C41.8422 78.9213 45.6751 86.4978 43.5575 93.6435L42.156 98.3723C41.5878 100.29 39.8317 101.531 37.9282 101.531C37.5132 101.531 37.0907 101.472 36.6725 101.348C34.3364 100.656 33.0039 98.201 33.6966 95.8649L35.098 91.1361C35.8887 88.4681 34.4574 85.6388 31.8393 84.6952L26.3098 82.7023C19.1635 80.1267 13.0103 75.529 8.51544 69.4051C4.02086 63.2817 1.4784 56.0331 1.1634 48.4434L0.797521 39.6253C0.596619 34.7815 2.85396 30.2392 6.83637 27.4743Z" fill="#FFBB0D"/>
<path d="M59.3185 101.531C59.3185 101.531 32.2183 67.587 32.6937 18.8408C32.7109 17.0637 33.9066 15.5131 35.6196 15.0403C38.1563 14.3407 40.6645 16.2471 40.6637 18.879C40.6608 31.9238 42.3936 67.188 59.3185 101.531Z" fill="white" fill-opacity="0.5"/>
<path d="M113.533 15.7975C113.533 12.0638 111.493 7.25332 101.151 4.04492C101.47 23.7451 99.4384 80.4828 81.3555 108.628C102.238 91.7908 113.533 36.166 113.533 15.7975Z" fill="black" fill-opacity="0.15"/>
<path d="M92.7079 154.73C92.8016 154.604 92.8761 154.472 92.931 154.333C92.935 154.323 92.9393 154.314 92.9427 154.304C92.9677 154.238 92.9876 154.17 93.0034 154.101L93.0117 154.062C93.0255 153.992 93.0359 153.921 93.041 153.849C93.0416 153.838 93.0416 153.826 93.0422 153.815C93.0462 153.739 93.0462 153.66 93.0399 153.58L93.0459 151.096L91.4703 150.845C90.0396 149.287 87.5911 147.325 83.9513 144.816L68.8247 147.23L53.6981 144.816C50.0583 147.325 47.6099 149.287 46.1788 150.845L44.6035 151.096L44.6096 153.58C44.6032 153.66 44.6029 153.739 44.607 153.815C44.6075 153.826 44.6078 153.838 44.6087 153.849C44.6136 153.921 44.6239 153.992 44.638 154.062C44.6406 154.075 44.6432 154.088 44.6461 154.101C44.6619 154.17 44.6817 154.238 44.7064 154.304C44.7101 154.314 44.7147 154.323 44.7185 154.333C44.7737 154.472 44.8478 154.604 44.9415 154.73C44.9481 154.739 44.9547 154.748 44.9616 154.757C45.0076 154.818 45.0582 154.876 45.1125 154.933C45.1226 154.944 45.1326 154.955 45.143 154.965C45.199 155.022 45.2585 155.078 45.3226 155.132C45.3324 155.141 45.3427 155.149 45.3528 155.157C45.4905 155.271 45.6463 155.379 45.8199 155.483C45.8322 155.49 45.8443 155.498 45.8569 155.505C45.9409 155.554 46.0291 155.602 46.1211 155.65C46.138 155.658 46.1553 155.667 46.1725 155.676C46.2659 155.723 46.3625 155.769 46.4637 155.814C46.4786 155.82 46.4941 155.827 46.5094 155.834C46.7243 155.928 46.956 156.017 47.2043 156.104C47.2219 156.11 47.2391 156.116 47.2566 156.122C47.3759 156.163 47.4995 156.203 47.626 156.242C47.6498 156.25 47.6734 156.257 47.6972 156.265C47.8248 156.304 47.9559 156.342 48.091 156.379C48.1111 156.385 48.1321 156.391 48.1528 156.397C48.2953 156.436 48.4408 156.474 48.5914 156.512C53.8893 157.846 62.5332 157.987 68.2781 157.995C68.4634 157.995 68.6457 157.995 68.8247 157.995C69.0038 157.995 69.186 157.995 69.3714 157.995C75.1165 157.987 83.7602 157.846 89.0581 156.512C89.2087 156.474 89.3541 156.436 89.4969 156.397C89.5171 156.391 89.5386 156.385 89.5587 156.379C89.6935 156.342 89.8243 156.304 89.9519 156.265C89.9758 156.257 89.9996 156.25 90.0235 156.242C90.1502 156.203 90.2735 156.163 90.3928 156.122C90.4106 156.116 90.4276 156.11 90.4451 156.104C90.6934 156.017 90.9251 155.928 91.1401 155.834C91.1553 155.827 91.1705 155.82 91.1855 155.814C91.2869 155.769 91.3838 155.723 91.4772 155.676C91.4939 155.667 91.5114 155.658 91.5284 155.65C91.6203 155.602 91.7086 155.554 91.7925 155.505C91.8052 155.498 91.8172 155.49 91.8296 155.483C92.0035 155.379 92.1592 155.271 92.2966 155.157C92.3067 155.149 92.3173 155.141 92.3268 155.132C92.3909 155.078 92.4501 155.022 92.5064 154.965C92.5168 154.955 92.5268 154.944 92.5369 154.933C92.5915 154.876 92.6418 154.818 92.6881 154.757C92.6947 154.748 92.7013 154.739 92.7079 154.73Z" fill="#FFBB0D"/>
<path d="M77.9995 115.34H59.6499C57.7967 115.34 56.2949 113.837 56.2949 111.984C56.2949 110.132 57.7967 108.629 59.6499 108.629H77.9995C79.8525 108.629 81.3545 110.132 81.3545 111.984C81.3545 113.837 79.8525 115.34 77.9995 115.34Z" fill="#FFBB0D"/>
<path d="M83.9515 142.008C71.6218 133.509 76.3739 115.34 76.3739 115.34H68.8247H61.2755C61.2755 115.34 66.0278 133.509 53.6981 142.008C42.6746 149.606 42.5752 152.189 48.5913 153.704C54.0602 155.081 63.0942 155.186 68.8247 155.186C74.5557 155.186 83.5891 155.081 89.058 153.704C95.0741 152.189 94.975 149.606 83.9515 142.008Z" fill="#FFBB0D"/>
<path d="M63.8761 120.086C63.8761 120.086 66.2122 136.437 54.8821 144.644C53.7976 145.43 54.3345 147.138 55.6736 147.138H55.7006C56.0208 147.138 56.3303 147.027 56.5767 146.822C58.4736 145.244 66.2892 137.58 63.8761 120.086Z" fill="white" fill-opacity="0.5"/>
<path d="M93.0462 151.096L93.0364 151.094C93.2206 149.294 90.5345 146.545 83.9515 142.008C71.6229 133.51 76.3733 115.343 76.3739 115.34C76.3733 115.341 67.3867 137.658 87.696 150.072C89.8777 151.406 89.9039 155.186 89.0583 156.512C89.0738 156.506 91.1711 155.82 91.1857 155.814C91.2872 155.769 91.3841 155.723 91.4775 155.676C91.4944 155.667 91.5114 155.659 91.5283 155.65C91.6203 155.603 91.7088 155.555 91.7928 155.506C91.8054 155.498 91.8175 155.49 91.8298 155.483C92.0034 155.379 92.1592 155.271 92.2969 155.157C92.3069 155.149 92.3173 155.141 92.3268 155.133C92.3912 155.078 92.4506 155.022 92.5067 154.965C92.517 154.955 92.5271 154.944 92.5372 154.934C92.5918 154.876 92.6424 154.818 92.6883 154.758C92.6949 154.749 92.7013 154.739 92.7079 154.73C92.8016 154.604 92.876 154.472 92.9312 154.334C92.9349 154.323 92.9393 154.314 92.943 154.304C92.968 154.238 92.9875 154.17 93.0036 154.101L93.012 154.062C93.026 153.993 93.0361 153.921 93.0413 153.849C93.0419 153.838 93.0419 153.827 93.0424 153.815C93.0465 153.739 93.0465 153.66 93.0401 153.581L93.0462 151.096Z" fill="black" fill-opacity="0.15"/>
<path d="M68.8249 152.373C68.8249 152.373 55.6999 151.765 49.5194 149.472C49.2587 149.376 48.9724 149.552 48.8425 149.798C48.6232 150.213 48.9256 150.629 49.3854 150.724C52.6562 151.405 60.0105 153.112 68.8249 152.373Z" fill="white" fill-opacity="0.5"/>
</svg>
