<svg width="80" height="80" viewBox="0 0 80 80" fill="none" xmlns="http://www.w3.org/2000/svg">
<path d="M35.5233 50.5584H30.0296L33.4631 29.4571H38.9574L35.5233 50.5584ZM25.4079 29.4571L20.1704 43.9707L19.5507 40.8454L19.5512 40.8465L17.7027 31.3571C17.7027 31.3571 17.4791 29.4571 15.0966 29.4571H6.43803L6.33643 29.8144C6.33643 29.8144 8.98424 30.3653 12.083 32.2263L16.856 50.5589H22.58L31.3205 29.4571H25.4079ZM68.619 50.5584H73.6635L69.2653 29.4566H64.8491C62.8098 29.4566 62.3131 31.0291 62.3131 31.0291L54.1196 50.5584H59.8464L60.9917 47.424H67.9756L68.619 50.5584ZM62.5738 43.0941L65.4604 35.1975L67.0843 43.0941H62.5738ZM54.5491 34.5315L55.3331 30.0001C55.3331 30.0001 52.9139 29.0801 50.392 29.0801C47.6657 29.0801 41.1915 30.2716 41.1915 36.0657C41.1915 41.5171 48.7901 41.5848 48.7901 44.4482C48.7901 47.3117 41.9744 46.7986 39.7251 44.9929L38.9083 49.7309C38.9083 49.7309 41.3614 50.9224 45.1093 50.9224C48.8584 50.9224 54.5141 48.9813 54.5141 43.6981C54.5141 38.2117 46.8472 37.7009 46.8472 35.3155C46.8478 32.9296 52.1982 33.2361 54.5491 34.5315Z" fill="#2566AF"/>
<path d="M19.5512 40.8454L17.7027 31.356C17.7027 31.356 17.4791 29.4561 15.0966 29.4561H6.43803L6.33643 29.8133C6.33643 29.8133 10.4981 30.6758 14.4898 33.9073C18.3066 36.9959 19.5512 40.8454 19.5512 40.8454Z" fill="#E6A540"/>
</svg>
